{
.appVersion = "3151";
.formatVersion = 3;
DisplayStrings = (
"9"
);
axes = (
{
name = "puzzle ";
tag = PUZZ;
}
);
date = "2023-04-07 14:19:15 +0000";
familyName = "New Font";
fontMaster = (
{
axesValues = (
0
);
iconName = SemiLight_Condensed;
id = "DBF666E4-5604-41F1-9EC2-592A51C7F52D";
metricValues = (
{
over = 163;
pos = 1000;
},
{
over = -163;
}
);
name = "horizontal square";
},
{
axesValues = (
100
);
iconName = SemiLight_Condensed;
id = "58E5FC18-77BC-4E01-B365-5BD9F0D9FC65";
metricValues = (
{
over = 163;
pos = 1000;
},
{
over = -163;
}
);
name = "horizontal square";
},
{
axesValues = (
200
);
id = m01;
metricValues = (
{
over = 163;
pos = 1000;
},
{
over = -163;
}
);
name = Regular;
visible = 1;
},
{
axesValues = (
300
);
iconName = SemiBold;
id = "6B27D304-7F9E-45B8-9D41-04979570550F";
metricValues = (
{
over = 163;
pos = 1000;
},
{
over = -163;
}
);
name = "vertical square";
visible = 1;
},
{
axesValues = (
400
);
iconName = SemiBold_Extended;
id = "CD6C633B-B950-41C6-A48C-C51C49E64880";
metricValues = (
{
over = 163;
pos = 1000;
},
{
over = -163;
}
);
name = "vertical puzzle";
}
);
glyphs = (
{
glyphname = A;
lastChange = "2023-04-21 01:54:46 +0000";
layers = (
{
background = {
shapes = (
{
attr = {
fillColor = (0,255);
};
closed = 1;
nodes = (
(1032,189,l),
(1032,85,o),
(947,0,o),
(842,0,c),
(221,0,l),
(117,0,o),
(32,85,o),
(32,189,c),
(32,811,l),
(32,915,o),
(117,1000,o),
(221,1000,c),
(842,1000,l),
(947,1000,o),
(1032,915,o),
(1032,811,c)
);
}
);
};
layerId = m01;
shapes = (
{
closed = 1;
nodes = (
(31,84,o),
(115,0,o),
(219,0,cs),
(271,0,o),
(318,21,o),
(352,55,cs),
(386,89,o),
(407,136,o),
(407,188,cs),
(407,203,ls),
(407,271,o),
(463,327,o),
(531,327,cs),
(600,327,o),
(656,271,o),
(656,203,cs),
(656,188,ls),
(656,84,o),
(738,0,o),
(842,0,cs),
(947,0,o),
(1031,85,o),
(1031,189,cs),
(1031,295,o),
(1031,402,o),
(1031,508,c),
(1031,609,o),
(1031,709,o),
(1031,810,cs),
(1031,915,o),
(947,1000,o),
(842,1000,cs),
(736,1000,o),
(629,1000,o),
(523,1000,c),
(422,1000,o),
(322,1000,o),
(221,1000,cs),
(116,1000,o),
(31,915,o),
(31,810,cs),
(31,724,o),
(31,637,o),
(31,551,c),
(31,430,o),
(31,309,o),
(31,188,cs)
);
},
{
closed = 1;
nodes = (
(414,736,o),
(467,789,o),
(531,789,cs),
(595,789,o),
(648,736,o),
(648,672,cs),
(648,607,o),
(595,555,o),
(531,555,cs),
(467,555,o),
(414,607,o),
(414,672,cs)
);
}
);
width = 1062;
},
{
associatedMasterId = m01;
background = {
shapes = (
{
attr = {
fillColor = (0,255);
};
closed = 1;
nodes = (
(1032,189,l),
(1032,85,o),
(947,0,o),
(842,0,c),
(221,0,l),
(117,0,o),
(32,85,o),
(32,189,c),
(32,811,l),
(32,915,o),
(117,1000,o),
(221,1000,c),
(842,1000,l),
(947,1000,o),
(1032,915,o),
(1032,811,c)
);
}
);
};
layerId = "50931EA0-C13B-4080-8789-B80C46453536";
shapes = (
{
closed = 1;
nodes = (
(31,84,o),
(115,0,o),
(219,0,cs),
(271,0,o),
(318,0,o),
(352,0,cs),
(377,0,o),
(407,0,o),
(407,0,cs),
(407,0,ls),
(407,0,o),
(463,0,o),
(531,0,cs),
(600,0,o),
(656,0,o),
(656,0,cs),
(656,0,ls),
(656,0,o),
(740,0,o),
(844,0,cs),
(895,0,o),
(942,21,o),
(976,55,cs),
(1010,89,o),
(1032,136,o),
(1032,188,cs),
(1032,810,ls),
(1032,915,o),
(947,1000,o),
(842,1000,cs),
(221,1000,ls),
(116,1000,o),
(31,915,o),
(31,810,cs),
(31,188,ls)
);
},
{
closed = 1;
nodes = (
(531,672,o),
(531,672,o),
(531,672,cs),
(531,672,o),
(531,672,o),
(531,672,cs),
(531,672,o),
(531,672,o),
(531,672,cs),
(531,672,o),
(531,672,o),
(531,672,cs)
);
}
);
width = 1063;
},
{
background = {
shapes = (
{
closed = 1;
nodes = (
(198,-163,l),
(864,-163,l),
(864,1163,l),
(198,1163,l)
);
}
);
};
layerId = "6B27D304-7F9E-45B8-9D41-04979570550F";
shapes = (
{
closed = 1;
nodes = (
(31,85,o),
(116,0,o),
(221,0,cs),
(221,0,o),
(410,0,o),
(531,0,cs),
(531,0,o),
(531,0,o),
(531,0,cs),
(531,0,ls),
(531,0,o),
(531,0,o),
(531,0,cs),
(531,0,o),
(531,0,o),
(531,0,cs),
(531,0,ls),
(652,0,o),
(842,0,o),
(842,0,c),
(947,0,o),
(1031,85,o),
(1031,189,cs),
(1031,189,o),
(1031,346,o),
(1031,500,c),
(1031,654,o),
(1031,811,o),
(1031,811,cs),
(1031,915,o),
(947,1000,o),
(842,1000,c),
(842,1000,o),
(652,1000,o),
(531,1000,c),
(410,1000,o),
(221,1000,o),
(221,1000,cs),
(116,1000,o),
(31,915,o),
(31,811,cs),
(31,811,o),
(31,654,o),
(31,500,c),
(31,346,o),
(31,189,o),
(31,189,cs)
);
},
{
closed = 1;
nodes = (
(531,654,o),
(531,654,o),
(531,654,cs),
(531,654,o),
(531,654,o),
(531,654,cs),
(531,654,o),
(531,654,o),
(531,654,cs),
(531,654,o),
(531,654,o),
(531,654,cs)
);
}
);
width = 1062;
},
{
associatedMasterId = "6B27D304-7F9E-45B8-9D41-04979570550F";
background = {
shapes = (
{
attr = {
fillColor = (0,255);
};
closed = 1;
nodes = (
(1032,189,l),
(1032,85,o),
(947,0,o),
(842,0,c),
(221,0,l),
(117,0,o),
(32,85,o),
(32,189,c),
(32,811,l),
(32,915,o),
(117,1000,o),
(221,1000,c),
(842,1000,l),
(947,1000,o),
(1032,915,o),
(1032,811,c)
);
}
);
};
layerId = "E54642B0-756D-4C10-801E-FDB9D52FF8BE";
shapes = (
{
closed = 1;
nodes = (
(31,84,o),
(115,0,o),
(219,0,cs),
(271,0,o),
(318,0,o),
(352,0,cs),
(377,0,o),
(407,0,o),
(407,0,cs),
(407,0,ls),
(407,0,o),
(463,0,o),
(531,0,cs),
(600,0,o),
(656,0,o),
(656,0,cs),
(656,0,ls),
(656,0,o),
(740,0,o),
(844,0,cs),
(895,0,o),
(942,21,o),
(976,55,cs),
(1010,89,o),
(1032,136,o),
(1032,188,cs),
(1032,810,ls),
(1032,915,o),
(947,1000,o),
(842,1000,cs),
(221,1000,ls),
(116,1000,o),
(31,915,o),
(31,810,cs),
(31,188,ls)
);
},
{
closed = 1;
nodes = (
(531,672,o),
(531,672,o),
(531,672,cs),
(531,672,o),
(531,672,o),
(531,672,cs),
(531,672,o),
(531,672,o),
(531,672,cs),
(531,672,o),
(531,672,o),
(531,672,cs)
);
}
);
width = 1063;
},
{
background = {
shapes = (
{
closed = 1;
nodes = (
(198,-163,l),
(864,-163,l),
(864,1163,l),
(198,1163,l)
);
}
);
};
layerId = "CD6C633B-B950-41C6-A48C-C51C49E64880";
shapes = (
{
closed = 1;
nodes = (
(31,85,o),
(116,0,o),
(221,0,cs),
(441,0,o),
(410,-163,o),
(531,-163,cs),
(531,-163,o),
(531,-163,o),
(531,-163,cs),
(531,-163,ls),
(531,-163,o),
(531,-163,o),
(531,-163,cs),
(531,-163,o),
(531,-163,o),
(531,-163,cs),
(531,-163,ls),
(652,-163,o),
(615,0,o),
(842,0,c),
(947,0,o),
(1031,85,o),
(1031,189,cs),
(1031,369,o),
(864,346,o),
(864,500,c),
(864,654,o),
(1031,631,o),
(1031,811,cs),
(1031,915,o),
(947,1000,o),
(842,1000,c),
(627,1000,o),
(652,1163,o),
(531,1163,c),
(410,1163,o),
(441,1000,o),
(221,1000,cs),
(116,1000,o),
(31,915,o),
(31,811,cs),
(31,631,o),
(198,654,o),
(198,500,c),
(198,346,o),
(31,369,o),
(31,189,cs)
);
},
{
closed = 1;
nodes = (
(531,654,o),
(531,654,o),
(531,654,cs),
(531,654,o),
(531,654,o),
(531,654,cs),
(531,654,o),
(531,654,o),
(531,654,cs),
(531,654,o),
(531,654,o),
(531,654,cs)
);
}
);
width = 1062;
},
{
associatedMasterId = "CD6C633B-B950-41C6-A48C-C51C49E64880";
background = {
shapes = (
{
attr = {
fillColor = (0,255);
};
closed = 1;
nodes = (
(1032,189,l),
(1032,85,o),
(947,0,o),
(842,0,c),
(221,0,l),
(117,0,o),
(32,85,o),
(32,189,c),
(32,811,l),
(32,915,o),
(117,1000,o),
(221,1000,c),
(842,1000,l),
(947,1000,o),
(1032,915,o),
(1032,811,c)
);
}
);
};
layerId = "10363190-50DF-40D9-AAFF-E6BCCF5E3256";
shapes = (
{
closed = 1;
nodes = (
(31,84,o),
(115,0,o),
(219,0,cs),
(271,0,o),
(318,0,o),
(352,0,cs),
(377,0,o),
(407,0,o),
(407,0,cs),
(407,0,ls),
(407,0,o),
(463,0,o),
(531,0,cs),
(600,0,o),
(656,0,o),
(656,0,cs),
(656,0,ls),
(656,0,o),
(740,0,o),
(844,0,cs),
(895,0,o),
(942,21,o),
(976,55,cs),
(1010,89,o),
(1032,136,o),
(1032,188,cs),
(1032,810,ls),
(1032,915,o),
(947,1000,o),
(842,1000,cs),
(221,1000,ls),
(116,1000,o),
(31,915,o),
(31,810,cs),
(31,188,ls)
);
},
{
closed = 1;
nodes = (
(531,672,o),
(531,672,o),
(531,672,cs),
(531,672,o),
(531,672,o),
(531,672,cs),
(531,672,o),
(531,672,o),
(531,672,cs),
(531,672,o),
(531,672,o),
(531,672,cs)
);
}
);
width = 1063;
},
{
background = {
shapes = (
{
closed = 1;
nodes = (
(198,-163,l),
(864,-163,l),
(864,1163,l),
(198,1163,l)
);
}
);
};
layerId = "58E5FC18-77BC-4E01-B365-5BD9F0D9FC65";
shapes = (
{
closed = 1;
nodes = (
(31,85,o),
(116,0,o),
(221,0,cs),
(221,0,o),
(377,0,o),
(530,0,cs),
(531,0,o),
(530,0,o),
(530,0,cs),
(530,0,ls),
(530,0,o),
(530,0,o),
(530,0,cs),
(530,0,o),
(530,0,o),
(530,0,cs),
(530,0,ls),
(685,0,o),
(842,0,o),
(842,0,c),
(947,0,o),
(1031,85,o),
(1031,189,cs),
(1031,189,o),
(1031,346,o),
(1031,500,c),
(1031,654,o),
(1031,811,o),
(1031,811,cs),
(1031,915,o),
(947,1000,o),
(842,1000,c),
(842,1000,o),
(685,1000,o),
(531,1000,c),
(377,1000,o),
(221,1000,o),
(221,1000,cs),
(116,1000,o),
(31,915,o),
(31,811,cs),
(31,811,o),
(31,654,o),
(31,500,c),
(31,346,o),
(31,189,o),
(31,189,cs)
);
},
{
closed = 1;
nodes = (
(530,654,o),
(530,654,o),
(530,654,cs),
(530,654,o),
(530,654,o),
(530,654,cs),
(530,654,o),
(530,654,o),
(530,654,cs),
(530,654,o),
(530,654,o),
(530,654,cs)
);
}
);
width = 1062;
},
{
associatedMasterId = "58E5FC18-77BC-4E01-B365-5BD9F0D9FC65";
background = {
shapes = (
{
attr = {
fillColor = (0,255);
};
closed = 1;
nodes = (
(1032,189,l),
(1032,85,o),
(947,0,o),
(842,0,c),
(221,0,l),
(117,0,o),
(32,85,o),
(32,189,c),
(32,811,l),
(32,915,o),
(117,1000,o),
(221,1000,c),
(842,1000,l),
(947,1000,o),
(1032,915,o),
(1032,811,c)
);
}
);
};
layerId = "0167F776-6567-4D50-BA90-B9FA37B75F47";
shapes = (
{
closed = 1;
nodes = (
(31,84,o),
(115,0,o),
(219,0,cs),
(271,0,o),
(318,0,o),
(352,0,cs),
(377,0,o),
(407,0,o),
(407,0,cs),
(407,0,ls),
(407,0,o),
(463,0,o),
(531,0,cs),
(600,0,o),
(656,0,o),
(656,0,cs),
(656,0,ls),
(656,0,o),
(740,0,o),
(844,0,cs),
(895,0,o),
(942,21,o),
(976,55,cs),
(1010,89,o),
(1032,136,o),
(1032,188,cs),
(1032,810,ls),
(1032,915,o),
(947,1000,o),
(842,1000,cs),
(221,1000,ls),
(116,1000,o),
(31,915,o),
(31,810,cs),
(31,188,ls)
);
},
{
closed = 1;
nodes = (
(531,672,o),
(531,672,o),
(531,672,cs),
(531,672,o),
(531,672,o),
(531,672,cs),
(531,672,o),
(531,672,o),
(531,672,cs),
(531,672,o),
(531,672,o),
(531,672,cs)
);
}
);
width = 1063;
},
{
background = {
shapes = (
{
closed = 1;
nodes = (
(946,0,o),
(1031,85,o),
(1031,190,cs),
(1031,410,o),
(1167,379,o),
(1167,500,cs),
(1167,500,o),
(1167,500,o),
(1167,500,cs),
(1167,500,ls),
(1167,500,o),
(1167,500,o),
(1167,500,cs),
(1167,500,o),
(1167,500,o),
(1167,500,cs),
(1167,500,ls),
(1167,621,o),
(1031,584,o),
(1031,811,c),
(1031,916,o),
(946,1000,o),
(842,1000,cs),
(662,1000,o),
(685,833,o),
(531,833,c),
(377,833,o),
(400,1000,o),
(220,1000,cs),
(116,1000,o),
(31,916,o),
(31,811,c),
(31,596,o),
(-132,621,o),
(-132,500,c),
(-132,379,o),
(31,410,o),
(31,190,cs),
(31,85,o),
(116,0,o),
(220,0,cs),
(400,0,o),
(377,167,o),
(531,167,c),
(685,167,o),
(662,0,o),
(842,0,cs)
);
},
{
closed = 1;
nodes = (
(377,500,o),
(377,500,o),
(377,500,cs),
(377,500,o),
(377,500,o),
(377,500,cs),
(377,500,o),
(377,500,o),
(377,500,cs),
(377,500,o),
(377,500,o),
(377,500,cs)
);
}
);
};
layerId = "DBF666E4-5604-41F1-9EC2-592A51C7F52D";
shapes = (
{
closed = 1;
nodes = (
(31,85,o),
(116,0,o),
(221,0,cs),
(400,0,o),
(377,167,o),
(530,167,cs),
(531,167,o),
(530,167,o),
(530,167,cs),
(530,167,ls),
(530,167,o),
(530,167,o),
(530,167,cs),
(530,167,o),
(530,167,o),
(530,167,cs),
(530,167,ls),
(685,167,o),
(662,0,o),
(842,0,c),
(947,0,o),
(1031,85,o),
(1031,189,cs),
(1031,410,o),
(1194,379,o),
(1194,500,c),
(1194,621,o),
(1031,596,o),
(1031,811,cs),
(1031,915,o),
(947,1000,o),
(842,1000,c),
(662,1000,o),
(685,833,o),
(531,833,c),
(377,833,o),
(400,1000,o),
(221,1000,cs),
(116,1000,o),
(31,915,o),
(31,811,cs),
(31,596,o),
(-132,621,o),
(-132,500,c),
(-132,379,o),
(31,410,o),
(31,189,cs)
);
},
{
closed = 1;
nodes = (
(530,654,o),
(530,654,o),
(530,654,cs),
(530,654,o),
(530,654,o),
(530,654,cs),
(530,654,o),
(530,654,o),
(530,654,cs),
(530,654,o),
(530,654,o),
(530,654,cs)
);
}
);
width = 1062;
},
{
associatedMasterId = "DBF666E4-5604-41F1-9EC2-592A51C7F52D";
background = {
shapes = (
{
attr = {
fillColor = (0,255);
};
closed = 1;
nodes = (
(1032,189,l),
(1032,85,o),
(947,0,o),
(842,0,c),
(221,0,l),
(117,0,o),
(32,85,o),
(32,189,c),
(32,811,l),
(32,915,o),
(117,1000,o),
(221,1000,c),
(842,1000,l),
(947,1000,o),
(1032,915,o),
(1032,811,c)
);
}
);
};
layerId = "90536897-E84C-4004-B5AD-0EA63BF0C244";
shapes = (
{
closed = 1;
nodes = (
(31,84,o),
(115,0,o),
(219,0,cs),
(271,0,o),
(318,0,o),
(352,0,cs),
(377,0,o),
(407,0,o),
(407,0,cs),
(407,0,ls),
(407,0,o),
(463,0,o),
(531,0,cs),
(600,0,o),
(656,0,o),
(656,0,cs),
(656,0,ls),
(656,0,o),
(740,0,o),
(844,0,cs),
(895,0,o),
(942,21,o),
(976,55,cs),
(1010,89,o),
(1032,136,o),
(1032,188,cs),
(1032,810,ls),
(1032,915,o),
(947,1000,o),
(842,1000,cs),
(221,1000,ls),
(116,1000,o),
(31,915,o),
(31,810,cs),
(31,188,ls)
);
},
{
closed = 1;
nodes = (
(531,672,o),
(531,672,o),
(531,672,cs),
(531,672,o),
(531,672,o),
(531,672,cs),
(531,672,o),
(531,672,o),
(531,672,cs),
(531,672,o),
(531,672,o),
(531,672,cs)
);
}
);
width = 1063;
}
);
unicode = (65,97);
},
{
glyphname = B;
lastChange = "2023-04-21 02:29:09 +0000";
layers = (
{
layerId = m01;
shapes = (
{
attr = {
fillColor = (0,255);
};
closed = 1;
nodes = (
(740,1000,o),
(637,1000,o),
(535,1000,c),
(430,1000,o),
(325,1000,o),
(220,1000,c),
(116,1000,o),
(31,915,o),
(31,811,c),
(31,707,o),
(31,603,o),
(31,499,c),
(31,396,o),
(31,292,o),
(31,189,c),
(31,85,o),
(116,0,o),
(220,0,c),
(322,0,o),
(424,0,o),
(526,0,cs),
(631,0,o),
(737,0,o),
(842,0,c),
(946,0,o),
(1031,85,o),
(1031,189,c),
(1031,293,o),
(1031,398,o),
(1031,502,c),
(1031,605,o),
(1031,708,o),
(1031,811,c),
(1031,915,o),
(946,1000,o),
(842,1000,c)
);
},
{
closed = 1;
nodes = (
(539,671,o),
(488,619,o),
(425,619,cs),
(362,619,o),
(310,671,o),
(310,734,cs),
(310,797,o),
(361,849,o),
(424,849,cs),
(487,849,o),
(539,797,o),
(539,734,cs)
);
},
{
closed = 1;
nodes = (
(727,500,o),
(791,436,o),
(791,357,cs),
(791,278,o),
(727,213,o),
(647,213,cs),
(568,213,o),
(504,277,o),
(504,357,cs),
(504,436,o),
(568,500,o),
(647,500,cs)
);
}
);
width = 1062;
},
{
associatedMasterId = m01;
background = {
shapes = (
{
attr = {
fillColor = (0,255);
};
closed = 1;
nodes = (
(1031,189,l),
(1031,85,o),
(946,0,o),
(842,0,c),
(220,0,l),
(116,0,o),
(31,85,o),
(31,189,c),
(31,811,l),
(31,915,o),
(116,1000,o),
(220,1000,c),
(842,1000,l),
(946,1000,o),
(1031,915,o),
(1031,811,c)
);
}
);
};
layerId = "50931EA0-C13B-4080-8789-B80C46453536";
shapes = (
{
attr = {
fillColor = (0,255);
};
closed = 1;
nodes = (
(220,1000,l),
(116,1000,o),
(31,915,o),
(31,811,c),
(31,189,l),
(31,85,o),
(116,0,o),
(220,0,c),
(842,0,l),
(946,0,o),
(1031,85,o),
(1031,189,c),
(1031,811,l),
(1031,915,o),
(946,1000,o),
(842,1000,c)
);
},
{
closed = 1;
nodes = (
(425,734,l),
(425,734,o),
(425,734,o),
(424,734,cs),
(425,734,o),
(425,734,o),
(425,734,c)
);
},
{
closed = 1;
nodes = (
(425,734,l),
(425,734,o),
(425,734,o),
(425,734,cs),
(425,734,o),
(425,734,o),
(425,734,c)
);
},
{
attr = {
fillColor = (0,255);
};
closed = 1;
nodes = (
(648,357,l),
(648,357,o),
(648,357,o),
(648,357,c),
(648,357,o),
(648,357,o),
(648,357,c)
);
},
{
attr = {
fillColor = (0,255);
};
closed = 1;
nodes = (
(648,357,o),
(648,357,o),
(648,357,c),
(648,357,o),
(648,357,o),
(648,357,c),
(648,357,l)
);
}
);
width = 1062;
},
{
background = {
shapes = (
{
closed = 1;
nodes = (
(198,-163,l),
(864,-163,l),
(864,1163,l),
(198,1163,l)
);
}
);
};
layerId = "6B27D304-7F9E-45B8-9D41-04979570550F";
shapes = (
{
attr = {
fillColor = (0,255);
};
closed = 1;
nodes = (
(842,1000,o),
(652,1000,o),
(531,1000,c),
(410,1000,o),
(220,1000,o),
(220,1000,c),
(116,1000,o),
(31,915,o),
(31,811,c),
(31,811,o),
(31,654,o),
(31,500,c),
(31,346,o),
(31,189,o),
(31,189,c),
(31,85,o),
(116,0,o),
(220,0,c),
(220,0,o),
(410,0,o),
(531,0,cs),
(652,0,o),
(842,0,o),
(842,0,c),
(946,0,o),
(1031,85,o),
(1031,189,c),
(1031,189,o),
(1031,346,o),
(1031,500,c),
(1031,654,o),
(1031,811,o),
(1031,811,c),
(1031,915,o),
(946,1000,o),
(842,1000,c)
);
},
{
closed = 1;
nodes = (
(425,734,o),
(425,734,o),
(425,734,cs),
(425,734,o),
(425,734,o),
(425,734,cs),
(425,734,o),
(425,734,o),
(425,734,cs),
(425,734,o),
(425,734,o),
(425,734,cs)
);
},
{
closed = 1;
nodes = (
(648,357,o),
(648,357,o),
(648,357,cs),
(648,357,o),
(648,357,o),
(648,357,cs),
(648,357,o),
(648,357,o),
(648,357,cs),
(648,357,o),
(648,357,o),
(648,357,cs)
);
}
);
width = 1062;
},
{
associatedMasterId = "6B27D304-7F9E-45B8-9D41-04979570550F";
background = {
shapes = (
{
attr = {
fillColor = (0,255);
};
closed = 1;
nodes = (
(1031,189,l),
(1031,85,o),
(946,0,o),
(842,0,c),
(220,0,l),
(116,0,o),
(31,85,o),
(31,189,c),
(31,811,l),
(31,915,o),
(116,1000,o),
(220,1000,c),
(842,1000,l),
(946,1000,o),
(1031,915,o),
(1031,811,c)
);
}
);
};
layerId = "F48295AE-1509-4428-B966-35E29AAB349E";
width = 1062;
},
{
background = {
shapes = (
{
closed = 1;
nodes = (
(198,-163,l),
(864,-163,l),
(864,1163,l),
(198,1163,l)
);
}
);
};
layerId = "CD6C633B-B950-41C6-A48C-C51C49E64880";
shapes = (
{
attr = {
fillColor = (0,255);
};
closed = 1;
nodes = (
(652,1000,o),
(652,1163,o),
(531,1163,c),
(410,1163,o),
(441,1000,o),
(220,1000,c),
(116,1000,o),
(31,915,o),
(31,811,c),
(31,631,o),
(198,654,o),
(198,500,c),
(198,346,o),
(31,369,o),
(31,189,c),
(31,85,o),
(116,0,o),
(220,0,c),
(441,0,o),
(410,-163,o),
(531,-163,cs),
(652,-163,o),
(652,0,o),
(842,0,c),
(946,0,o),
(1031,85,o),
(1031,189,c),
(1031,369,o),
(864,346,o),
(864,500,c),
(864,654,o),
(1031,631,o),
(1031,811,c),
(1031,915,o),
(946,1000,o),
(842,1000,c)
);
},
{
closed = 1;
nodes = (
(425,734,o),
(425,734,o),
(425,734,cs),
(425,734,o),
(425,734,o),
(425,734,cs),
(425,734,o),
(425,734,o),
(425,734,cs),
(425,734,o),
(425,734,o),
(425,734,cs)
);
},
{
closed = 1;
nodes = (
(648,357,o),
(648,357,o),
(648,357,cs),
(648,357,o),
(648,357,o),
(648,357,cs),
(648,357,o),
(648,357,o),
(648,357,cs),
(648,357,o),
(648,357,o),
(648,357,cs)
);
}
);
width = 1062;
},
{
associatedMasterId = "CD6C633B-B950-41C6-A48C-C51C49E64880";
background = {
shapes = (
{
attr = {
fillColor = (0,255);
};
closed = 1;
nodes = (
(1031,189,l),
(1031,85,o),
(946,0,o),
(842,0,c),
(220,0,l),
(116,0,o),
(31,85,o),
(31,189,c),
(31,811,l),
(31,915,o),
(116,1000,o),
(220,1000,c),
(842,1000,l),
(946,1000,o),
(1031,915,o),
(1031,811,c)
);
}
);
};
layerId = "489B2B4B-70D0-49C7-B40D-006541BF7ED1";
width = 1062;
},
{
background = {
shapes = (
{
closed = 1;
nodes = (
(198,-163,l),
(864,-163,l),
(864,1163,l),
(198,1163,l)
);
}
);
};
layerId = "58E5FC18-77BC-4E01-B365-5BD9F0D9FC65";
shapes = (
{
attr = {
fillColor = (0,255);
};
closed = 1;
nodes = (
(842,1000,o),
(685,1000,o),
(531,1000,c),
(377,1000,o),
(220,1000,o),
(220,1000,c),
(116,1000,o),
(31,915,o),
(31,811,c),
(31,811,o),
(31,654,o),
(31,500,c),
(31,346,o),
(31,189,o),
(31,189,c),
(31,85,o),
(116,0,o),
(220,0,c),
(220,0,o),
(377,0,o),
(531,0,cs),
(685,0,o),
(842,0,o),
(842,0,c),
(946,0,o),
(1031,85,o),
(1031,189,c),
(1031,189,o),
(1031,346,o),
(1031,500,c),
(1031,654,o),
(1031,811,o),
(1031,811,c),
(1031,915,o),
(946,1000,o),
(842,1000,c)
);
},
{
closed = 1;
nodes = (
(425,734,o),
(425,734,o),
(425,734,cs),
(425,734,o),
(425,734,o),
(425,734,cs),
(425,734,o),
(425,734,o),
(425,734,cs),
(425,734,o),
(425,734,o),
(425,734,cs)
);
},
{
closed = 1;
nodes = (
(648,357,o),
(648,357,o),
(648,357,cs),
(648,357,o),
(648,357,o),
(648,357,cs),
(648,357,o),
(648,357,o),
(648,357,cs),
(648,357,o),
(648,357,o),
(648,357,cs)
);
}
);
width = 1062;
},
{
associatedMasterId = "58E5FC18-77BC-4E01-B365-5BD9F0D9FC65";
background = {
shapes = (
{
attr = {
fillColor = (0,255);
};
closed = 1;
nodes = (
(1031,189,l),
(1031,85,o),
(946,0,o),
(842,0,c),
(220,0,l),
(116,0,o),
(31,85,o),
(31,189,c),
(31,811,l),
(31,915,o),
(116,1000,o),
(220,1000,c),
(842,1000,l),
(946,1000,o),
(1031,915,o),
(1031,811,c)
);
}
);
};
layerId = "7B641572-7963-4323-8681-8E5725AFB19D";
width = 1062;
},
{
background = {
shapes = (
{
closed = 1;
nodes = (
(1194,167,l),
(1194,833,l),
(-132,833,l),
(-132,167,l)
);
}
);
};
layerId = "DBF666E4-5604-41F1-9EC2-592A51C7F52D";
shapes = (
{
attr = {
fillColor = (0,255);
};
closed = 1;
nodes = (
(676,1000,o),
(685,833,o),
(531,833,c),
(377,833,o),
(400,1000,o),
(220,1000,c),
(116,1000,o),
(31,915,o),
(31,811,c),
(31,596,o),
(-132,621,o),
(-132,500,c),
(-132,379,o),
(31,410,o),
(31,189,c),
(31,85,o),
(116,0,o),
(220,0,c),
(400,0,o),
(377,167,o),
(531,167,cs),
(685,167,o),
(648,0,o),
(842,0,c),
(946,0,o),
(1031,85,o),
(1031,189,c),
(1031,410,o),
(1194,379,o),
(1194,500,c),
(1194,621,o),
(1031,596,o),
(1031,811,c),
(1031,915,o),
(946,1000,o),
(842,1000,c)
);
},
{
closed = 1;
nodes = (
(425,734,o),
(425,734,o),
(425,734,cs),
(425,734,o),
(425,734,o),
(425,734,cs),
(425,734,o),
(425,734,o),
(425,734,cs),
(425,734,o),
(425,734,o),
(425,734,cs)
);
},
{
closed = 1;
nodes = (
(648,357,o),
(648,357,o),
(648,357,cs),
(648,357,o),
(648,357,o),
(648,357,cs),
(648,357,o),
(648,357,o),
(648,357,cs),
(648,357,o),
(648,357,o),
(648,357,cs)
);
}
);
width = 1062;
},
{
associatedMasterId = "DBF666E4-5604-41F1-9EC2-592A51C7F52D";
background = {
shapes = (
{
attr = {
fillColor = (0,255);
};
closed = 1;
nodes = (
(1031,189,l),
(1031,85,o),
(946,0,o),
(842,0,c),
(220,0,l),
(116,0,o),
(31,85,o),
(31,189,c),
(31,811,l),
(31,915,o),
(116,1000,o),
(220,1000,c),
(842,1000,l),
(946,1000,o),
(1031,915,o),
(1031,811,c)
);
}
);
};
layerId = "B7AA3D39-2414-428E-BBC0-7D4F76D61A45";
width = 1062;
}
);
unicode = 66;
},
{
glyphname = C;
lastChange = "2023-04-21 01:54:46 +0000";
layers = (
{
layerId = m01;
shapes = (
{
attr = {
fillColor = (0,255);
};
closed = 1;
nodes = (
(31,708,o),
(31,604,o),
(31,501,c),
(31,397,o),
(31,293,o),
(31,189,c),
(31,85,o),
(116,0,o),
(220,0,c),
(322,0,o),
(423,0,o),
(525,0,c),
(631,0,o),
(737,0,o),
(843,0,c),
(946,0,o),
(1030,84,o),
(1030,188,c),
(1030,188,l),
(1030,292,o),
(946,376,o),
(843,376,c),
(542,376,l),
(474,376,o),
(418,431,o),
(418,500,c),
(418,569,o),
(474,624,o),
(542,624,c),
(843,624,l),
(946,624,o),
(1030,708,o),
(1030,812,c),
(1030,812,l),
(1030,916,o),
(946,1000,o),
(843,1000,c),
(747,1000,o),
(651,1000,o),
(555,1000,c),
(443,1000,o),
(332,1000,o),
(220,1000,c),
(116,1000,o),
(31,915,o),
(31,811,c)
);
}
);
width = 1062;
},
{
associatedMasterId = m01;
layerId = "50931EA0-C13B-4080-8789-B80C46453536";
visible = 1;
width = 1061;
},
{
background = {
shapes = (
{
closed = 1;
nodes = (
(198,-163,l),
(864,-163,l),
(864,1163,l),
(198,1163,l)
);
}
);
};
layerId = "6B27D304-7F9E-45B8-9D41-04979570550F";
shapes = (
{
attr = {
fillColor = (0,255);
};
closed = 1;
nodes = (
(31,811,o),
(31,654,o),
(31,500,c),
(31,346,o),
(31,189,o),
(31,189,c),
(31,85,o),
(116,0,o),
(220,0,c),
(220,0,o),
(410,0,o),
(531,0,c),
(652,0,o),
(843,0,o),
(843,0,c),
(946,0,o),
(1031,84,o),
(1031,188,c),
(1031,188,l),
(1031,188,o),
(1031,346,o),
(1031,500,c),
(1031,500,l),
(1031,500,o),
(1031,500,o),
(1031,500,c),
(1031,500,o),
(1031,500,o),
(1031,500,c),
(1031,500,l),
(1031,654,o),
(1031,812,o),
(1031,812,c),
(1031,812,l),
(1031,916,o),
(946,1000,o),
(843,1000,c),
(843,1000,o),
(652,1000,o),
(531,1000,c),
(410,1000,o),
(220,1000,o),
(220,1000,c),
(116,1000,o),
(31,915,o),
(31,811,c)
);
}
);
width = 1062;
},
{
background = {
shapes = (
{
closed = 1;
nodes = (
(198,-163,l),
(864,-163,l),
(864,1163,l),
(198,1163,l)
);
}
);
};
layerId = "CD6C633B-B950-41C6-A48C-C51C49E64880";
shapes = (
{
attr = {
fillColor = (0,255);
};
closed = 1;
nodes = (
(31,631,o),
(198,654,o),
(198,500,c),
(198,346,o),
(31,369,o),
(31,189,c),
(31,85,o),
(116,0,o),
(220,0,c),
(441,0,o),
(410,-163,o),
(531,-163,c),
(652,-163,o),
(621,0,o),
(843,0,c),
(946,0,o),
(1031,84,o),
(1031,188,c),
(1031,188,l),
(1031,369,o),
(864,346,o),
(864,500,c),
(864,500,l),
(864,500,o),
(864,500,o),
(864,500,c),
(864,500,o),
(864,500,o),
(864,500,c),
(864,500,l),
(864,654,o),
(1031,631,o),
(1031,812,c),
(1031,812,l),
(1031,916,o),
(946,1000,o),
(843,1000,c),
(621,1000,o),
(652,1163,o),
(531,1163,c),
(410,1163,o),
(441,1000,o),
(220,1000,c),
(116,1000,o),
(31,915,o),
(31,811,c)
);
}
);
width = 1062;
},
{
background = {
shapes = (
{
closed = 1;
nodes = (
(198,-163,l),
(864,-163,l),
(864,1163,l),
(198,1163,l)
);
}
);
};
layerId = "58E5FC18-77BC-4E01-B365-5BD9F0D9FC65";
shapes = (
{
attr = {
fillColor = (0,255);
};
closed = 1;
nodes = (
(31,811,o),
(31,621,o),
(31,500,c),
(31,379,o),
(31,189,o),
(31,189,c),
(31,85,o),
(116,0,o),
(220,0,c),
(220,0,o),
(377,0,o),
(530,0,c),
(685,0,o),
(843,0,o),
(843,0,c),
(946,0,o),
(1031,84,o),
(1031,188,c),
(1031,188,l),
(1031,188,o),
(1031,379,o),
(1031,500,c),
(1031,500,l),
(1031,500,o),
(1031,500,o),
(1031,500,c),
(1031,500,o),
(1031,500,o),
(1031,500,c),
(1031,500,l),
(1031,621,o),
(1031,812,o),
(1031,812,c),
(1031,812,l),
(1031,916,o),
(946,1000,o),
(843,1000,c),
(843,1000,o),
(685,1000,o),
(530,1000,c),
(377,1000,o),
(220,1000,o),
(220,1000,c),
(116,1000,o),
(31,915,o),
(31,811,c)
);
}
);
width = 1062;
},
{
background = {
shapes = (
{
closed = 1;
nodes = (
(1194,167,l),
(1194,833,l),
(-132,833,l),
(-132,167,l)
);
}
);
};
layerId = "DBF666E4-5604-41F1-9EC2-592A51C7F52D";
shapes = (
{
attr = {
fillColor = (0,255);
};
closed = 1;
nodes = (
(31,596,o),
(-132,621,o),
(-132,500,c),
(-132,379,o),
(31,410,o),
(31,189,c),
(31,85,o),
(116,0,o),
(220,0,c),
(400,0,o),
(377,167,o),
(530,167,c),
(685,167,o),
(662,0,o),
(843,0,c),
(946,0,o),
(1031,84,o),
(1031,188,c),
(1031,188,l),
(1031,410,o),
(1194,379,o),
(1194,500,c),
(1194,500,l),
(1194,500,o),
(1194,500,o),
(1194,500,c),
(1194,500,o),
(1194,500,o),
(1194,500,c),
(1194,500,l),
(1194,621,o),
(1031,596,o),
(1031,812,c),
(1031,812,l),
(1031,916,o),
(946,1000,o),
(843,1000,c),
(662,1000,o),
(685,833,o),
(530,833,c),
(377,833,o),
(400,1000,o),
(220,1000,c),
(116,1000,o),
(31,915,o),
(31,811,c)
);
}
);
width = 1062;
}
);
unicode = (67,99);
},
{
glyphname = D;
lastChange = "2023-04-21 02:22:03 +0000";
layers = (
{
layerId = m01;
shapes = (
{
attr = {
fillColor = (0,255);
};
closed = 1;
nodes = (
(668,1000,o),
(601,1000,o),
(533,1000,c),
(429,1000,o),
(324,1000,o),
(220,1000,c),
(116,1000,o),
(31,915,o),
(31,811,c),
(31,707,o),
(31,602,o),
(31,498,c),
(31,395,o),
(31,292,o),
(31,189,c),
(31,85,o),
(116,0,o),
(220,0,c),
(322,0,o),
(425,0,o),
(527,0,c),
(597,0,o),
(666,0,o),
(736,0,c),
(899,0,o),
(1031,132,o),
(1031,295,c),
(1031,364,o),
(1031,433,o),
(1031,502,c),
(1031,570,o),
(1031,637,o),
(1031,705,c),
(1031,868,o),
(899,1000,o),
(736,1000,c)
);
},
{
closed = 1;
nodes = (
(623,667,o),
(698,592,o),
(698,500,cs),
(698,408,o),
(623,333,o),
(531,333,cs),
(439,333,o),
(364,408,o),
(364,500,cs),
(364,592,o),
(439,667,o),
(531,667,cs)
);
}
);
width = 1062;
},
{
associatedMasterId = m01;
background = {
shapes = (
{
attr = {
fillColor = (0,255);
};
closed = 1;
nodes = (
(1031,189,l),
(1031,85,o),
(946,0,o),
(841,0,c),
(220,0,l),
(115,0,o),
(31,85,o),
(31,189,c),
(31,811,l),
(31,915,o),
(115,1000,o),
(220,1000,c),
(841,1000,l),
(946,1000,o),
(1031,915,o),
(1031,811,c)
);
}
);
};
layerId = "50931EA0-C13B-4080-8789-B80C46453536";
shapes = (
{
attr = {
fillColor = (0,255);
};
closed = 1;
nodes = (
(220,1000,l),
(116,1000,o),
(31,915,o),
(31,811,c),
(31,189,l),
(31,85,o),
(116,0,o),
(220,0,c),
(809,0,l),
(985,0,o),
(1031,76,o),
(1031,247,c),
(1031,808,l),
(1031,915,o),
(952,998,o),
(837,1000,c)
);
},
{
attr = {
fillColor = (0,255);
};
closed = 1;
nodes = (
(531,500,l),
(531,500,o),
(531,500,o),
(531,500,c),
(531,500,o),
(531,500,o),
(531,500,c)
);
},
{
attr = {
fillColor = (0,255);
};
closed = 1;
nodes = (
(531,500,o),
(531,500,o),
(531,500,c),
(531,500,o),
(531,500,o),
(531,500,c),
(531,500,l)
);
}
);
width = 1062;
},
{
background = {
shapes = (
{
closed = 1;
nodes = (
(198,-163,l),
(864,-163,l),
(864,1163,l),
(198,1163,l)
);
}
);
};
layerId = "6B27D304-7F9E-45B8-9D41-04979570550F";
shapes = (
{
attr = {
fillColor = (0,255);
};
closed = 1;
nodes = (
(841,1000,o),
(652,1000,o),
(531,1000,c),
(410,1000,o),
(220,1000,o),
(220,1000,cs),
(116,1000,o),
(31,915,o),
(31,811,cs),
(31,811,o),
(31,654,o),
(31,500,c),
(31,346,o),
(31,189,o),
(31,189,cs),
(31,85,o),
(116,0,o),
(220,0,cs),
(220,0,o),
(410,0,o),
(531,0,c),
(652,0,o),
(841,0,o),
(841,0,cs),
(947,0,o),
(1031,85,o),
(1031,189,cs),
(1031,189,o),
(1031,346,o),
(1031,500,c),
(1031,654,o),
(1031,811,o),
(1031,811,cs),
(1034,915,o),
(951,1000,o),
(841,1000,cs)
);
},
{
closed = 1;
nodes = (
(531,500,o),
(531,500,o),
(531,500,cs),
(531,500,o),
(531,500,o),
(531,500,cs),
(531,500,o),
(531,500,o),
(531,500,cs),
(531,500,o),
(531,500,o),
(531,500,cs)
);
}
);
width = 1062;
},
{
associatedMasterId = "6B27D304-7F9E-45B8-9D41-04979570550F";
background = {
shapes = (
{
attr = {
fillColor = (0,255);
};
closed = 1;
nodes = (
(1031,189,l),
(1031,85,o),
(946,0,o),
(841,0,c),
(220,0,l),
(115,0,o),
(31,85,o),
(31,189,c),
(31,811,l),
(31,915,o),
(115,1000,o),
(220,1000,c),
(841,1000,l),
(946,1000,o),
(1031,915,o),
(1031,811,c)
);
}
);
};
layerId = "0848460B-9DCF-45EB-97AD-6BA35F35F88E";
shapes = (
{
attr = {
fillColor = (0,255);
};
closed = 1;
nodes = (
(220,1000,l),
(116,1000,o),
(31,915,o),
(31,811,c),
(31,189,l),
(31,85,o),
(116,0,o),
(220,0,c),
(809,0,l),
(985,0,o),
(1031,76,o),
(1031,247,c),
(1031,808,l),
(1031,915,o),
(952,998,o),
(837,1000,c)
);
},
{
attr = {
fillColor = (0,255);
};
closed = 1;
nodes = (
(531,500,l),
(531,500,o),
(531,500,o),
(531,500,c),
(531,500,o),
(531,500,o),
(531,500,c)
);
},
{
attr = {
fillColor = (0,255);
};
closed = 1;
nodes = (
(531,500,o),
(531,500,o),
(531,500,c),
(531,500,o),
(531,500,o),
(531,500,c),
(531,500,l)
);
}
);
visible = 1;
width = 1062;
},
{
background = {
shapes = (
{
closed = 1;
nodes = (
(198,-163,l),
(864,-163,l),
(864,1163,l),
(198,1163,l)
);
}
);
};
layerId = "CD6C633B-B950-41C6-A48C-C51C49E64880";
shapes = (
{
attr = {
fillColor = (0,255);
};
closed = 1;
nodes = (
(621,1000,o),
(652,1163,o),
(531,1163,c),
(410,1163,o),
(441,1000,o),
(220,1000,cs),
(116,1000,o),
(31,915,o),
(31,811,cs),
(31,631,o),
(198,654,o),
(198,500,c),
(198,346,o),
(31,369,o),
(31,189,cs),
(31,85,o),
(116,0,o),
(220,0,cs),
(441,0,o),
(410,-163,o),
(531,-163,c),
(652,-163,o),
(621,0,o),
(841,0,cs),
(947,0,o),
(1031,85,o),
(1031,189,cs),
(1031,369,o),
(864,346,o),
(864,500,c),
(864,654,o),
(1031,631,o),
(1031,811,cs),
(1031,915,o),
(951,1000,o),
(841,1000,cs)
);
},
{
closed = 1;
nodes = (
(531,500,o),
(531,500,o),
(531,500,cs),
(531,500,o),
(531,500,o),
(531,500,cs),
(531,500,o),
(531,500,o),
(531,500,cs),
(531,500,o),
(531,500,o),
(531,500,cs)
);
}
);
width = 1062;
},
{
associatedMasterId = "CD6C633B-B950-41C6-A48C-C51C49E64880";
background = {
shapes = (
{
attr = {
fillColor = (0,255);
};
closed = 1;
nodes = (
(1031,189,l),
(1031,85,o),
(946,0,o),
(841,0,c),
(220,0,l),
(115,0,o),
(31,85,o),
(31,189,c),
(31,811,l),
(31,915,o),
(115,1000,o),
(220,1000,c),
(841,1000,l),
(946,1000,o),
(1031,915,o),
(1031,811,c)
);
}
);
};
layerId = "5B718615-7C05-4116-923D-9224710CEDBF";
shapes = (
{
attr = {
fillColor = (0,255);
};
closed = 1;
nodes = (
(220,1000,l),
(116,1000,o),
(31,915,o),
(31,811,c),
(31,189,l),
(31,85,o),
(116,0,o),
(220,0,c),
(809,0,l),
(985,0,o),
(1031,76,o),
(1031,247,c),
(1031,808,l),
(1031,915,o),
(952,998,o),
(837,1000,c)
);
},
{
attr = {
fillColor = (0,255);
};
closed = 1;
nodes = (
(531,500,l),
(531,500,o),
(531,500,o),
(531,500,c),
(531,500,o),
(531,500,o),
(531,500,c)
);
},
{
attr = {
fillColor = (0,255);
};
closed = 1;
nodes = (
(531,500,o),
(531,500,o),
(531,500,c),
(531,500,o),
(531,500,o),
(531,500,c),
(531,500,l)
);
}
);
width = 1062;
},
{
background = {
shapes = (
{
closed = 1;
nodes = (
(198,-163,l),
(864,-163,l),
(864,1163,l),
(198,1163,l)
);
}
);
};
layerId = "58E5FC18-77BC-4E01-B365-5BD9F0D9FC65";
shapes = (
{
attr = {
fillColor = (0,255);
};
closed = 1;
nodes = (
(841,1000,o),
(684,1000,o),
(530,1000,c),
(376,1000,o),
(220,1000,o),
(220,1000,cs),
(116,1000,o),
(31,915,o),
(31,811,cs),
(31,811,o),
(31,621,o),
(31,500,c),
(31,379,o),
(31,189,o),
(31,189,cs),
(31,85,o),
(116,0,o),
(220,0,cs),
(220,0,o),
(376,0,o),
(530,0,c),
(684,0,o),
(841,0,o),
(841,0,cs),
(947,0,o),
(1031,85,o),
(1031,189,cs),
(1031,189,o),
(1031,379,o),
(1031,500,c),
(1031,621,o),
(1031,811,o),
(1031,811,cs),
(1034,915,o),
(951,1000,o),
(841,1000,cs)
);
},
{
closed = 1;
nodes = (
(531,500,o),
(531,500,o),
(531,500,cs),
(531,500,o),
(531,500,o),
(531,500,cs),
(531,500,o),
(531,500,o),
(531,500,cs),
(531,500,o),
(531,500,o),
(531,500,cs)
);
}
);
width = 1062;
},
{
associatedMasterId = "58E5FC18-77BC-4E01-B365-5BD9F0D9FC65";
background = {
shapes = (
{
attr = {
fillColor = (0,255);
};
closed = 1;
nodes = (
(1031,189,l),
(1031,85,o),
(946,0,o),
(841,0,c),
(220,0,l),
(115,0,o),
(31,85,o),
(31,189,c),
(31,811,l),
(31,915,o),
(115,1000,o),
(220,1000,c),
(841,1000,l),
(946,1000,o),
(1031,915,o),
(1031,811,c)
);
}
);
};
layerId = "355530C0-49AF-486A-B5B0-A127852A7F91";
shapes = (
{
attr = {
fillColor = (0,255);
};
closed = 1;
nodes = (
(220,1000,l),
(116,1000,o),
(31,915,o),
(31,811,c),
(31,189,l),
(31,85,o),
(116,0,o),
(220,0,c),
(809,0,l),
(985,0,o),
(1031,76,o),
(1031,247,c),
(1031,808,l),
(1031,915,o),
(952,998,o),
(837,1000,c)
);
},
{
attr = {
fillColor = (0,255);
};
closed = 1;
nodes = (
(531,500,l),
(531,500,o),
(531,500,o),
(531,500,c),
(531,500,o),
(531,500,o),
(531,500,c)
);
},
{
attr = {
fillColor = (0,255);
};
closed = 1;
nodes = (
(531,500,o),
(531,500,o),
(531,500,c),
(531,500,o),
(531,500,o),
(531,500,c),
(531,500,l)
);
}
);
width = 1062;
},
{
background = {
shapes = (
{
closed = 1;
nodes = (
(1194,167,l),
(1194,833,l),
(-132,833,l),
(-132,167,l)
);
}
);
};
layerId = "DBF666E4-5604-41F1-9EC2-592A51C7F52D";
shapes = (
{
attr = {
fillColor = (0,255);
};
closed = 1;
nodes = (
(662,1000,o),
(684,833,o),
(530,833,c),
(376,833,o),
(410,1000,o),
(220,1000,cs),
(116,1000,o),
(31,915,o),
(31,811,cs),
(31,596,o),
(-132,621,o),
(-132,500,c),
(-132,379,o),
(31,410,o),
(31,189,cs),
(31,85,o),
(116,0,o),
(220,0,cs),
(410,0,o),
(376,167,o),
(530,167,c),
(684,167,o),
(662,0,o),
(841,0,cs),
(947,0,o),
(1031,85,o),
(1031,189,cs),
(1031,410,o),
(1194,379,o),
(1194,500,c),
(1194,621,o),
(1031,596,o),
(1031,811,cs),
(1031,915,o),
(951,1000,o),
(841,1000,cs)
);
},
{
closed = 1;
nodes = (
(531,500,o),
(531,500,o),
(531,500,cs),
(531,500,o),
(531,500,o),
(531,500,cs),
(531,500,o),
(531,500,o),
(531,500,cs),
(531,500,o),
(531,500,o),
(531,500,cs)
);
}
);
width = 1062;
},
{
associatedMasterId = "DBF666E4-5604-41F1-9EC2-592A51C7F52D";
background = {
shapes = (
{
attr = {
fillColor = (0,255);
};
closed = 1;
nodes = (
(1031,189,l),
(1031,85,o),
(946,0,o),
(841,0,c),
(220,0,l),
(115,0,o),
(31,85,o),
(31,189,c),
(31,811,l),
(31,915,o),
(115,1000,o),
(220,1000,c),
(841,1000,l),
(946,1000,o),
(1031,915,o),
(1031,811,c)
);
}
);
};
layerId = "E5B09D14-2A96-4EE2-80F4-EC9F8D03998D";
shapes = (
{
attr = {
fillColor = (0,255);
};
closed = 1;
nodes = (
(220,1000,l),
(116,1000,o),
(31,915,o),
(31,811,c),
(31,189,l),
(31,85,o),
(116,0,o),
(220,0,c),
(809,0,l),
(985,0,o),
(1031,76,o),
(1031,247,c),
(1031,808,l),
(1031,915,o),
(952,998,o),
(837,1000,c)
);
},
{
attr = {
fillColor = (0,255);
};
closed = 1;
nodes = (
(531,500,l),
(531,500,o),
(531,500,o),
(531,500,c),
(531,500,o),
(531,500,o),
(531,500,c)
);
},
{
attr = {
fillColor = (0,255);
};
closed = 1;
nodes = (
(531,500,o),
(531,500,o),
(531,500,c),
(531,500,o),
(531,500,o),
(531,500,c),
(531,500,l)
);
}
);
width = 1062;
}
);
unicode = (68,100);
},
{
glyphname = E;
lastChange = "2023-04-21 01:50:03 +0000";
layers = (
{
layerId = m01;
shapes = (
{
attr = {
fillColor = (0,255);
};
closed = 1;
nodes = (
(1029,161,l),
(1030,153,o),
(1031,145,o),
(1031,137,c),
(1031,61,o),
(969,0,o),
(894,0,c),
(775,0,o),
(657,0,o),
(538,0,c),
(427,0,o),
(321,0,o),
(221,0,c),
(116,0,o),
(31,85,o),
(31,189,c),
(31,293,o),
(31,398,o),
(31,502,c),
(31,605,o),
(31,708,o),
(31,811,c),
(31,915,o),
(116,1000,o),
(220,1000,c),
(330,1000,o),
(440,1000,o),
(549,1000,cs),
(664,1000,o),
(779,1000,o),
(894,1000,c),
(961,1000,o),
(1031,938,o),
(1031,862,c),
(1031,862,o),
(1031,862,o),
(1031,862,c),
(1031,774,o),
(974,726,o),
(894,726,c),
(554,726,l),
(530,726,o),
(511,706,o),
(511,683,c),
(511,680,l),
(511,656,o),
(530,637,o),
(554,637,c),
(778,637,l),
(854,637,o),
(915,576,o),
(915,500,c),
(915,424,o),
(854,363,o),
(778,363,c),
(554,363,l),
(530,363,o),
(511,344,o),
(511,320,c),
(511,317,l),
(511,293,o),
(530,274,o),
(554,274,c),
(894,274,l),
(961,274,o),
(1018,225,o),
(1029,161,c)
);
}
);
width = 1062;
},
{
associatedMasterId = m01;
background = {
shapes = (
{
attr = {
fillColor = (0,255);
};
closed = 1;
nodes = (
(1031,189,l),
(1031,85,o),
(946,0,o),
(841,0,c),
(220,0,l),
(116,0,o),
(31,85,o),
(31,189,c),
(31,811,l),
(31,915,o),
(116,1000,o),
(220,1000,c),
(841,1000,l),
(946,1000,o),
(1031,915,o),
(1031,811,c)
);
}
);
};
layerId = "50931EA0-C13B-4080-8789-B80C46453536";
name = "square 1";
shapes = (
{
attr = {
fillColor = (0,255);
};
closed = 1;
nodes = (
(1031,229,l),
(1031,221,o),
(1031,197,o),
(1031,189,c),
(1031,85,o),
(946,0,o),
(841,0,c),
(946,0,o),
(220,0,q),
(116,0,o),
(31,85,o),
(31,189,c),
(31,811,l),
(31,915,o),
(116,1000,o),
(220,1000,c),
(923,1000,o),
(841,1000,q),
(979,1000,o),
(1031,883,o),
(1031,803,c),
(1031,795,o),
(1031,792,o),
(1031,784,c),
(1031,720,o),
(1031,726,o),
(1031,726,c),
(1031,726,l),
(1031,726,o),
(1031,706,o),
(1031,683,c),
(1031,680,l),
(1031,656,o),
(1031,637,o),
(1031,637,c),
(1031,637,l),
(1031,637,o),
(1031,576,o),
(1031,500,c),
(1031,424,o),
(1031,363,o),
(1031,363,c),
(1031,363,l),
(1031,363,o),
(1031,344,o),
(1031,320,c),
(1031,317,l),
(1031,293,o),
(1031,274,o),
(1031,274,c),
(1031,274,l),
(1031,274,o),
(1031,293,o),
(1031,229,c)
);
}
);
width = 1062;
},
{
background = {
shapes = (
{
closed = 1;
nodes = (
(198,-163,l),
(864,-163,l),
(864,1163,l),
(198,1163,l)
);
}
);
};
layerId = "6B27D304-7F9E-45B8-9D41-04979570550F";
shapes = (
{
attr = {
fillColor = (0,255);
};
closed = 1;
nodes = (
(1031,505,l),
(1031,346,o),
(1031,189,o),
(1031,189,c),
(1031,85,o),
(948,0,o),
(842,0,c),
(842,0,o),
(652,0,o),
(534,0,c),
(410,0,o),
(221,0,o),
(221,0,c),
(116,0,o),
(31,85,o),
(31,189,c),
(31,189,o),
(31,346,o),
(31,505,c),
(31,654,o),
(31,811,o),
(31,811,c),
(31,915,o),
(116,1000,o),
(220,1000,c),
(220,1000,o),
(410,1000,o),
(531,1000,cs),
(652,1000,o),
(842,1000,o),
(842,1000,c),
(948,1000,o),
(1031,915,o),
(1031,803,c),
(1031,803,o),
(1031,654,o),
(1031,505,c),
(1031,505,o),
(1031,505,o),
(1031,505,c),
(1031,505,l),
(1031,505,o),
(1031,505,o),
(1031,505,c),
(1031,505,l),
(1031,505,o),
(1031,505,o),
(1031,505,c),
(1031,505,l),
(1031,505,o),
(1031,505,o),
(1031,505,c),
(1031,505,o),
(1031,505,o),
(1031,505,c),
(1031,505,l),
(1031,505,o),
(1031,505,o),
(1031,505,c),
(1031,505,l),
(1031,505,o),
(1031,505,o),
(1031,505,c),
(1031,505,l),
(1031,505,o),
(1031,505,o),
(1031,505,c)
);
}
);
width = 1062;
},
{
associatedMasterId = "6B27D304-7F9E-45B8-9D41-04979570550F";
background = {
shapes = (
{
attr = {
fillColor = (0,255);
};
closed = 1;
nodes = (
(1031,189,l),
(1031,85,o),
(946,0,o),
(841,0,c),
(220,0,l),
(116,0,o),
(31,85,o),
(31,189,c),
(31,811,l),
(31,915,o),
(116,1000,o),
(220,1000,c),
(841,1000,l),
(946,1000,o),
(1031,915,o),
(1031,811,c)
);
}
);
};
layerId = "381DA21D-5C97-4DD4-B310-AA03C427F7D2";
name = "square 1";
shapes = (
{
attr = {
fillColor = (0,255);
};
closed = 1;
nodes = (
(1031,229,l),
(1031,221,o),
(1031,197,o),
(1031,189,c),
(1031,85,o),
(946,0,o),
(841,0,c),
(946,0,o),
(220,0,q),
(116,0,o),
(31,85,o),
(31,189,c),
(31,811,l),
(31,915,o),
(116,1000,o),
(220,1000,c),
(923,1000,o),
(841,1000,q),
(979,1000,o),
(1031,883,o),
(1031,803,c),
(1031,795,o),
(1031,792,o),
(1031,784,c),
(1031,720,o),
(1031,726,o),
(1031,726,c),
(1031,726,l),
(1031,726,o),
(1031,706,o),
(1031,683,c),
(1031,680,l),
(1031,656,o),
(1031,637,o),
(1031,637,c),
(1031,637,l),
(1031,637,o),
(1031,576,o),
(1031,500,c),
(1031,424,o),
(1031,363,o),
(1031,363,c),
(1031,363,l),
(1031,363,o),
(1031,344,o),
(1031,320,c),
(1031,317,l),
(1031,293,o),
(1031,274,o),
(1031,274,c),
(1031,274,l),
(1031,274,o),
(1031,293,o),
(1031,229,c)
);
}
);
visible = 1;
width = 1062;
},
{
background = {
shapes = (
{
closed = 1;
nodes = (
(198,-163,l),
(864,-163,l),
(864,1163,l),
(198,1163,l)
);
}
);
};
layerId = "CD6C633B-B950-41C6-A48C-C51C49E64880";
shapes = (
{
attr = {
fillColor = (0,255);
};
closed = 1;
nodes = (
(864,505,l),
(864,346,o),
(1031,341,o),
(1031,189,c),
(1031,85,o),
(948,0,o),
(842,0,c),
(621,0,o),
(652,-163,o),
(534,-163,c),
(410,-163,o),
(441,0,o),
(221,0,c),
(116,0,o),
(31,85,o),
(31,189,c),
(31,341,o),
(198,346,o),
(198,505,c),
(198,654,o),
(31,631,o),
(31,811,c),
(31,915,o),
(116,1000,o),
(220,1000,c),
(441,1000,o),
(410,1163,o),
(531,1163,cs),
(652,1163,o),
(621,1000,o),
(842,1000,c),
(948,1000,o),
(1031,915,o),
(1031,803,c),
(1031,631,o),
(864,654,o),
(864,505,c),
(864,505,o),
(864,505,o),
(864,505,c),
(864,505,l),
(864,505,o),
(864,505,o),
(864,505,c),
(864,505,l),
(864,505,o),
(864,505,o),
(864,505,c),
(864,505,l),
(864,505,o),
(864,505,o),
(864,505,c),
(864,505,o),
(864,505,o),
(864,505,c),
(864,505,l),
(864,505,o),
(864,505,o),
(864,505,c),
(864,505,l),
(864,505,o),
(864,505,o),
(864,505,c),
(864,505,l),
(864,505,o),
(864,505,o),
(864,505,c)
);
}
);
width = 1062;
},
{
associatedMasterId = "CD6C633B-B950-41C6-A48C-C51C49E64880";
background = {
shapes = (
{
attr = {
fillColor = (0,255);
};
closed = 1;
nodes = (
(1031,189,l),
(1031,85,o),
(946,0,o),
(841,0,c),
(220,0,l),
(116,0,o),
(31,85,o),
(31,189,c),
(31,811,l),
(31,915,o),
(116,1000,o),
(220,1000,c),
(841,1000,l),
(946,1000,o),
(1031,915,o),
(1031,811,c)
);
}
);
};
layerId = "DDD68645-DCD5-4B14-B48F-F390DCB055B8";
name = "square 1";
shapes = (
{
attr = {
fillColor = (0,255);
};
closed = 1;
nodes = (
(1031,229,l),
(1031,221,o),
(1031,197,o),
(1031,189,c),
(1031,85,o),
(946,0,o),
(841,0,c),
(946,0,o),
(220,0,q),
(116,0,o),
(31,85,o),
(31,189,c),
(31,811,l),
(31,915,o),
(116,1000,o),
(220,1000,c),
(923,1000,o),
(841,1000,q),
(979,1000,o),
(1031,883,o),
(1031,803,c),
(1031,795,o),
(1031,792,o),
(1031,784,c),
(1031,720,o),
(1031,726,o),
(1031,726,c),
(1031,726,l),
(1031,726,o),
(1031,706,o),
(1031,683,c),
(1031,680,l),
(1031,656,o),
(1031,637,o),
(1031,637,c),
(1031,637,l),
(1031,637,o),
(1031,576,o),
(1031,500,c),
(1031,424,o),
(1031,363,o),
(1031,363,c),
(1031,363,l),
(1031,363,o),
(1031,344,o),
(1031,320,c),
(1031,317,l),
(1031,293,o),
(1031,274,o),
(1031,274,c),
(1031,274,l),
(1031,274,o),
(1031,293,o),
(1031,229,c)
);
}
);
width = 1062;
},
{
layerId = "58E5FC18-77BC-4E01-B365-5BD9F0D9FC65";
shapes = (
{
attr = {
fillColor = (0,255);
};
closed = 1;
nodes = (
(1031,504,l),
(1031,379,o),
(1031,189,o),
(1031,189,c),
(1031,85,o),
(948,0,o),
(842,0,c),
(842,0,o),
(685,0,o),
(535,0,c),
(377,0,o),
(221,0,o),
(221,0,c),
(116,0,o),
(31,85,o),
(31,189,c),
(31,189,o),
(31,379,o),
(31,504,c),
(31,621,o),
(31,811,o),
(31,811,c),
(31,915,o),
(116,1000,o),
(220,1000,c),
(220,1000,o),
(377,1000,o),
(531,1000,cs),
(685,1000,o),
(842,1000,o),
(842,1000,c),
(948,1000,o),
(1031,915,o),
(1031,803,c),
(1031,803,o),
(1031,621,o),
(1031,504,c),
(1031,504,o),
(1031,504,o),
(1031,504,c),
(1031,504,l),
(1031,504,o),
(1031,504,o),
(1031,504,c),
(1031,504,l),
(1031,504,o),
(1031,504,o),
(1031,504,c),
(1031,504,l),
(1031,504,o),
(1031,504,o),
(1031,504,c),
(1031,504,o),
(1031,504,o),
(1031,504,c),
(1031,504,l),
(1031,504,o),
(1031,504,o),
(1031,504,c),
(1031,504,l),
(1031,504,o),
(1031,504,o),
(1031,504,c),
(1031,504,l),
(1031,504,o),
(1031,504,o),
(1031,504,c)
);
}
);
width = 1062;
},
{
background = {
shapes = (
{
closed = 1;
nodes = (
(1194,167,l),
(1194,833,l),
(-132,833,l),
(-132,167,l)
);
}
);
};
layerId = "DBF666E4-5604-41F1-9EC2-592A51C7F52D";
shapes = (
{
attr = {
fillColor = (0,255);
};
closed = 1;
nodes = (
(1194,504,l),
(1194,379,o),
(1031,410,o),
(1031,189,c),
(1031,85,o),
(948,0,o),
(842,0,c),
(662,0,o),
(685,167,o),
(535,167,c),
(377,167,o),
(400,0,o),
(221,0,c),
(116,0,o),
(31,85,o),
(31,189,c),
(31,410,o),
(-132,379,o),
(-132,504,c),
(-132,621,o),
(31,596,o),
(31,811,c),
(31,915,o),
(116,1000,o),
(220,1000,c),
(400,1000,o),
(377,833,o),
(531,833,cs),
(685,833,o),
(662,1000,o),
(842,1000,c),
(948,1000,o),
(1031,915,o),
(1031,803,c),
(1031,596,o),
(1194,621,o),
(1194,504,c),
(1194,504,o),
(1194,504,o),
(1194,504,c),
(1194,504,l),
(1194,504,o),
(1194,504,o),
(1194,504,c),
(1194,504,l),
(1194,504,o),
(1194,504,o),
(1194,504,c),
(1194,504,l),
(1194,504,o),
(1194,504,o),
(1194,504,c),
(1194,504,o),
(1194,504,o),
(1194,504,c),
(1194,504,l),
(1194,504,o),
(1194,504,o),
(1194,504,c),
(1194,504,l),
(1194,504,o),
(1194,504,o),
(1194,504,c),
(1194,504,l),
(1194,504,o),
(1194,504,o),
(1194,504,c)
);
}
);
width = 1062;
}
);
unicode = (69,101);
},
{
glyphname = F;
lastChange = "2023-04-21 01:54:46 +0000";
layers = (
{
layerId = m01;
shapes = (
{
attr = {
fillColor = (0,255);
};
closed = 1;
nodes = (
(1031,863,o),
(1031,863,o),
(1031,863,c),
(1031,855,o),
(1030,847,o),
(1029,839,c),
(1018,775,o),
(961,726,o),
(894,726,c),
(554,726,l),
(530,726,o),
(511,707,o),
(511,683,c),
(511,680,l),
(511,656,o),
(530,637,o),
(554,637,c),
(778,637,l),
(855,637,o),
(918,573,o),
(915,495,c),
(913,421,o),
(849,363,o),
(775,363,c),
(728,363,o),
(680,363,o),
(633,363,c),
(565,363,o),
(510,308,o),
(510,240,c),
(510,240,o),
(510,240,o),
(510,240,c),
(517,109,o),
(403,0,o),
(271,0,c),
(261,0,o),
(252,1,o),
(243,2,c),
(124,15,o),
(31,117,o),
(31,240,c),
(31,326,o),
(31,412,o),
(31,498,c),
(31,602,o),
(31,707,o),
(31,811,c),
(31,915,o),
(116,1000,o),
(220,1000,c),
(321,1000,o),
(421,1000,o),
(522,1000,c),
(645,1000,o),
(767,1000,o),
(890,1000,c),
(967,1000,o),
(1031,938,o),
(1031,863,c)
);
}
);
width = 1062;
},
{
associatedMasterId = m01;
layerId = "50931EA0-C13B-4080-8789-B80C46453536";
shapes = (
{
attr = {
fillColor = (0,255);
};
closed = 1;
nodes = (
(1031,863,l),
(1031,855,o),
(1031,847,o),
(1031,839,c),
(1031,775,o),
(1031,726,o),
(1031,726,c),
(1031,726,l),
(1031,726,o),
(1031,707,o),
(1031,683,c),
(1031,680,l),
(1031,656,o),
(1031,637,o),
(1031,637,c),
(1031,637,l),
(1031,637,o),
(1031,573,o),
(1031,495,c),
(1031,421,o),
(1031,363,o),
(1031,363,c),
(1031,189,l),
(1031,85,o),
(946,0,o),
(841,0,c),
(630,0,l),
(510,0,o),
(403,0,o),
(271,0,c),
(261,0,o),
(251,0,o),
(243,0,c),
(116,1,o),
(31,85,o),
(31,189,c),
(31,811,l),
(31,915,o),
(116,1000,o),
(220,1000,c),
(841,1000,l),
(946,1000,o),
(1031,915,o),
(1031,811,c)
);
}
);
width = 1062;
},
{
background = {
shapes = (
{
closed = 1;
nodes = (
(198,-163,l),
(864,-163,l),
(864,1163,l),
(198,1163,l)
);
}
);
};
layerId = "6B27D304-7F9E-45B8-9D41-04979570550F";
shapes = (
{
attr = {
fillColor = (0,255);
};
closed = 1;
nodes = (
(1031,811,o),
(1031,654,o),
(1031,500,c),
(1031,500,o),
(1031,500,o),
(1031,500,c),
(1031,500,o),
(1031,500,o),
(1031,500,c),
(1031,500,l),
(1031,500,o),
(1031,500,o),
(1031,500,c),
(1031,500,l),
(1031,500,o),
(1031,500,o),
(1031,500,c),
(1031,500,l),
(1031,500,o),
(1031,500,o),
(1031,500,c),
(1031,500,o),
(1031,500,o),
(1031,500,c),
(1031,346,o),
(1031,189,o),
(1031,189,c),
(1031,85,o),
(946,0,o),
(841,0,c),
(841,0,o),
(652,0,o),
(531,0,c),
(531,0,o),
(531,0,o),
(531,0,c),
(410,0,o),
(220,0,o),
(220,0,c),
(116,1,o),
(31,85,o),
(31,189,c),
(31,189,o),
(31,346,o),
(31,500,c),
(31,654,o),
(31,811,o),
(31,811,c),
(31,915,o),
(116,1000,o),
(220,1000,c),
(220,1000,o),
(410,1000,o),
(531,1000,c),
(652,1000,o),
(841,1000,o),
(841,1000,c),
(946,1000,o),
(1031,915,o),
(1031,811,c)
);
}
);
width = 1062;
},
{
background = {
shapes = (
{
closed = 1;
nodes = (
(198,-163,l),
(864,-163,l),
(864,1163,l),
(198,1163,l)
);
}
);
};
layerId = "CD6C633B-B950-41C6-A48C-C51C49E64880";
shapes = (
{
attr = {
fillColor = (0,255);
};
closed = 1;
nodes = (
(1031,631,o),
(864,654,o),
(864,500,c),
(864,500,o),
(864,500,o),
(864,500,c),
(864,500,o),
(864,500,o),
(864,500,c),
(864,500,l),
(864,500,o),
(864,500,o),
(864,500,c),
(864,500,l),
(864,500,o),
(864,500,o),
(864,500,c),
(864,500,l),
(864,500,o),
(864,500,o),
(864,500,c),
(864,500,o),
(864,500,o),
(864,500,c),
(864,346,o),
(1031,369,o),
(1031,189,c),
(1031,85,o),
(946,0,o),
(841,0,c),
(621,0,o),
(652,-163,o),
(531,-163,c),
(531,-163,o),
(531,-163,o),
(531,-163,c),
(410,-163,o),
(441,0,o),
(220,0,c),
(116,1,o),
(31,85,o),
(31,189,c),
(31,369,o),
(198,346,o),
(198,500,c),
(198,654,o),
(31,631,o),
(31,811,c),
(31,915,o),
(116,1000,o),
(220,1000,c),
(441,1000,o),
(410,1163,o),
(531,1163,c),
(652,1163,o),
(621,1000,o),
(841,1000,c),
(946,1000,o),
(1031,915,o),
(1031,811,c)
);
}
);
width = 1062;
},
{
background = {
shapes = (
{
closed = 1;
nodes = (
(198,-163,l),
(864,-163,l),
(864,1163,l),
(198,1163,l)
);
}
);
};
layerId = "58E5FC18-77BC-4E01-B365-5BD9F0D9FC65";
shapes = (
{
attr = {
fillColor = (0,255);
};
closed = 1;
nodes = (
(1031,811,o),
(1031,621,o),
(1031,500,c),
(1031,500,o),
(1031,500,o),
(1031,500,c),
(1031,500,o),
(1031,500,o),
(1031,500,c),
(1031,500,l),
(1031,500,o),
(1031,500,o),
(1031,500,c),
(1031,500,l),
(1031,500,o),
(1031,500,o),
(1031,500,c),
(1031,500,l),
(1031,500,o),
(1031,500,o),
(1031,500,c),
(1031,500,o),
(1031,500,o),
(1031,500,c),
(1031,379,o),
(1031,189,o),
(1031,189,c),
(1031,85,o),
(946,0,o),
(841,0,c),
(841,0,o),
(684,0,o),
(531,0,c),
(531,0,o),
(531,0,o),
(531,0,c),
(377,0,o),
(220,0,o),
(220,0,c),
(116,1,o),
(31,85,o),
(31,189,c),
(31,189,o),
(31,379,o),
(31,500,c),
(31,621,o),
(31,811,o),
(31,811,c),
(31,915,o),
(116,1000,o),
(220,1000,c),
(220,1000,o),
(377,1000,o),
(531,1000,c),
(684,1000,o),
(841,1000,o),
(841,1000,c),
(946,1000,o),
(1031,915,o),
(1031,811,c)
);
}
);
width = 1062;
},
{
background = {
shapes = (
{
closed = 1;
nodes = (
(1194,167,l),
(1194,833,l),
(-132,833,l),
(-132,167,l)
);
}
);
};
layerId = "DBF666E4-5604-41F1-9EC2-592A51C7F52D";
shapes = (
{
attr = {
fillColor = (0,255);
};
closed = 1;
nodes = (
(1031,596,o),
(1194,621,o),
(1194,500,c),
(1194,500,o),
(1194,500,o),
(1194,500,c),
(1194,500,o),
(1194,500,o),
(1194,500,c),
(1194,500,l),
(1194,500,o),
(1194,500,o),
(1194,500,c),
(1194,500,l),
(1194,500,o),
(1194,500,o),
(1194,500,c),
(1194,500,l),
(1194,500,o),
(1194,500,o),
(1194,500,c),
(1194,500,o),
(1194,500,o),
(1194,500,c),
(1194,379,o),
(1031,410,o),
(1031,189,c),
(1031,85,o),
(946,0,o),
(841,0,c),
(662,0,o),
(684,167,o),
(531,167,c),
(531,167,o),
(531,167,o),
(531,167,c),
(377,167,o),
(416,0,o),
(220,0,c),
(116,1,o),
(31,85,o),
(31,189,c),
(31,410,o),
(-132,379,o),
(-132,500,c),
(-132,621,o),
(31,596,o),
(31,811,c),
(31,915,o),
(116,1000,o),
(220,1000,c),
(384,1000,o),
(377,833,o),
(531,833,c),
(684,833,o),
(662,1000,o),
(841,1000,c),
(946,1000,o),
(1031,915,o),
(1031,811,c)
);
}
);
width = 1062;
}
);
unicode = (70,102);
},
{
glyphname = G;
lastChange = "2023-04-21 01:54:46 +0000";
layers = (
{
layerId = m01;
shapes = (
{
attr = {
fillColor = (0,255);
};
closed = 1;
nodes = (
(546,624,l),
(843,624,l),
(946,624,o),
(1030,708,o),
(1030,812,c),
(1030,812,l),
(1030,916,o),
(946,1000,o),
(843,1000,c),
(743,1000,o),
(642,1000,o),
(542,1000,c),
(435,1000,o),
(327,1000,o),
(220,1000,c),
(116,1000,o),
(31,915,o),
(31,811,c),
(31,707,o),
(31,604,o),
(31,500,c),
(31,396,o),
(31,293,o),
(31,189,c),
(31,85,o),
(116,0,o),
(220,0,c),
(329,0,o),
(449,0,o),
(542,0,c),
(618,0,o),
(730,0,o),
(843,0,c),
(843,0,o),
(843,0,o),
(843,0,c),
(843,0,l),
(946,0,o),
(1030,84,o),
(1030,188,c),
(1030,188,l),
(1030,188,l),
(1030,251,o),
(1030,314,o),
(1030,377,c),
(1030,481,o),
(946,565,o),
(843,565,c),
(843,565,l),
(768,565,o),
(704,521,o),
(673,457,c),
(650,408,o),
(602,376,o),
(547,376,c),
(542,376,l),
(474,376,o),
(419,430,o),
(418,498,c),
(417,567,o),
(476,624,o),
(546,624,c)
);
}
);
width = 1062;
},
{
associatedMasterId = m01;
layerId = "50931EA0-C13B-4080-8789-B80C46453536";
shapes = (
{
attr = {
fillColor = (0,255);
};
closed = 1;
nodes = (
(1031,624,l),
(1031,624,l),
(1031,624,o),
(1031,707,o),
(1031,811,c),
(1031,811,l),
(1031,915,o),
(946,1000,o),
(841,1000,c),
(703,1000,l),
(703,1000,o),
(670,1000,o),
(670,1000,c),
(220,1000,l),
(116,1000,o),
(31,915,o),
(31,811,c),
(31,189,l),
(31,85,o),
(116,0,o),
(220,0,c),
(668,0,l),
(668,0,o),
(669,0,o),
(670,0,c),
(841,0,l),
(841,0,o),
(841,0,o),
(841,0,c),
(841,0,l),
(946,0,o),
(1031,85,o),
(1031,189,c),
(1031,189,l),
(1031,189,l),
(1031,377,l),
(1031,481,o),
(1031,565,o),
(1031,565,c),
(1031,565,l),
(1031,565,o),
(1031,521,o),
(1031,457,c),
(1031,408,o),
(1031,376,o),
(1031,376,c),
(1031,376,l),
(1031,376,o),
(1031,430,o),
(1031,498,c),
(1031,567,o),
(1031,624,o),
(1031,624,c)
);
}
);
width = 1061;
},
{
layerId = "6B27D304-7F9E-45B8-9D41-04979570550F";
shapes = (
{
attr = {
fillColor = (0,255);
};
closed = 1;
nodes = (
(1031,500,l),
(1031,500,l),
(1031,654,o),
(1031,811,o),
(1031,811,c),
(1031,811,l),
(1031,915,o),
(946,1000,o),
(841,1000,c),
(841,1000,o),
(652,1000,o),
(531,1000,c),
(410,1000,o),
(220,1000,o),
(220,1000,c),
(116,1000,o),
(31,915,o),
(31,811,c),
(31,811,o),
(31,654,o),
(31,500,c),
(31,346,o),
(31,189,o),
(31,189,c),
(31,85,o),
(116,0,o),
(220,0,c),
(220,0,o),
(410,0,o),
(531,0,c),
(652,0,o),
(841,0,o),
(841,0,c),
(841,0,o),
(841,0,o),
(841,0,c),
(841,0,l),
(946,0,o),
(1031,85,o),
(1031,189,c),
(1031,189,l),
(1031,189,l),
(1031,189,o),
(1031,346,o),
(1031,500,c),
(1031,500,o),
(1031,500,o),
(1031,500,c),
(1031,500,l),
(1031,500,o),
(1031,500,o),
(1031,500,c),
(1031,500,o),
(1031,500,o),
(1031,500,c),
(1031,500,l),
(1031,500,o),
(1031,500,o),
(1031,500,c),
(1031,500,o),
(1031,500,o),
(1031,500,c)
);
}
);
width = 1062;
},
{
associatedMasterId = "6B27D304-7F9E-45B8-9D41-04979570550F";
layerId = "2BEAC1D7-41F5-4537-990D-5C37BAFB8F4F";
shapes = (
{
attr = {
fillColor = (0,255);
};
closed = 1;
nodes = (
(1031,624,l),
(1031,624,l),
(1031,624,o),
(1031,707,o),
(1031,811,c),
(1031,811,l),
(1031,915,o),
(946,1000,o),
(841,1000,c),
(703,1000,l),
(703,1000,o),
(670,1000,o),
(670,1000,c),
(220,1000,l),
(116,1000,o),
(31,915,o),
(31,811,c),
(31,189,l),
(31,85,o),
(116,0,o),
(220,0,c),
(668,0,l),
(668,0,o),
(669,0,o),
(670,0,c),
(841,0,l),
(841,0,o),
(841,0,o),
(841,0,c),
(841,0,l),
(946,0,o),
(1031,85,o),
(1031,189,c),
(1031,189,l),
(1031,189,l),
(1031,377,l),
(1031,481,o),
(1031,565,o),
(1031,565,c),
(1031,565,l),
(1031,565,o),
(1031,521,o),
(1031,457,c),
(1031,408,o),
(1031,376,o),
(1031,376,c),
(1031,376,l),
(1031,376,o),
(1031,430,o),
(1031,498,c),
(1031,567,o),
(1031,624,o),
(1031,624,c)
);
}
);
width = 1061;
},
{
layerId = "CD6C633B-B950-41C6-A48C-C51C49E64880";
shapes = (
{
attr = {
fillColor = (0,255);
};
closed = 1;
nodes = (
(864,500,l),
(864,500,l),
(864,654,o),
(1031,631,o),
(1031,811,c),
(1031,811,l),
(1031,915,o),
(946,1000,o),
(841,1000,c),
(621,1000,o),
(652,1163,o),
(531,1163,c),
(410,1163,o),
(441,1000,o),
(220,1000,c),
(116,1000,o),
(31,915,o),
(31,811,c),
(31,631,o),
(198,654,o),
(198,500,c),
(198,346,o),
(31,369,o),
(31,189,c),
(31,85,o),
(116,0,o),
(220,0,c),
(441,0,o),
(410,-163,o),
(531,-163,c),
(652,-163,o),
(621,0,o),
(841,0,c),
(841,0,o),
(841,0,o),
(841,0,c),
(841,0,l),
(988,28,o),
(1031,85,o),
(1031,189,c),
(1031,189,l),
(1031,189,l),
(1031,369,o),
(864,346,o),
(864,500,c),
(864,500,o),
(864,500,o),
(864,500,c),
(864,500,l),
(864,500,o),
(864,500,o),
(864,500,c),
(864,500,o),
(864,500,o),
(864,500,c),
(864,500,l),
(864,500,o),
(864,500,o),
(864,500,c),
(864,500,o),
(864,500,o),
(864,500,c)
);
}
);
width = 1062;
},
{
associatedMasterId = "CD6C633B-B950-41C6-A48C-C51C49E64880";
layerId = "30F51116-59BF-47DE-A2C1-A1BB34762EB8";
shapes = (
{
attr = {
fillColor = (0,255);
};
closed = 1;
nodes = (
(1031,624,l),
(1031,624,l),
(1031,624,o),
(1031,707,o),
(1031,811,c),
(1031,811,l),
(1031,915,o),
(946,1000,o),
(841,1000,c),
(703,1000,l),
(703,1000,o),
(670,1000,o),
(670,1000,c),
(220,1000,l),
(116,1000,o),
(31,915,o),
(31,811,c),
(31,189,l),
(31,85,o),
(116,0,o),
(220,0,c),
(668,0,l),
(668,0,o),
(669,0,o),
(670,0,c),
(841,0,l),
(841,0,o),
(841,0,o),
(841,0,c),
(841,0,l),
(946,0,o),
(1031,85,o),
(1031,189,c),
(1031,189,l),
(1031,189,l),
(1031,377,l),
(1031,481,o),
(1031,565,o),
(1031,565,c),
(1031,565,l),
(1031,565,o),
(1031,521,o),
(1031,457,c),
(1031,408,o),
(1031,376,o),
(1031,376,c),
(1031,376,l),
(1031,376,o),
(1031,430,o),
(1031,498,c),
(1031,567,o),
(1031,624,o),
(1031,624,c)
);
}
);
width = 1061;
},
{
layerId = "58E5FC18-77BC-4E01-B365-5BD9F0D9FC65";
shapes = (
{
attr = {
fillColor = (0,255);
};
closed = 1;
nodes = (
(1031,500,l),
(1031,500,l),
(1031,621,o),
(1031,811,o),
(1031,811,c),
(1031,811,l),
(1031,915,o),
(946,1000,o),
(841,1000,c),
(841,1000,o),
(685,1000,o),
(530,1000,c),
(377,1000,o),
(220,1000,o),
(220,1000,c),
(116,1000,o),
(31,915,o),
(31,811,c),
(31,811,o),
(31,621,o),
(31,500,c),
(31,379,o),
(31,189,o),
(31,189,c),
(31,85,o),
(116,0,o),
(220,0,c),
(220,0,o),
(377,0,o),
(530,0,c),
(685,0,o),
(841,0,o),
(841,0,c),
(841,0,o),
(841,0,o),
(841,0,c),
(841,0,l),
(946,0,o),
(1031,85,o),
(1031,189,c),
(1031,189,l),
(1031,189,l),
(1031,189,o),
(1031,379,o),
(1031,500,c),
(1031,500,o),
(1031,500,o),
(1031,500,c),
(1031,500,l),
(1031,500,o),
(1031,500,o),
(1031,500,c),
(1031,500,o),
(1031,500,o),
(1031,500,c),
(1031,500,l),
(1031,500,o),
(1031,500,o),
(1031,500,c),
(1031,500,o),
(1031,500,o),
(1031,500,c)
);
}
);
width = 1062;
},
{
associatedMasterId = "58E5FC18-77BC-4E01-B365-5BD9F0D9FC65";
layerId = "8BCE5DDD-AEAF-4447-866B-619EAAB22D35";
shapes = (
{
attr = {
fillColor = (0,255);
};
closed = 1;
nodes = (
(1031,624,l),
(1031,624,l),
(1031,624,o),
(1031,707,o),
(1031,811,c),
(1031,811,l),
(1031,915,o),
(946,1000,o),
(841,1000,c),
(703,1000,l),
(703,1000,o),
(670,1000,o),
(670,1000,c),
(220,1000,l),
(116,1000,o),
(31,915,o),
(31,811,c),
(31,189,l),
(31,85,o),
(116,0,o),
(220,0,c),
(668,0,l),
(668,0,o),
(669,0,o),
(670,0,c),
(841,0,l),
(841,0,o),
(841,0,o),
(841,0,c),
(841,0,l),
(946,0,o),
(1031,85,o),
(1031,189,c),
(1031,189,l),
(1031,189,l),
(1031,377,l),
(1031,481,o),
(1031,565,o),
(1031,565,c),
(1031,565,l),
(1031,565,o),
(1031,521,o),
(1031,457,c),
(1031,408,o),
(1031,376,o),
(1031,376,c),
(1031,376,l),
(1031,376,o),
(1031,430,o),
(1031,498,c),
(1031,567,o),
(1031,624,o),
(1031,624,c)
);
}
);
width = 1061;
},
{
background = {
shapes = (
{
closed = 1;
nodes = (
(1194,167,l),
(1194,833,l),
(-132,833,l),
(-132,167,l)
);
}
);
};
layerId = "DBF666E4-5604-41F1-9EC2-592A51C7F52D";
shapes = (
{
attr = {
fillColor = (0,255);
};
closed = 1;
nodes = (
(1194,500,l),
(1194,500,l),
(1194,621,o),
(1031,596,o),
(1031,811,c),
(1031,811,l),
(1031,915,o),
(946,1000,o),
(841,1000,c),
(662,1000,o),
(685,833,o),
(530,833,c),
(377,833,o),
(400,1000,o),
(220,1000,c),
(116,1000,o),
(31,915,o),
(31,811,c),
(31,596,o),
(-132,621,o),
(-132,500,c),
(-132,379,o),
(31,410,o),
(31,189,c),
(31,85,o),
(116,0,o),
(220,0,c),
(400,0,o),
(377,167,o),
(530,167,c),
(685,167,o),
(662,0,o),
(841,0,c),
(841,0,o),
(841,0,o),
(841,0,c),
(841,0,ls),
(946,0,o),
(1031,85,o),
(1031,189,c),
(1031,189,l),
(1031,189,l),
(1031,410,o),
(1194,379,o),
(1194,500,c),
(1194,500,o),
(1194,500,o),
(1194,500,c),
(1194,500,l),
(1194,500,o),
(1194,500,o),
(1194,500,c),
(1194,500,o),
(1194,500,o),
(1194,500,c),
(1194,500,l),
(1194,500,o),
(1194,500,o),
(1194,500,c),
(1194,500,o),
(1194,500,o),
(1194,500,c)
);
}
);
width = 1062;
},
{
associatedMasterId = "DBF666E4-5604-41F1-9EC2-592A51C7F52D";
layerId = "580D59A8-9102-42F6-8178-DDC7CF8CE583";
shapes = (
{
attr = {
fillColor = (0,255);
};
closed = 1;
nodes = (
(1031,624,l),
(1031,624,l),
(1031,624,o),
(1031,707,o),
(1031,811,c),
(1031,811,l),
(1031,915,o),
(946,1000,o),
(841,1000,c),
(703,1000,l),
(703,1000,o),
(670,1000,o),
(670,1000,c),
(220,1000,l),
(116,1000,o),
(31,915,o),
(31,811,c),
(31,189,l),
(31,85,o),
(116,0,o),
(220,0,c),
(668,0,l),
(668,0,o),
(669,0,o),
(670,0,c),
(841,0,l),
(841,0,o),
(841,0,o),
(841,0,c),
(841,0,l),
(946,0,o),
(1031,85,o),
(1031,189,c),
(1031,189,l),
(1031,189,l),
(1031,377,l),
(1031,481,o),
(1031,565,o),
(1031,565,c),
(1031,565,l),
(1031,565,o),
(1031,521,o),
(1031,457,c),
(1031,408,o),
(1031,376,o),
(1031,376,c),
(1031,376,l),
(1031,376,o),
(1031,430,o),
(1031,498,c),
(1031,567,o),
(1031,624,o),
(1031,624,c)
);
}
);
width = 1061;
}
);
unicode = (71,103);
},
{
glyphname = H;
lastChange = "2023-04-21 01:54:46 +0000";
layers = (
{
layerId = m01;
shapes = (
{
attr = {
fillColor = (0,255);
};
closed = 1;
nodes = (
(1031,812,l),
(1031,707,o),
(1031,603,o),
(1031,498,c),
(1031,395,o),
(1031,293,o),
(1031,190,c),
(1031,88,o),
(952,5,o),
(852,0,c),
(849,0,o),
(846,0,o),
(843,0,c),
(739,1,o),
(656,84,o),
(656,188,c),
(656,203,l),
(656,227,o),
(649,250,o),
(636,270,c),
(614,304,o),
(575,327,o),
(531,327,c),
(487,327,o),
(448,304,o),
(426,269,c),
(414,250,o),
(407,227,o),
(407,203,c),
(407,188,l),
(407,136,o),
(386,89,o),
(352,55,c),
(318,21,o),
(272,0,o),
(220,0,c),
(217,0,o),
(214,0,o),
(211,0,c),
(114,5,o),
(36,83,o),
(31,179,c),
(31,182,o),
(31,185,o),
(31,188,c),
(31,292,o),
(31,397,o),
(31,501,c),
(31,604,o),
(31,707,o),
(31,810,c),
(31,912,o),
(111,995,o),
(211,1000,c),
(214,1000,o),
(217,1000,o),
(220,1000,c),
(323,1000,o),
(407,916,o),
(407,812,c),
(407,797,l),
(407,773,o),
(414,750,o),
(426,730,c),
(448,696,o),
(487,673,o),
(531,673,c),
(575,673,o),
(614,696,o),
(636,731,c),
(649,750,o),
(656,773,o),
(656,797,c),
(656,812,l),
(656,864,o),
(677,911,o),
(711,945,c),
(744,979,o),
(791,1000,o),
(842,1000,c),
(844,1000,l),
(846,1000,o),
(849,1000,o),
(852,1000,c),
(949,995,o),
(1026,917,o),
(1031,821,c),
(1031,818,o),
(1031,815,o),
(1031,812,c)
);
}
);
width = 1062;
},
{
associatedMasterId = m01;
layerId = "50931EA0-C13B-4080-8789-B80C46453536";
shapes = (
{
attr = {
fillColor = (0,255);
};
closed = 1;
nodes = (
(1031,811,l),
(1031,639,l),
(1031,639,o),
(1031,638,o),
(1031,637,c),
(1031,189,l),
(1031,85,o),
(946,0,o),
(841,0,c),
(841,0,o),
(841,0,o),
(841,0,c),
(737,0,o),
(656,0,o),
(656,0,c),
(656,0,l),
(656,0,o),
(649,0,o),
(636,0,c),
(614,0,o),
(575,0,o),
(531,0,c),
(487,0,o),
(448,0,o),
(426,0,c),
(414,0,o),
(407,0,o),
(407,0,c),
(407,0,l),
(407,0,o),
(386,0,o),
(352,0,c),
(318,0,o),
(268,0,o),
(216,0,c),
(216,0,o),
(216,0,o),
(216,0,c),
(116,0,o),
(31,90,o),
(31,189,c),
(31,189,o),
(31,189,o),
(31,189,c),
(31,361,l),
(31,361,o),
(31,362,o),
(31,363,c),
(31,811,l),
(31,915,o),
(116,1000,o),
(220,1000,c),
(220,1000,o),
(220,1000,o),
(220,1000,c),
(323,1000,o),
(407,1000,o),
(407,1000,c),
(407,1000,l),
(407,1000,o),
(414,1000,o),
(426,1000,c),
(448,1000,o),
(487,1000,o),
(531,1000,c),
(575,1000,o),
(614,1000,o),
(636,1000,c),
(649,1000,o),
(656,1000,o),
(656,1000,c),
(656,1000,l),
(656,1000,o),
(677,1000,o),
(711,1000,c),
(744,1000,o),
(796,1000,o),
(847,1000,c),
(847,1000,l),
(847,1000,o),
(847,1000,o),
(847,1000,c),
(946,1000,o),
(1031,915,o),
(1031,811,c),
(1031,811,o),
(1031,811,o),
(1031,811,c)
);
}
);
width = 1062;
},
{
layerId = "6B27D304-7F9E-45B8-9D41-04979570550F";
shapes = (
{
attr = {
fillColor = (0,255);
};
closed = 1;
nodes = (
(1031,811,l),
(1031,811,o),
(1031,654,o),
(1031,500,c),
(1031,346,o),
(1031,189,o),
(1031,189,c),
(1031,85,o),
(946,0,o),
(847,0,c),
(847,0,o),
(847,0,o),
(847,0,c),
(847,0,o),
(652,0,o),
(531,0,c),
(531,0,l),
(531,0,o),
(531,0,o),
(531,0,c),
(531,0,o),
(531,0,o),
(531,0,c),
(531,0,o),
(531,0,o),
(531,0,c),
(531,0,o),
(531,0,o),
(531,0,c),
(531,0,l),
(531,0,o),
(531,0,o),
(531,0,c),
(410,0,o),
(216,0,o),
(216,0,c),
(216,0,o),
(216,0,o),
(216,0,c),
(116,0,o),
(31,90,o),
(31,189,c),
(31,189,o),
(31,189,o),
(31,189,c),
(31,189,o),
(31,346,o),
(31,500,c),
(31,654,o),
(31,811,o),
(31,811,c),
(31,915,o),
(116,1000,o),
(216,1000,c),
(216,1000,o),
(216,1000,o),
(216,1000,c),
(216,1000,o),
(410,1000,o),
(531,1000,c),
(531,1000,l),
(531,1000,o),
(531,1000,o),
(531,1000,c),
(531,1000,o),
(531,1000,o),
(531,1000,c),
(531,1000,o),
(531,1000,o),
(531,1000,c),
(531,1000,o),
(531,1000,o),
(531,1000,c),
(531,1000,l),
(531,1000,o),
(531,1000,o),
(531,1000,c),
(652,1000,o),
(847,1000,o),
(847,1000,c),
(847,1000,l),
(847,1000,o),
(847,1000,o),
(847,1000,c),
(946,1000,o),
(1031,915,o),
(1031,811,c),
(1031,811,o),
(1031,811,o),
(1031,811,c)
);
}
);
width = 1062;
},
{
associatedMasterId = "6B27D304-7F9E-45B8-9D41-04979570550F";
layerId = "4587AB22-2662-4956-8DC0-D448943050DF";
visible = 1;
width = 1062;
},
{
layerId = "CD6C633B-B950-41C6-A48C-C51C49E64880";
shapes = (
{
attr = {
fillColor = (0,255);
};
closed = 1;
nodes = (
(1031,811,l),
(1031,631,o),
(864,654,o),
(864,500,c),
(864,346,o),
(1031,369,o),
(1031,189,c),
(1031,85,o),
(946,0,o),
(847,0,c),
(847,0,o),
(847,0,o),
(847,0,c),
(621,0,o),
(652,-163,o),
(531,-163,c),
(531,-163,l),
(531,-163,o),
(531,-163,o),
(531,-163,c),
(531,-163,o),
(531,-163,o),
(531,-163,c),
(531,-163,o),
(531,-163,o),
(531,-163,c),
(531,-163,o),
(531,-163,o),
(531,-163,c),
(531,-163,l),
(531,-163,o),
(531,-163,o),
(531,-163,c),
(410,-163,o),
(441,0,o),
(216,0,c),
(216,0,o),
(216,0,o),
(216,0,c),
(116,0,o),
(31,90,o),
(31,189,c),
(31,189,o),
(31,189,o),
(31,189,c),
(31,369,o),
(198,346,o),
(198,500,c),
(198,654,o),
(31,631,o),
(31,811,c),
(31,915,o),
(116,1000,o),
(216,1000,c),
(216,1000,o),
(216,1000,o),
(216,1000,c),
(441,1000,o),
(410,1163,o),
(531,1163,c),
(531,1163,l),
(531,1163,o),
(531,1163,o),
(531,1163,c),
(531,1163,o),
(531,1163,o),
(531,1163,c),
(531,1163,o),
(531,1163,o),
(531,1163,c),
(531,1163,o),
(531,1163,o),
(531,1163,c),
(531,1163,l),
(531,1163,o),
(531,1163,o),
(531,1163,c),
(652,1163,o),
(621,1000,o),
(847,1000,c),
(847,1000,l),
(847,1000,o),
(847,1000,o),
(847,1000,c),
(946,1000,o),
(1031,915,o),
(1031,811,c),
(1031,811,o),
(1031,811,o),
(1031,811,c)
);
}
);
width = 1062;
},
{
associatedMasterId = "CD6C633B-B950-41C6-A48C-C51C49E64880";
layerId = "A19C667E-1871-41EA-96A6-2A4EBF193AEA";
width = 1062;
},
{
layerId = "58E5FC18-77BC-4E01-B365-5BD9F0D9FC65";
shapes = (
{
attr = {
fillColor = (0,255);
};
closed = 1;
nodes = (
(1031,811,l),
(1031,811,o),
(1031,621,o),
(1031,500,c),
(1031,379,o),
(1031,189,o),
(1031,189,c),
(1031,85,o),
(946,0,o),
(847,0,c),
(847,0,o),
(847,0,o),
(847,0,c),
(847,0,o),
(685,0,o),
(531,0,c),
(531,0,l),
(531,0,o),
(531,0,o),
(531,0,c),
(531,0,o),
(531,0,o),
(531,0,c),
(531,0,o),
(531,0,o),
(531,0,c),
(531,0,o),
(531,0,o),
(531,0,c),
(531,0,l),
(531,0,o),
(531,0,o),
(531,0,c),
(377,0,o),
(216,0,o),
(216,0,c),
(216,0,o),
(216,0,o),
(216,0,c),
(116,0,o),
(31,90,o),
(31,189,c),
(31,189,o),
(31,189,o),
(31,189,c),
(31,189,o),
(31,379,o),
(31,500,c),
(31,621,o),
(31,811,o),
(31,811,c),
(31,915,o),
(116,1000,o),
(216,1000,c),
(216,1000,o),
(216,1000,o),
(216,1000,c),
(216,1000,o),
(377,1000,o),
(531,1000,c),
(531,1000,l),
(531,1000,o),
(531,1000,o),
(531,1000,c),
(531,1000,o),
(531,1000,o),
(531,1000,c),
(531,1000,o),
(531,1000,o),
(531,1000,c),
(531,1000,o),
(531,1000,o),
(531,1000,c),
(531,1000,l),
(531,1000,o),
(531,1000,o),
(531,1000,c),
(685,1000,o),
(847,1000,o),
(847,1000,c),
(847,1000,l),
(847,1000,o),
(847,1000,o),
(847,1000,c),
(946,1000,o),
(1031,915,o),
(1031,811,c),
(1031,811,o),
(1031,811,o),
(1031,811,c)
);
}
);
width = 1062;
},
{
associatedMasterId = "58E5FC18-77BC-4E01-B365-5BD9F0D9FC65";
layerId = "35B40BBE-DD84-498F-AD24-34900C3E3FBE";
width = 1062;
},
{
background = {
shapes = (
{
closed = 1;
nodes = (
(1194,167,l),
(1194,833,l),
(-132,833,l),
(-132,167,l)
);
}
);
};
layerId = "DBF666E4-5604-41F1-9EC2-592A51C7F52D";
shapes = (
{
attr = {
fillColor = (0,255);
};
closed = 1;
nodes = (
(1031,811,l),
(1031,596,o),
(1194,621,o),
(1194,500,c),
(1194,379,o),
(1031,410,o),
(1031,189,c),
(1031,85,o),
(946,0,o),
(847,0,c),
(847,0,o),
(847,0,o),
(847,0,c),
(671,0,o),
(685,167,o),
(531,167,c),
(531,167,l),
(531,167,o),
(531,167,o),
(531,167,c),
(531,167,o),
(531,167,o),
(531,167,c),
(531,167,o),
(531,167,o),
(531,167,c),
(531,167,o),
(531,167,o),
(531,167,c),
(531,167,l),
(531,167,o),
(531,167,o),
(531,167,c),
(377,167,o),
(384,0,o),
(216,0,c),
(216,0,o),
(216,0,o),
(216,0,c),
(116,0,o),
(31,90,o),
(31,189,c),
(31,189,o),
(31,189,o),
(31,189,c),
(31,410,o),
(-132,379,o),
(-132,500,c),
(-132,621,o),
(31,596,o),
(31,811,c),
(31,915,o),
(116,1000,o),
(216,1000,c),
(216,1000,o),
(216,1000,o),
(216,1000,c),
(416,1000,o),
(377,833,o),
(531,833,c),
(531,833,l),
(531,833,o),
(531,833,o),
(531,833,c),
(531,833,o),
(531,833,o),
(531,833,c),
(531,833,o),
(531,833,o),
(531,833,c),
(531,833,o),
(531,833,o),
(531,833,c),
(531,833,l),
(531,833,o),
(531,833,o),
(531,833,c),
(685,833,o),
(653,1000,o),
(847,1000,c),
(847,1000,l),
(847,1000,o),
(847,1000,o),
(847,1000,c),
(946,1000,o),
(1031,915,o),
(1031,811,c),
(1031,811,o),
(1031,811,o),
(1031,811,c)
);
}
);
width = 1062;
},
{
associatedMasterId = "DBF666E4-5604-41F1-9EC2-592A51C7F52D";
layerId = "D033E5ED-660B-4D6A-80CB-1AB52AAC7D8B";
width = 1062;
}
);
unicode = (72,104);
},
{
glyphname = I;
lastChange = "2023-04-21 01:54:46 +0000";
layers = (
{
layerId = m01;
shapes = (
{
attr = {
fillColor = (0,255);
};
closed = 1;
nodes = (
(443,0,o),
(331,0,o),
(220,0,c),
(119,0,o),
(36,80,o),
(31,180,c),
(31,183,o),
(31,186,o),
(31,189,c),
(32,292,o),
(115,376,o),
(219,376,c),
(234,376,l),
(258,376,o),
(281,383,o),
(300,395,c),
(335,417,o),
(358,456,o),
(358,500,c),
(358,544,o),
(335,583,o),
(300,605,c),
(281,617,o),
(258,624,o),
(234,624,c),
(219,624,l),
(167,624,o),
(120,645,o),
(86,679,c),
(52,713,o),
(31,759,o),
(31,811,c),
(31,814,o),
(31,817,o),
(31,820,c),
(36,917,o),
(114,995,o),
(210,1000,c),
(213,1000,o),
(216,1000,o),
(219,1000,c),
(314,1000,o),
(409,1000,o),
(504,1000,c),
(616,1000,o),
(729,1000,o),
(841,1000,c),
(943,1000,o),
(1025,920,o),
(1030,820,c),
(1030,817,o),
(1031,814,o),
(1031,811,c),
(1030,708,o),
(946,624,o),
(843,624,c),
(828,624,l),
(803,624,o),
(780,617,o),
(761,605,c),
(726,583,o),
(703,544,o),
(703,500,c),
(703,456,o),
(727,417,o),
(761,395,c),
(780,383,o),
(803,376,o),
(828,376,c),
(843,376,l),
(895,376,o),
(941,355,o),
(975,321,c),
(1009,287,o),
(1030,241,o),
(1030,189,c),
(1030,188,l),
(1030,185,o),
(1030,182,o),
(1030,180,c),
(1025,83,o),
(948,5,o),
(851,0,c),
(759,0,o),
(703,0,o),
(554,0,c)
);
}
);
width = 1062;
},
{
layerId = "6B27D304-7F9E-45B8-9D41-04979570550F";
shapes = (
{
attr = {
fillColor = (0,255);
};
closed = 1;
nodes = (
(410,0,o),
(220,0,o),
(220,0,c),
(116,0,o),
(31,85,o),
(31,189,c),
(31,189,o),
(31,189,o),
(31,189,c),
(31,189,o),
(31,346,o),
(31,500,c),
(31,500,l),
(31,500,o),
(31,500,o),
(31,500,c),
(31,500,o),
(31,500,o),
(31,500,c),
(31,500,o),
(31,500,o),
(31,500,c),
(31,500,o),
(31,500,o),
(31,500,c),
(31,500,l),
(31,500,o),
(31,500,o),
(31,500,c),
(31,654,o),
(31,811,o),
(31,811,c),
(31,811,o),
(31,811,o),
(31,811,c),
(31,915,o),
(116,1000,o),
(220,1000,c),
(220,1000,o),
(220,1000,o),
(220,1000,c),
(220,1000,o),
(410,1000,o),
(531,1000,c),
(652,1000,o),
(841,1000,o),
(841,1000,c),
(946,1003,o),
(1031,915,o),
(1031,811,c),
(1031,811,o),
(1031,811,o),
(1031,811,c),
(1031,811,o),
(1031,654,o),
(1031,500,c),
(1031,500,l),
(1031,500,o),
(1031,500,o),
(1031,500,c),
(1031,500,o),
(1031,500,o),
(1031,500,c),
(1031,500,o),
(1031,500,o),
(1031,500,c),
(1031,500,o),
(1031,500,o),
(1031,500,c),
(1031,500,l),
(1031,500,o),
(1031,500,o),
(1031,500,c),
(1031,346,o),
(1031,189,o),
(1031,189,c),
(1031,189,l),
(1031,189,o),
(1031,189,o),
(1031,189,c),
(1031,85,o),
(946,2,o),
(841,0,c),
(841,0,o),
(652,0,o),
(531,0,c)
);
}
);
width = 1062;
},
{
layerId = "CD6C633B-B950-41C6-A48C-C51C49E64880";
shapes = (
{
attr = {
fillColor = (0,255);
};
closed = 1;
nodes = (
(410,-163,o),
(441,0,o),
(220,0,c),
(116,0,o),
(31,85,o),
(31,189,c),
(31,189,o),
(31,189,o),
(31,189,c),
(31,369,o),
(198,346,o),
(198,500,c),
(198,500,l),
(198,500,o),
(198,500,o),
(198,500,c),
(198,500,o),
(198,500,o),
(198,500,c),
(198,500,o),
(198,500,o),
(198,500,c),
(198,500,o),
(198,500,o),
(198,500,c),
(198,500,l),
(198,500,o),
(198,500,o),
(198,500,c),
(198,654,o),
(31,631,o),
(31,811,c),
(31,811,o),
(31,811,o),
(31,811,c),
(31,915,o),
(116,1000,o),
(220,1000,c),
(220,1000,o),
(220,1000,o),
(220,1000,c),
(441,1000,o),
(410,1163,o),
(531,1163,c),
(652,1163,o),
(621,1000,o),
(841,1000,c),
(946,1003,o),
(1031,915,o),
(1031,811,c),
(1031,811,o),
(1031,811,o),
(1031,811,c),
(1031,631,o),
(864,654,o),
(864,500,c),
(864,500,l),
(864,500,o),
(864,500,o),
(864,500,c),
(864,500,o),
(864,500,o),
(864,500,c),
(864,500,o),
(864,500,o),
(864,500,c),
(864,500,o),
(864,500,o),
(864,500,c),
(864,500,l),
(864,500,o),
(864,500,o),
(864,500,c),
(864,346,o),
(1031,369,o),
(1031,189,c),
(1031,189,l),
(1031,189,o),
(1031,189,o),
(1031,189,c),
(1031,85,o),
(946,2,o),
(841,0,c),
(621,0,o),
(652,-163,o),
(531,-163,c)
);
}
);
width = 1062;
},
{
layerId = "58E5FC18-77BC-4E01-B365-5BD9F0D9FC65";
shapes = (
{
attr = {
fillColor = (0,255);
};
closed = 1;
nodes = (
(377,0,o),
(220,0,o),
(220,0,c),
(116,0,o),
(31,85,o),
(31,189,c),
(31,189,o),
(31,189,o),
(31,189,c),
(31,189,o),
(31,379,o),
(31,500,c),
(31,500,l),
(31,500,o),
(31,500,o),
(31,500,c),
(31,500,o),
(31,500,o),
(31,500,c),
(31,500,o),
(31,500,o),
(31,500,c),
(31,500,o),
(31,500,o),
(31,500,c),
(31,500,l),
(31,500,o),
(31,500,o),
(31,500,c),
(31,621,o),
(31,811,o),
(31,811,c),
(31,811,o),
(31,811,o),
(31,811,c),
(31,915,o),
(116,1000,o),
(220,1000,c),
(220,1000,o),
(220,1000,o),
(220,1000,c),
(220,1000,o),
(377,1000,o),
(530,1000,c),
(684,1000,o),
(841,1000,o),
(841,1000,c),
(946,1003,o),
(1031,915,o),
(1031,811,c),
(1031,811,o),
(1031,811,o),
(1031,811,c),
(1031,811,o),
(1031,621,o),
(1031,500,c),
(1031,500,l),
(1031,500,o),
(1031,500,o),
(1031,500,c),
(1031,500,o),
(1031,500,o),
(1031,500,c),
(1031,500,o),
(1031,500,o),
(1031,500,c),
(1031,500,o),
(1031,500,o),
(1031,500,c),
(1031,500,l),
(1031,500,o),
(1031,500,o),
(1031,500,c),
(1031,379,o),
(1031,189,o),
(1031,189,c),
(1031,189,l),
(1031,189,o),
(1031,189,o),
(1031,189,c),
(1031,85,o),
(946,2,o),
(841,0,c),
(841,0,o),
(684,0,o),
(530,0,c)
);
}
);
width = 1062;
},
{
background = {
shapes = (
{
closed = 1;
nodes = (
(1194,167,l),
(1194,833,l),
(-132,833,l),
(-132,167,l)
);
}
);
};
layerId = "DBF666E4-5604-41F1-9EC2-592A51C7F52D";
shapes = (
{
attr = {
fillColor = (0,255);
};
closed = 1;
nodes = (
(377,167,o),
(400,0,o),
(220,0,c),
(116,0,o),
(31,85,o),
(31,189,c),
(31,189,o),
(31,189,o),
(31,189,c),
(31,410,o),
(-132,379,o),
(-132,500,c),
(-132,500,l),
(-132,500,o),
(-132,500,o),
(-132,500,c),
(-132,500,o),
(-132,500,o),
(-132,500,c),
(-132,500,o),
(-132,500,o),
(-132,500,c),
(-132,500,o),
(-132,500,o),
(-132,500,c),
(-132,500,l),
(-132,500,o),
(-132,500,o),
(-132,500,c),
(-132,621,o),
(31,596,o),
(31,811,c),
(31,811,o),
(31,811,o),
(31,811,c),
(31,915,o),
(116,1000,o),
(220,1000,c),
(220,1000,o),
(220,1000,o),
(220,1000,c),
(400,1000,o),
(377,833,o),
(530,833,c),
(684,833,o),
(662,1000,o),
(841,1000,c),
(946,1003,o),
(1031,915,o),
(1031,811,c),
(1031,811,o),
(1031,811,o),
(1031,811,c),
(1031,596,o),
(1193,621,o),
(1194,500,c),
(1194,500,l),
(1194,500,o),
(1194,500,o),
(1194,500,c),
(1194,500,o),
(1194,500,o),
(1194,500,c),
(1194,500,o),
(1194,500,o),
(1194,500,c),
(1194,500,o),
(1194,500,o),
(1194,500,c),
(1194,500,l),
(1194,500,o),
(1194,500,o),
(1194,500,c),
(1194,379,o),
(1031,410,o),
(1031,189,c),
(1031,189,l),
(1031,189,o),
(1031,189,o),
(1031,189,c),
(1031,85,o),
(946,0,o),
(841,0,c),
(662,0,o),
(684,167,o),
(530,167,c)
);
}
);
width = 1062;
}
);
unicode = (73,105);
},
{
glyphname = J;
lastChange = "2023-04-21 01:54:46 +0000";
layers = (
{
layerId = m01;
shapes = (
{
attr = {
fillColor = (0,255);
};
closed = 1;
nodes = (
(734,1000,o),
(601,1000,o),
(468,1000,c),
(377,1000,o),
(286,1000,o),
(195,1000,c),
(104,1000,o),
(31,927,o),
(31,836,c),
(31,836,l),
(31,745,o),
(104,672,o),
(195,672,c),
(195,672,l),
(245,672,o),
(286,631,o),
(286,581,c),
(286,427,l),
(286,398,o),
(263,375,o),
(235,375,c),
(235,375,l),
(131,375,o),
(47,291,o),
(47,188,c),
(47,188,l),
(47,84,o),
(131,0,o),
(235,0,c),
(334,0,o),
(432,0,o),
(531,0,c),
(531,0,o),
(531,0,o),
(531,0,c),
(704,0,o),
(776,110,o),
(776,245,c),
(776,357,o),
(776,469,o),
(776,581,c),
(776,631,o),
(817,672,o),
(867,672,c),
(867,672,l),
(958,672,o),
(1031,745,o),
(1031,836,c),
(1031,836,l),
(1031,927,o),
(958,1000,o),
(867,1000,c)
);
}
);
width = 1062;
},
{
associatedMasterId = m01;
layerId = "50931EA0-C13B-4080-8789-B80C46453536";
shapes = (
{
attr = {
fillColor = (0,255);
};
closed = 1;
nodes = (
(531,1000,l),
(531,1000,o),
(531,1000,o),
(531,1000,c),
(195,1000,l),
(104,1000,o),
(31,927,o),
(31,836,c),
(31,836,l),
(31,745,o),
(104,672,o),
(195,672,c),
(195,672,l),
(245,672,o),
(286,631,o),
(286,581,c),
(286,427,l),
(286,398,o),
(263,375,o),
(235,375,c),
(235,375,l),
(131,375,o),
(47,291,o),
(47,188,c),
(47,188,l),
(47,84,o),
(131,0,o),
(235,0,c),
(531,0,l),
(531,0,l),
(531,0,l),
(666,0,o),
(776,110,o),
(776,245,c),
(776,581,l),
(776,631,o),
(817,672,o),
(867,672,c),
(867,672,l),
(958,672,o),
(1031,745,o),
(1031,836,c),
(1031,836,l),
(1031,927,o),
(958,1000,o),
(867,1000,c)
);
}
);
width = 1062;
},
{
layerId = "6B27D304-7F9E-45B8-9D41-04979570550F";
shapes = (
{
attr = {
fillColor = (0,255);
};
closed = 1;
nodes = (
(867,1000,o),
(652,1000,o),
(531,1000,c),
(410,1000,o),
(220,1000,o),
(220,1000,c),
(135,1000,o),
(31,915,o),
(31,811,c),
(31,811,l),
(31,811,o),
(31,654,o),
(31,500,c),
(31,500,l),
(31,500,o),
(31,500,o),
(31,500,c),
(31,500,l),
(31,500,o),
(31,500,o),
(31,500,c),
(31,500,l),
(31,346,o),
(31,189,o),
(31,189,c),
(31,189,l),
(31,85,o),
(96,0,o),
(220,0,c),
(220,0,o),
(410,0,o),
(531,0,c),
(652,0,o),
(867,0,o),
(867,0,c),
(946,0,o),
(1031,85,o),
(1031,189,c),
(1031,189,o),
(1031,346,o),
(1031,500,c),
(1031,500,o),
(1031,500,o),
(1031,500,c),
(1031,500,l),
(1031,654,o),
(1031,811,o),
(1031,811,c),
(1031,811,l),
(1031,915,o),
(946,1000,o),
(867,1000,c)
);
}
);
width = 1062;
},
{
associatedMasterId = "6B27D304-7F9E-45B8-9D41-04979570550F";
layerId = "6E3A907A-C5C7-4D13-ACB6-20898E5E9C50";
shapes = (
{
attr = {
fillColor = (0,255);
};
closed = 1;
nodes = (
(531,1000,l),
(531,1000,o),
(531,1000,o),
(531,1000,c),
(195,1000,l),
(104,1000,o),
(31,927,o),
(31,836,c),
(31,836,l),
(31,745,o),
(104,672,o),
(195,672,c),
(195,672,l),
(245,672,o),
(286,631,o),
(286,581,c),
(286,427,l),
(286,398,o),
(263,375,o),
(235,375,c),
(235,375,l),
(131,375,o),
(47,291,o),
(47,188,c),
(47,188,l),
(47,84,o),
(131,0,o),
(235,0,c),
(531,0,l),
(531,0,l),
(531,0,l),
(666,0,o),
(776,110,o),
(776,245,c),
(776,581,l),
(776,631,o),
(817,672,o),
(867,672,c),
(867,672,l),
(958,672,o),
(1031,745,o),
(1031,836,c),
(1031,836,l),
(1031,927,o),
(958,1000,o),
(867,1000,c)
);
}
);
width = 1062;
},
{
layerId = "CD6C633B-B950-41C6-A48C-C51C49E64880";
shapes = (
{
attr = {
fillColor = (0,255);
};
closed = 1;
nodes = (
(621,1000,o),
(652,1163,o),
(531,1163,c),
(410,1163,o),
(441,1000,o),
(220,1000,c),
(135,1000,o),
(31,915,o),
(31,811,c),
(31,811,l),
(31,631,o),
(198,654,o),
(198,500,c),
(198,500,l),
(198,500,o),
(198,500,o),
(198,500,c),
(198,500,l),
(198,500,o),
(198,500,o),
(198,500,c),
(198,500,l),
(198,346,o),
(31,360,o),
(31,189,c),
(31,189,l),
(31,85,o),
(96,0,o),
(220,0,c),
(441,0,o),
(410,-163,o),
(531,-163,c),
(652,-163,o),
(621,0,o),
(867,0,c),
(946,0,o),
(1031,85,o),
(1031,189,c),
(1031,378,o),
(864,346,o),
(864,500,c),
(864,500,o),
(864,500,o),
(864,500,c),
(864,500,l),
(864,654,o),
(1031,631,o),
(1031,811,c),
(1031,811,l),
(1031,915,o),
(946,1000,o),
(867,1000,c)
);
}
);
width = 1062;
},
{
associatedMasterId = "CD6C633B-B950-41C6-A48C-C51C49E64880";
layerId = "3DF794AC-3670-4656-9D9D-4E1B48E600D7";
shapes = (
{
attr = {
fillColor = (0,255);
};
closed = 1;
nodes = (
(531,1000,l),
(531,1000,o),
(531,1000,o),
(531,1000,c),
(195,1000,l),
(104,1000,o),
(31,927,o),
(31,836,c),
(31,836,l),
(31,745,o),
(104,672,o),
(195,672,c),
(195,672,l),
(245,672,o),
(286,631,o),
(286,581,c),
(286,427,l),
(286,398,o),
(263,375,o),
(235,375,c),
(235,375,l),
(131,375,o),
(47,291,o),
(47,188,c),
(47,188,l),
(47,84,o),
(131,0,o),
(235,0,c),
(531,0,l),
(531,0,l),
(531,0,l),
(666,0,o),
(776,110,o),
(776,245,c),
(776,581,l),
(776,631,o),
(817,672,o),
(867,672,c),
(867,672,l),
(958,672,o),
(1031,745,o),
(1031,836,c),
(1031,836,l),
(1031,927,o),
(958,1000,o),
(867,1000,c)
);
}
);
width = 1062;
},
{
layerId = "58E5FC18-77BC-4E01-B365-5BD9F0D9FC65";
shapes = (
{
attr = {
fillColor = (0,255);
};
closed = 1;
nodes = (
(867,1000,o),
(684,1000,o),
(531,1000,c),
(377,1000,o),
(220,1000,o),
(220,1000,c),
(135,1000,o),
(31,915,o),
(31,811,c),
(31,811,l),
(31,811,o),
(31,621,o),
(31,500,c),
(31,500,l),
(31,500,o),
(31,500,o),
(31,500,c),
(31,500,l),
(31,500,o),
(31,500,o),
(31,500,c),
(31,500,l),
(31,379,o),
(31,189,o),
(31,189,c),
(31,189,l),
(31,85,o),
(96,0,o),
(220,0,c),
(220,0,o),
(377,0,o),
(531,0,c),
(684,0,o),
(867,0,o),
(867,0,c),
(946,0,o),
(1031,85,o),
(1031,189,c),
(1031,189,o),
(1031,379,o),
(1031,500,c),
(1031,500,o),
(1031,500,o),
(1031,500,c),
(1031,500,l),
(1031,621,o),
(1031,811,o),
(1031,811,c),
(1031,811,l),
(1031,915,o),
(946,1000,o),
(867,1000,c)
);
}
);
width = 1062;
},
{
associatedMasterId = "58E5FC18-77BC-4E01-B365-5BD9F0D9FC65";
layerId = "E276E5D8-FD54-4914-B5CD-C095332A2BBD";
shapes = (
{
attr = {
fillColor = (0,255);
};
closed = 1;
nodes = (
(531,1000,l),
(531,1000,o),
(531,1000,o),
(531,1000,c),
(195,1000,l),
(104,1000,o),
(31,927,o),
(31,836,c),
(31,836,l),
(31,745,o),
(104,672,o),
(195,672,c),
(195,672,l),
(245,672,o),
(286,631,o),
(286,581,c),
(286,427,l),
(286,398,o),
(263,375,o),
(235,375,c),
(235,375,l),
(131,375,o),
(47,291,o),
(47,188,c),
(47,188,l),
(47,84,o),
(131,0,o),
(235,0,c),
(531,0,l),
(531,0,l),
(531,0,l),
(666,0,o),
(776,110,o),
(776,245,c),
(776,581,l),
(776,631,o),
(817,672,o),
(867,672,c),
(867,672,l),
(958,672,o),
(1031,745,o),
(1031,836,c),
(1031,836,l),
(1031,927,o),
(958,1000,o),
(867,1000,c)
);
}
);
width = 1062;
},
{
background = {
shapes = (
{
closed = 1;
nodes = (
(1194,167,l),
(1194,833,l),
(-132,833,l),
(-132,167,l)
);
}
);
};
layerId = "DBF666E4-5604-41F1-9EC2-592A51C7F52D";
shapes = (
{
attr = {
fillColor = (0,255);
};
closed = 1;
nodes = (
(662,1000,o),
(684,833,o),
(531,833,c),
(377,833,o),
(400,1000,o),
(220,1000,c),
(135,1000,o),
(31,915,o),
(31,811,c),
(31,811,l),
(31,596,o),
(-132,621,o),
(-132,500,c),
(-132,500,l),
(-132,500,o),
(-132,500,o),
(-132,500,c),
(-132,500,l),
(-132,500,o),
(-132,500,o),
(-132,500,c),
(-132,500,l),
(-132,379,o),
(31,410,o),
(31,189,c),
(31,189,l),
(31,85,o),
(96,0,o),
(220,0,c),
(400,0,o),
(377,167,o),
(531,167,c),
(684,167,o),
(662,0,o),
(867,0,c),
(946,0,o),
(1031,85,o),
(1031,189,c),
(1031,410,o),
(1194,379,o),
(1194,500,c),
(1194,500,o),
(1194,500,o),
(1194,500,c),
(1194,500,l),
(1194,621,o),
(1031,596,o),
(1031,811,c),
(1031,811,l),
(1031,915,o),
(946,1000,o),
(867,1000,c)
);
}
);
width = 1062;
},
{
associatedMasterId = "DBF666E4-5604-41F1-9EC2-592A51C7F52D";
layerId = "76DAF262-8A34-49D6-B06C-E38183A3001E";
shapes = (
{
attr = {
fillColor = (0,255);
};
closed = 1;
nodes = (
(531,1000,l),
(531,1000,o),
(531,1000,o),
(531,1000,c),
(195,1000,l),
(104,1000,o),
(31,927,o),
(31,836,c),
(31,836,l),
(31,745,o),
(104,672,o),
(195,672,c),
(195,672,l),
(245,672,o),
(286,631,o),
(286,581,c),
(286,427,l),
(286,398,o),
(263,375,o),
(235,375,c),
(235,375,l),
(131,375,o),
(47,291,o),
(47,188,c),
(47,188,l),
(47,84,o),
(131,0,o),
(235,0,c),
(531,0,l),
(531,0,l),
(531,0,l),
(666,0,o),
(776,110,o),
(776,245,c),
(776,581,l),
(776,631,o),
(817,672,o),
(867,672,c),
(867,672,l),
(958,672,o),
(1031,745,o),
(1031,836,c),
(1031,836,l),
(1031,927,o),
(958,1000,o),
(867,1000,c)
);
}
);
width = 1062;
}
);
unicode = (74,106);
},
{
glyphname = K;
lastChange = "2023-04-21 01:54:46 +0000";
layers = (
{
layerId = m01;
shapes = (
{
attr = {
fillColor = (0,255);
};
closed = 1;
nodes = (
(996,676,o),
(1031,736,o),
(1031,802,c),
(1031,811,l),
(1031,915,o),
(946,1000,o),
(842,1000,c),
(833,1000,l),
(767,1000,o),
(707,965,o),
(671,910,c),
(642,864,o),
(590,833,o),
(531,833,c),
(472,833,o),
(421,864,o),
(391,910,c),
(355,965,o),
(295,1000,o),
(229,1000,c),
(220,1000,l),
(116,1000,o),
(31,915,o),
(31,811,c),
(31,707,o),
(31,602,o),
(31,498,c),
(31,395,o),
(31,292,o),
(31,189,c),
(31,85,o),
(116,0,o),
(220,0,c),
(229,0,l),
(295,0,o),
(355,35,o),
(391,90,c),
(420,136,o),
(472,167,o),
(531,167,c),
(590,167,o),
(641,136,o),
(671,90,c),
(707,35,o),
(767,0,o),
(833,0,c),
(842,0,l),
(946,0,o),
(1031,85,o),
(1031,189,c),
(1031,198,l),
(1031,264,o),
(996,324,o),
(941,360,c),
(895,390,o),
(864,441,o),
(864,500,c),
(864,559,o),
(895,611,o),
(941,640,c)
);
}
);
width = 1062;
},
{
associatedMasterId = m01;
layerId = "50931EA0-C13B-4080-8789-B80C46453536";
shapes = (
{
attr = {
fillColor = (0,255);
};
closed = 1;
nodes = (
(996,676,o),
(1031,736,o),
(1031,802,c),
(1031,811,l),
(1031,915,o),
(946,1000,o),
(842,1000,c),
(833,1000,l),
(767,1000,o),
(707,965,o),
(671,910,c),
(642,864,o),
(590,833,o),
(531,833,c),
(472,833,o),
(421,864,o),
(391,910,c),
(355,965,o),
(295,1000,o),
(229,1000,c),
(220,1000,l),
(116,1000,o),
(31,915,o),
(31,811,c),
(31,189,l),
(31,85,o),
(116,0,o),
(220,0,c),
(229,0,l),
(295,0,o),
(355,35,o),
(391,90,c),
(420,136,o),
(472,167,o),
(531,167,c),
(590,167,o),
(641,136,o),
(671,90,c),
(707,35,o),
(767,0,o),
(833,0,c),
(842,0,l),
(946,0,o),
(1031,85,o),
(1031,189,c),
(1031,198,l),
(1031,264,o),
(996,324,o),
(941,360,c),
(895,390,o),
(864,441,o),
(864,500,c),
(864,559,o),
(895,611,o),
(941,640,c)
);
}
);
width = 1062;
},
{
layerId = "6B27D304-7F9E-45B8-9D41-04979570550F";
shapes = (
{
attr = {
fillColor = (0,255);
};
closed = 1;
nodes = (
(1031,654,o),
(1031,811,o),
(1031,811,c),
(1031,811,l),
(1031,915,o),
(946,1000,o),
(841,1000,c),
(841,1000,l),
(841,1000,o),
(652,1000,o),
(531,1000,c),
(531,1000,o),
(531,1000,o),
(531,1000,c),
(531,1000,o),
(531,1000,o),
(531,1000,c),
(410,1000,o),
(220,1000,o),
(220,1000,c),
(220,1000,l),
(116,1000,o),
(31,915,o),
(31,811,c),
(31,811,o),
(31,654,o),
(31,500,c),
(31,346,o),
(31,189,o),
(31,189,c),
(31,84,o),
(116,0,o),
(220,0,c),
(220,0,l),
(220,0,o),
(410,0,o),
(531,0,c),
(531,0,o),
(531,0,o),
(531,0,c),
(531,0,o),
(531,0,o),
(531,0,c),
(652,0,o),
(841,0,o),
(841,0,c),
(841,0,l),
(946,0,o),
(1031,85,o),
(1031,189,c),
(1031,189,l),
(1031,189,o),
(1031,346,o),
(1031,500,c),
(1031,500,o),
(1031,500,o),
(1031,500,c),
(1031,500,o),
(1031,500,o),
(1031,500,c)
);
}
);
width = 1062;
},
{
associatedMasterId = "6B27D304-7F9E-45B8-9D41-04979570550F";
layerId = "B9685252-41FA-4CA3-89C5-D12C773B9A08";
shapes = (
{
attr = {
fillColor = (0,255);
};
closed = 1;
nodes = (
(996,676,o),
(1031,736,o),
(1031,802,c),
(1031,811,l),
(1031,915,o),
(946,1000,o),
(842,1000,c),
(833,1000,l),
(767,1000,o),
(707,965,o),
(671,910,c),
(642,864,o),
(590,833,o),
(531,833,c),
(472,833,o),
(421,864,o),
(391,910,c),
(355,965,o),
(295,1000,o),
(229,1000,c),
(220,1000,l),
(116,1000,o),
(31,915,o),
(31,811,c),
(31,189,l),
(31,85,o),
(116,0,o),
(220,0,c),
(229,0,l),
(295,0,o),
(355,35,o),
(391,90,c),
(420,136,o),
(472,167,o),
(531,167,c),
(590,167,o),
(641,136,o),
(671,90,c),
(707,35,o),
(767,0,o),
(833,0,c),
(842,0,l),
(946,0,o),
(1031,85,o),
(1031,189,c),
(1031,198,l),
(1031,264,o),
(996,324,o),
(941,360,c),
(895,390,o),
(864,441,o),
(864,500,c),
(864,559,o),
(895,611,o),
(941,640,c)
);
}
);
width = 1062;
},
{
layerId = "CD6C633B-B950-41C6-A48C-C51C49E64880";
shapes = (
{
attr = {
fillColor = (0,255);
};
closed = 1;
nodes = (
(864,654,o),
(1031,631,o),
(1031,811,c),
(1031,811,l),
(1031,915,o),
(946,1000,o),
(841,1000,c),
(841,1000,l),
(621,1000,o),
(652,1163,o),
(531,1163,c),
(531,1163,o),
(531,1163,o),
(531,1163,c),
(531,1163,o),
(531,1163,o),
(531,1163,c),
(410,1163,o),
(441,1000,o),
(220,1000,c),
(220,1000,l),
(116,1000,o),
(31,915,o),
(31,811,c),
(31,631,o),
(198,654,o),
(198,500,c),
(198,346,o),
(31,369,o),
(31,189,c),
(31,84,o),
(116,0,o),
(220,0,c),
(220,0,l),
(441,0,o),
(410,-163,o),
(531,-163,c),
(531,-163,o),
(531,-163,o),
(531,-163,c),
(531,-163,o),
(531,-163,o),
(531,-163,c),
(652,-163,o),
(621,0,o),
(841,0,c),
(841,0,l),
(946,0,o),
(1031,85,o),
(1031,189,c),
(1031,189,l),
(1031,369,o),
(864,346,o),
(864,500,c),
(864,500,o),
(864,500,o),
(864,500,c),
(864,500,o),
(864,500,o),
(864,500,c)
);
}
);
width = 1062;
},
{
associatedMasterId = "CD6C633B-B950-41C6-A48C-C51C49E64880";
layerId = "000D5EAF-E126-4834-80A6-830BB0CAEFB4";
shapes = (
{
attr = {
fillColor = (0,255);
};
closed = 1;
nodes = (
(996,676,o),
(1031,736,o),
(1031,802,c),
(1031,811,l),
(1031,915,o),
(946,1000,o),
(842,1000,c),
(833,1000,l),
(767,1000,o),
(707,965,o),
(671,910,c),
(642,864,o),
(590,833,o),
(531,833,c),
(472,833,o),
(421,864,o),
(391,910,c),
(355,965,o),
(295,1000,o),
(229,1000,c),
(220,1000,l),
(116,1000,o),
(31,915,o),
(31,811,c),
(31,189,l),
(31,85,o),
(116,0,o),
(220,0,c),
(229,0,l),
(295,0,o),
(355,35,o),
(391,90,c),
(420,136,o),
(472,167,o),
(531,167,c),
(590,167,o),
(641,136,o),
(671,90,c),
(707,35,o),
(767,0,o),
(833,0,c),
(842,0,l),
(946,0,o),
(1031,85,o),
(1031,189,c),
(1031,198,l),
(1031,264,o),
(996,324,o),
(941,360,c),
(895,390,o),
(864,441,o),
(864,500,c),
(864,559,o),
(895,611,o),
(941,640,c)
);
}
);
width = 1062;
},
{
layerId = "58E5FC18-77BC-4E01-B365-5BD9F0D9FC65";
shapes = (
{
attr = {
fillColor = (0,255);
};
closed = 1;
nodes = (
(1031,621,o),
(1031,811,o),
(1031,811,c),
(1031,811,l),
(1031,915,o),
(946,1000,o),
(841,1000,c),
(841,1000,l),
(841,1000,o),
(685,1000,o),
(531,1000,c),
(531,1000,o),
(531,1000,o),
(531,1000,c),
(531,1000,o),
(531,1000,o),
(531,1000,c),
(377,1000,o),
(220,1000,o),
(220,1000,c),
(220,1000,l),
(116,1000,o),
(31,915,o),
(31,811,c),
(31,811,o),
(31,621,o),
(31,500,c),
(31,379,o),
(31,189,o),
(31,189,c),
(31,84,o),
(116,0,o),
(220,0,c),
(220,0,l),
(220,0,o),
(377,0,o),
(531,0,c),
(531,0,o),
(531,0,o),
(531,0,c),
(531,0,o),
(531,0,o),
(531,0,c),
(685,0,o),
(841,0,o),
(841,0,c),
(841,0,l),
(946,0,o),
(1031,85,o),
(1031,189,c),
(1031,189,l),
(1031,189,o),
(1031,379,o),
(1031,500,c),
(1031,500,o),
(1031,500,o),
(1031,500,c),
(1031,500,o),
(1031,500,o),
(1031,500,c)
);
}
);
width = 1062;
},
{
associatedMasterId = "58E5FC18-77BC-4E01-B365-5BD9F0D9FC65";
layerId = "F669E194-11F0-40CC-88F8-2BF9CFFCD4C8";
shapes = (
{
attr = {
fillColor = (0,255);
};
closed = 1;
nodes = (
(996,676,o),
(1031,736,o),
(1031,802,c),
(1031,811,l),
(1031,915,o),
(946,1000,o),
(842,1000,c),
(833,1000,l),
(767,1000,o),
(707,965,o),
(671,910,c),
(642,864,o),
(590,833,o),
(531,833,c),
(472,833,o),
(421,864,o),
(391,910,c),
(355,965,o),
(295,1000,o),
(229,1000,c),
(220,1000,l),
(116,1000,o),
(31,915,o),
(31,811,c),
(31,189,l),
(31,85,o),
(116,0,o),
(220,0,c),
(229,0,l),
(295,0,o),
(355,35,o),
(391,90,c),
(420,136,o),
(472,167,o),
(531,167,c),
(590,167,o),
(641,136,o),
(671,90,c),
(707,35,o),
(767,0,o),
(833,0,c),
(842,0,l),
(946,0,o),
(1031,85,o),
(1031,189,c),
(1031,198,l),
(1031,264,o),
(996,324,o),
(941,360,c),
(895,390,o),
(864,441,o),
(864,500,c),
(864,559,o),
(895,611,o),
(941,640,c)
);
}
);
width = 1062;
},
{
background = {
shapes = (
{
closed = 1;
nodes = (
(1194,167,l),
(1194,833,l),
(-132,833,l),
(-132,167,l)
);
}
);
};
layerId = "DBF666E4-5604-41F1-9EC2-592A51C7F52D";
shapes = (
{
attr = {
fillColor = (0,255);
};
closed = 1;
nodes = (
(1194,621,o),
(1031,596,o),
(1031,811,c),
(1031,811,l),
(1031,915,o),
(946,1000,o),
(841,1000,c),
(841,1000,l),
(662,1000,o),
(685,833,o),
(531,833,c),
(531,833,o),
(531,833,o),
(531,833,c),
(531,833,o),
(531,833,o),
(531,833,c),
(377,833,o),
(400,1000,o),
(220,1000,c),
(220,1000,l),
(116,1000,o),
(31,915,o),
(31,811,c),
(31,596,o),
(-132,621,o),
(-132,500,c),
(-132,379,o),
(31,410,o),
(31,189,c),
(31,84,o),
(116,0,o),
(220,0,c),
(220,0,l),
(400,0,o),
(377,167,o),
(531,167,c),
(531,167,o),
(531,167,o),
(531,167,c),
(531,167,o),
(531,167,o),
(531,167,c),
(685,167,o),
(662,0,o),
(841,0,c),
(841,0,l),
(946,0,o),
(1031,85,o),
(1031,189,c),
(1031,189,l),
(1031,410,o),
(1194,379,o),
(1194,500,c),
(1194,500,o),
(1194,500,o),
(1194,500,c),
(1194,500,o),
(1194,500,o),
(1194,500,c)
);
}
);
width = 1062;
},
{
associatedMasterId = "DBF666E4-5604-41F1-9EC2-592A51C7F52D";
layerId = "32AC6F25-9536-4634-B2EC-3A388C602759";
shapes = (
{
attr = {
fillColor = (0,255);
};
closed = 1;
nodes = (
(996,676,o),
(1031,736,o),
(1031,802,c),
(1031,811,l),
(1031,915,o),
(946,1000,o),
(842,1000,c),
(833,1000,l),
(767,1000,o),
(707,965,o),
(671,910,c),
(642,864,o),
(590,833,o),
(531,833,c),
(472,833,o),
(421,864,o),
(391,910,c),
(355,965,o),
(295,1000,o),
(229,1000,c),
(220,1000,l),
(116,1000,o),
(31,915,o),
(31,811,c),
(31,189,l),
(31,85,o),
(116,0,o),
(220,0,c),
(229,0,l),
(295,0,o),
(355,35,o),
(391,90,c),
(420,136,o),
(472,167,o),
(531,167,c),
(590,167,o),
(641,136,o),
(671,90,c),
(707,35,o),
(767,0,o),
(833,0,c),
(842,0,l),
(946,0,o),
(1031,85,o),
(1031,189,c),
(1031,198,l),
(1031,264,o),
(996,324,o),
(941,360,c),
(895,390,o),
(864,441,o),
(864,500,c),
(864,559,o),
(895,611,o),
(941,640,c)
);
}
);
width = 1062;
}
);
unicode = (75,107);
},
{
glyphname = L;
lastChange = "2023-04-21 01:54:46 +0000";
layers = (
{
layerId = m01;
shapes = (
{
attr = {
fillColor = (0,255);
};
closed = 1;
nodes = (
(1031,196,l),
(1031,191,l),
(1031,139,o),
(1009,91,o),
(975,57,c),
(942,24,o),
(898,3,o),
(848,0,c),
(846,0,o),
(844,0,o),
(842,0,c),
(738,0,o),
(634,0,o),
(530,0,cs),
(427,0,o),
(324,0,o),
(221,0,c),
(116,0,o),
(31,85,o),
(31,190,c),
(31,397,o),
(31,605,o),
(31,812,c),
(31,864,o),
(52,911,o),
(86,945,c),
(120,979,o),
(167,1000,o),
(219,1000,c),
(323,1000,o),
(407,916,o),
(407,812,c),
(407,512,l),
(407,447,o),
(455,395,o),
(518,388,c),
(522,387,o),
(527,387,o),
(531,387,c),
(536,387,o),
(540,387,o),
(545,388,c),
(642,388,o),
(740,388,o),
(837,388,c),
(944,388,o),
(1030,302,o),
(1031,196,c)
);
}
);
width = 1062;
},
{
associatedMasterId = m01;
layerId = "50931EA0-C13B-4080-8789-B80C46453536";
shapes = (
{
attr = {
fillColor = (0,255);
};
closed = 1;
nodes = (
(1031,196,l),
(1031,191,l),
(1031,139,o),
(1009,91,o),
(975,57,c),
(942,24,o),
(898,3,o),
(848,0,c),
(846,0,o),
(844,0,o),
(842,0,c),
(221,0,l),
(116,0,o),
(31,85,o),
(31,190,c),
(31,812,l),
(31,864,o),
(52,911,o),
(86,945,c),
(120,979,o),
(167,1000,o),
(219,1000,c),
(323,1000,o),
(407,916,o),
(407,812,c),
(407,512,l),
(407,447,o),
(455,395,o),
(518,388,c),
(522,387,o),
(527,387,o),
(531,387,c),
(536,387,o),
(540,387,o),
(545,388,c),
(837,388,l),
(944,388,o),
(1030,302,o),
(1031,196,c)
);
}
);
width = 1062;
},
{
layerId = "6B27D304-7F9E-45B8-9D41-04979570550F";
shapes = (
{
attr = {
fillColor = (0,255);
};
closed = 1;
nodes = (
(1031,500,l),
(1031,500,l),
(1031,346,o),
(1031,177,o),
(1031,177,c),
(1031,85,o),
(946,-1,o),
(841,0,c),
(841,0,o),
(841,0,o),
(841,0,c),
(841,0,o),
(652,0,o),
(531,0,cs),
(410,0,o),
(220,0,o),
(220,0,c),
(116,0,o),
(31,85,o),
(31,177,c),
(31,177,o),
(31,346,o),
(31,500,c),
(31,654,o),
(31,811,o),
(31,811,c),
(31,915,o),
(116,1000,o),
(244,1000,c),
(244,1000,o),
(410,1000,o),
(531,1000,c),
(531,1000,l),
(531,1000,o),
(531,1000,o),
(531,1000,c),
(652,1000,o),
(841,1000,o),
(841,1000,c),
(946,999,o),
(1031,915,o),
(1031,811,c),
(1031,811,o),
(1031,654,o),
(1031,500,cs),
(1031,500,o),
(1031,500,o),
(1031,500,c)
);
}
);
width = 1062;
},
{
associatedMasterId = "6B27D304-7F9E-45B8-9D41-04979570550F";
layerId = "8875B7F7-7DB6-48C9-8FD8-94740C611EA0";
shapes = (
{
attr = {
fillColor = (0,255);
};
closed = 1;
nodes = (
(1031,196,l),
(1031,191,l),
(1031,139,o),
(1009,91,o),
(975,57,c),
(942,24,o),
(898,3,o),
(848,0,c),
(846,0,o),
(844,0,o),
(842,0,c),
(221,0,l),
(116,0,o),
(31,85,o),
(31,190,c),
(31,812,l),
(31,864,o),
(52,911,o),
(86,945,c),
(120,979,o),
(167,1000,o),
(219,1000,c),
(323,1000,o),
(407,916,o),
(407,812,c),
(407,512,l),
(407,447,o),
(455,395,o),
(518,388,c),
(522,387,o),
(527,387,o),
(531,387,c),
(536,387,o),
(540,387,o),
(545,388,c),
(837,388,l),
(944,388,o),
(1030,302,o),
(1031,196,c)
);
}
);
width = 1062;
},
{
layerId = "CD6C633B-B950-41C6-A48C-C51C49E64880";
shapes = (
{
attr = {
fillColor = (0,255);
};
closed = 1;
nodes = (
(864,500,l),
(864,500,l),
(864,346,o),
(1031,369,o),
(1031,177,c),
(1031,85,o),
(946,-1,o),
(841,0,c),
(841,0,o),
(841,0,o),
(841,0,c),
(621,0,o),
(652,-163,o),
(531,-163,cs),
(410,-163,o),
(441,0,o),
(220,0,c),
(116,0,o),
(31,85,o),
(31,177,c),
(31,369,o),
(198,346,o),
(198,500,c),
(198,654,o),
(31,631,o),
(31,811,c),
(31,915,o),
(116,1000,o),
(244,1000,c),
(441,1000,o),
(410,1163,o),
(531,1163,c),
(531,1163,l),
(531,1163,o),
(531,1163,o),
(531,1163,c),
(652,1163,o),
(621,1000,o),
(841,1000,c),
(946,999,o),
(1031,915,o),
(1031,811,c),
(1031,631,o),
(864,654,o),
(864,500,cs),
(864,500,o),
(864,500,o),
(864,500,c)
);
}
);
width = 1062;
},
{
associatedMasterId = "CD6C633B-B950-41C6-A48C-C51C49E64880";
layerId = "7797278D-2E1B-4997-B16F-E4A6F89C5C5F";
shapes = (
{
attr = {
fillColor = (0,255);
};
closed = 1;
nodes = (
(1031,196,l),
(1031,191,l),
(1031,139,o),
(1009,91,o),
(975,57,c),
(942,24,o),
(898,3,o),
(848,0,c),
(846,0,o),
(844,0,o),
(842,0,c),
(221,0,l),
(116,0,o),
(31,85,o),
(31,190,c),
(31,812,l),
(31,864,o),
(52,911,o),
(86,945,c),
(120,979,o),
(167,1000,o),
(219,1000,c),
(323,1000,o),
(407,916,o),
(407,812,c),
(407,512,l),
(407,447,o),
(455,395,o),
(518,388,c),
(522,387,o),
(527,387,o),
(531,387,c),
(536,387,o),
(540,387,o),
(545,388,c),
(837,388,l),
(944,388,o),
(1030,302,o),
(1031,196,c)
);
}
);
width = 1062;
},
{
layerId = "58E5FC18-77BC-4E01-B365-5BD9F0D9FC65";
shapes = (
{
attr = {
fillColor = (0,255);
};
closed = 1;
nodes = (
(1031,500,l),
(1031,500,l),
(1031,379,o),
(1031,177,o),
(1031,177,c),
(1031,85,o),
(946,-1,o),
(841,0,c),
(841,0,o),
(841,0,o),
(841,0,c),
(841,0,o),
(684,0,o),
(531,0,cs),
(377,0,o),
(220,0,o),
(220,0,c),
(116,0,o),
(31,85,o),
(31,177,c),
(31,177,o),
(31,379,o),
(31,500,c),
(31,621,o),
(31,811,o),
(31,811,c),
(31,915,o),
(116,1000,o),
(244,1000,c),
(244,1000,o),
(376,1000,o),
(531,1000,c),
(531,1000,l),
(531,1000,o),
(531,1000,o),
(531,1000,c),
(684,1000,o),
(841,1000,o),
(841,1000,c),
(946,999,o),
(1031,915,o),
(1031,811,c),
(1031,811,o),
(1031,621,o),
(1031,500,cs),
(1031,500,o),
(1031,500,o),
(1031,500,c)
);
}
);
width = 1062;
},
{
associatedMasterId = "58E5FC18-77BC-4E01-B365-5BD9F0D9FC65";
layerId = "6448A325-B287-44DF-8C33-FAACBCCDBCCE";
shapes = (
{
attr = {
fillColor = (0,255);
};
closed = 1;
nodes = (
(1031,196,l),
(1031,191,l),
(1031,139,o),
(1009,91,o),
(975,57,c),
(942,24,o),
(898,3,o),
(848,0,c),
(846,0,o),
(844,0,o),
(842,0,c),
(221,0,l),
(116,0,o),
(31,85,o),
(31,190,c),
(31,812,l),
(31,864,o),
(52,911,o),
(86,945,c),
(120,979,o),
(167,1000,o),
(219,1000,c),
(323,1000,o),
(407,916,o),
(407,812,c),
(407,512,l),
(407,447,o),
(455,395,o),
(518,388,c),
(522,387,o),
(527,387,o),
(531,387,c),
(536,387,o),
(540,387,o),
(545,388,c),
(837,388,l),
(944,388,o),
(1030,302,o),
(1031,196,c)
);
}
);
width = 1062;
},
{
background = {
shapes = (
{
closed = 1;
nodes = (
(1194,167,l),
(1194,833,l),
(-132,833,l),
(-132,167,l)
);
}
);
};
layerId = "DBF666E4-5604-41F1-9EC2-592A51C7F52D";
shapes = (
{
attr = {
fillColor = (0,255);
};
closed = 1;
nodes = (
(1194,500,l),
(1194,500,l),
(1194,379,o),
(1031,410,o),
(1031,177,c),
(1031,85,o),
(946,-1,o),
(841,0,c),
(841,0,o),
(841,0,o),
(841,0,c),
(662,0,o),
(684,167,o),
(531,167,cs),
(377,167,o),
(400,0,o),
(220,0,c),
(116,0,o),
(31,85,o),
(31,177,c),
(31,410,o),
(-132,379,o),
(-132,500,c),
(-132,621,o),
(31,596,o),
(31,811,c),
(31,915,o),
(116,1000,o),
(244,1000,c),
(400,1000,o),
(376,833,o),
(531,833,c),
(531,833,l),
(531,833,o),
(531,833,o),
(531,833,c),
(684,833,o),
(662,1000,o),
(841,1000,c),
(946,999,o),
(1031,915,o),
(1031,811,c),
(1031,596,o),
(1194,621,o),
(1194,500,cs),
(1194,500,o),
(1194,500,o),
(1194,500,c)
);
}
);
width = 1062;
},
{
associatedMasterId = "DBF666E4-5604-41F1-9EC2-592A51C7F52D";
layerId = "06D266D1-25D4-4127-B92A-CA59AE537A2A";
shapes = (
{
attr = {
fillColor = (0,255);
};
closed = 1;
nodes = (
(1031,196,l),
(1031,191,l),
(1031,139,o),
(1009,91,o),
(975,57,c),
(942,24,o),
(898,3,o),
(848,0,c),
(846,0,o),
(844,0,o),
(842,0,c),
(221,0,l),
(116,0,o),
(31,85,o),
(31,190,c),
(31,812,l),
(31,864,o),
(52,911,o),
(86,945,c),
(120,979,o),
(167,1000,o),
(219,1000,c),
(323,1000,o),
(407,916,o),
(407,812,c),
(407,512,l),
(407,447,o),
(455,395,o),
(518,388,c),
(522,387,o),
(527,387,o),
(531,387,c),
(536,387,o),
(540,387,o),
(545,388,c),
(837,388,l),
(944,388,o),
(1030,302,o),
(1031,196,c)
);
}
);
width = 1062;
}
);
unicode = (76,108);
},
{
glyphname = M;
lastChange = "2023-04-21 01:54:46 +0000";
layers = (
{
layerId = m01;
shapes = (
{
attr = {
fillColor = (0,255);
};
closed = 1;
nodes = (
(192,2,l),
(184,1,o),
(176,0,o),
(168,0,c),
(92,0,o),
(31,61,o),
(31,137,cs),
(31,253,o),
(31,368,o),
(31,483,cs),
(31,592,o),
(31,702,o),
(31,811,cs),
(31,915,o),
(116,1000,o),
(220,1000,c),
(322,1000,o),
(424,1000,o),
(526,1000,c),
(631,1000,o),
(737,1000,o),
(842,1000,c),
(946,1000,o),
(1031,915,o),
(1031,811,c),
(1031,707,o),
(1031,603,o),
(1031,499,c),
(1031,379,o),
(1031,258,o),
(1031,138,c),
(1031,62,o),
(970,1,o),
(894,1,c),
(886,1,o),
(878,2,o),
(870,3,c),
(806,14,o),
(757,70,o),
(757,138,c),
(757,478,l),
(757,502,o),
(738,521,o),
(714,521,c),
(711,521,l),
(687,521,o),
(668,502,o),
(668,478,c),
(668,254,l),
(668,178,o),
(607,117,o),
(531,117,c),
(455,117,o),
(394,178,o),
(394,254,c),
(394,478,l),
(394,502,o),
(375,521,o),
(351,521,c),
(348,521,l),
(324,521,o),
(305,502,o),
(305,478,c),
(305,138,l),
(305,70,o),
(256,14,o),
(192,3,c)
);
}
);
width = 1062;
},
{
associatedMasterId = m01;
layerId = "50931EA0-C13B-4080-8789-B80C46453536";
shapes = (
{
attr = {
fillColor = (0,255);
};
closed = 1;
nodes = (
(192,2,l),
(184,1,o),
(176,0,o),
(168,0,c),
(92,0,o),
(31,61,o),
(31,137,c),
(31,55,o),
(31,811,q),
(31,915,o),
(116,1000,o),
(220,1000,c),
(842,1000,l),
(946,1000,o),
(1031,915,o),
(1031,811,c),
(1031,220,o),
(1031,138,q),
(1031,62,o),
(970,1,o),
(894,1,c),
(886,1,o),
(878,2,o),
(870,3,c),
(806,14,o),
(757,70,o),
(757,138,c),
(757,478,l),
(757,502,o),
(738,521,o),
(714,521,c),
(711,521,l),
(687,521,o),
(668,502,o),
(668,478,c),
(668,254,l),
(668,178,o),
(607,117,o),
(531,117,c),
(455,117,o),
(394,178,o),
(394,254,c),
(394,478,l),
(394,502,o),
(375,521,o),
(351,521,c),
(348,521,l),
(324,521,o),
(305,502,o),
(305,478,c),
(305,138,l),
(305,70,o),
(256,14,o),
(192,3,c)
);
}
);
width = 1062;
},
{
layerId = "6B27D304-7F9E-45B8-9D41-04979570550F";
shapes = (
{
attr = {
fillColor = (0,255);
};
closed = 1;
nodes = (
(531,0,l),
(410,0,o),
(168,0,o),
(168,0,c),
(92,0,o),
(31,85,o),
(31,189,cs),
(31,189,o),
(31,346,o),
(31,500,cs),
(31,654,o),
(31,811,o),
(31,811,cs),
(31,914,o),
(116,1000,o),
(220,1000,c),
(220,1000,o),
(410,1000,o),
(531,1000,c),
(652,1000,o),
(841,1000,o),
(841,1000,c),
(937,1001,o),
(1031,915,o),
(1031,811,c),
(1031,811,o),
(1031,654,o),
(1031,500,c),
(1031,346,o),
(1031,189,o),
(1031,189,c),
(1031,85,o),
(937,1,o),
(841,0,c),
(841,0,o),
(841,0,o),
(841,0,c),
(841,0,o),
(652,0,o),
(531,0,c),
(531,0,l),
(531,0,o),
(531,0,o),
(531,0,c),
(531,0,l),
(531,0,o),
(531,0,o),
(531,0,c),
(531,0,l),
(531,0,o),
(531,0,o),
(531,0,c),
(531,0,o),
(531,0,o),
(531,0,c),
(531,0,l),
(531,0,o),
(531,0,o),
(531,0,c),
(531,0,l),
(531,0,o),
(531,0,o),
(531,0,c),
(531,0,l),
(531,0,o),
(531,0,o),
(531,0,c)
);
}
);
width = 1062;
},
{
associatedMasterId = "6B27D304-7F9E-45B8-9D41-04979570550F";
layerId = "7DD1EB97-3C70-47A7-A0D7-CCA15F250A4E";
shapes = (
{
attr = {
fillColor = (0,255);
};
closed = 1;
nodes = (
(192,2,l),
(184,1,o),
(176,0,o),
(168,0,c),
(92,0,o),
(31,61,o),
(31,137,c),
(31,55,o),
(31,811,q),
(31,915,o),
(116,1000,o),
(220,1000,c),
(842,1000,l),
(946,1000,o),
(1031,915,o),
(1031,811,c),
(1031,220,o),
(1031,138,q),
(1031,62,o),
(970,1,o),
(894,1,c),
(886,1,o),
(878,2,o),
(870,3,c),
(806,14,o),
(757,70,o),
(757,138,c),
(757,478,l),
(757,502,o),
(738,521,o),
(714,521,c),
(711,521,l),
(687,521,o),
(668,502,o),
(668,478,c),
(668,254,l),
(668,178,o),
(607,117,o),
(531,117,c),
(455,117,o),
(394,178,o),
(394,254,c),
(394,478,l),
(394,502,o),
(375,521,o),
(351,521,c),
(348,521,l),
(324,521,o),
(305,502,o),
(305,478,c),
(305,138,l),
(305,70,o),
(256,14,o),
(192,3,c)
);
}
);
width = 1062;
},
{
layerId = "CD6C633B-B950-41C6-A48C-C51C49E64880";
shapes = (
{
attr = {
fillColor = (0,255);
};
closed = 1;
nodes = (
(531,-163,l),
(410,-163,o),
(441,0,o),
(168,0,c),
(92,0,o),
(31,85,o),
(31,189,cs),
(31,369,o),
(198,346,o),
(198,500,cs),
(198,654,o),
(31,631,o),
(31,811,cs),
(31,914,o),
(116,1000,o),
(220,1000,c),
(441,1000,o),
(410,1163,o),
(531,1163,c),
(652,1163,o),
(621,1000,o),
(841,1000,c),
(937,1001,o),
(1031,915,o),
(1031,811,c),
(1031,631,o),
(864,654,o),
(864,500,c),
(864,346,o),
(1031,369,o),
(1031,189,c),
(1031,85,o),
(937,1,o),
(841,0,c),
(841,0,o),
(841,0,o),
(841,0,c),
(621,0,o),
(652,-163,o),
(531,-163,c),
(531,-163,l),
(531,-163,o),
(531,-163,o),
(531,-163,c),
(531,-163,l),
(531,-163,o),
(531,-163,o),
(531,-163,c),
(531,-163,l),
(531,-163,o),
(531,-163,o),
(531,-163,c),
(531,-163,o),
(531,-163,o),
(531,-163,c),
(531,-163,l),
(531,-163,o),
(531,-163,o),
(531,-163,c),
(531,-163,l),
(531,-163,o),
(531,-163,o),
(531,-163,c),
(531,-163,l),
(531,-163,o),
(531,-163,o),
(531,-163,c)
);
}
);
width = 1062;
},
{
associatedMasterId = "CD6C633B-B950-41C6-A48C-C51C49E64880";
layerId = "4E2AFB19-7B85-4DFC-A3B3-06FBB45F5F6C";
shapes = (
{
attr = {
fillColor = (0,255);
};
closed = 1;
nodes = (
(192,2,l),
(184,1,o),
(176,0,o),
(168,0,c),
(92,0,o),
(31,61,o),
(31,137,c),
(31,55,o),
(31,811,q),
(31,915,o),
(116,1000,o),
(220,1000,c),
(842,1000,l),
(946,1000,o),
(1031,915,o),
(1031,811,c),
(1031,220,o),
(1031,138,q),
(1031,62,o),
(970,1,o),
(894,1,c),
(886,1,o),
(878,2,o),
(870,3,c),
(806,14,o),
(757,70,o),
(757,138,c),
(757,478,l),
(757,502,o),
(738,521,o),
(714,521,c),
(711,521,l),
(687,521,o),
(668,502,o),
(668,478,c),
(668,254,l),
(668,178,o),
(607,117,o),
(531,117,c),
(455,117,o),
(394,178,o),
(394,254,c),
(394,478,l),
(394,502,o),
(375,521,o),
(351,521,c),
(348,521,l),
(324,521,o),
(305,502,o),
(305,478,c),
(305,138,l),
(305,70,o),
(256,14,o),
(192,3,c)
);
}
);
width = 1062;
},
{
layerId = "58E5FC18-77BC-4E01-B365-5BD9F0D9FC65";
shapes = (
{
attr = {
fillColor = (0,255);
};
closed = 1;
nodes = (
(530,0,l),
(377,0,o),
(168,0,o),
(168,0,c),
(92,0,o),
(31,85,o),
(31,189,cs),
(31,189,o),
(31,379,o),
(31,500,cs),
(31,621,o),
(31,811,o),
(31,811,cs),
(31,914,o),
(116,1000,o),
(220,1000,c),
(220,1000,o),
(377,1000,o),
(530,1000,c),
(685,1000,o),
(841,1000,o),
(841,1000,c),
(937,1001,o),
(1031,915,o),
(1031,811,c),
(1031,811,o),
(1031,621,o),
(1031,500,c),
(1031,379,o),
(1031,189,o),
(1031,189,c),
(1031,85,o),
(937,1,o),
(841,0,c),
(841,0,o),
(841,0,o),
(841,0,c),
(841,0,o),
(685,0,o),
(530,0,c),
(530,0,l),
(530,0,o),
(530,0,o),
(530,0,c),
(530,0,l),
(530,0,o),
(530,0,o),
(530,0,c),
(530,0,l),
(530,0,o),
(530,0,o),
(530,0,c),
(530,0,o),
(530,0,o),
(530,0,c),
(530,0,l),
(530,0,o),
(530,0,o),
(530,0,c),
(530,0,l),
(530,0,o),
(530,0,o),
(530,0,c),
(530,0,l),
(530,0,o),
(530,0,o),
(530,0,c)
);
}
);
width = 1062;
},
{
associatedMasterId = "58E5FC18-77BC-4E01-B365-5BD9F0D9FC65";
layerId = "A1FFC66D-12D8-4319-A452-B5F7B31C73C6";
shapes = (
{
attr = {
fillColor = (0,255);
};
closed = 1;
nodes = (
(192,2,l),
(184,1,o),
(176,0,o),
(168,0,c),
(92,0,o),
(31,61,o),
(31,137,c),
(31,55,o),
(31,811,q),
(31,915,o),
(116,1000,o),
(220,1000,c),
(842,1000,l),
(946,1000,o),
(1031,915,o),
(1031,811,c),
(1031,220,o),
(1031,138,q),
(1031,62,o),
(970,1,o),
(894,1,c),
(886,1,o),
(878,2,o),
(870,3,c),
(806,14,o),
(757,70,o),
(757,138,c),
(757,478,l),
(757,502,o),
(738,521,o),
(714,521,c),
(711,521,l),
(687,521,o),
(668,502,o),
(668,478,c),
(668,254,l),
(668,178,o),
(607,117,o),
(531,117,c),
(455,117,o),
(394,178,o),
(394,254,c),
(394,478,l),
(394,502,o),
(375,521,o),
(351,521,c),
(348,521,l),
(324,521,o),
(305,502,o),
(305,478,c),
(305,138,l),
(305,70,o),
(256,14,o),
(192,3,c)
);
}
);
width = 1062;
},
{
background = {
shapes = (
{
closed = 1;
nodes = (
(1194,167,l),
(1194,833,l),
(-132,833,l),
(-132,167,l)
);
}
);
};
layerId = "DBF666E4-5604-41F1-9EC2-592A51C7F52D";
shapes = (
{
attr = {
fillColor = (0,255);
};
closed = 1;
nodes = (
(530,167,l),
(377,167,o),
(400,0,o),
(168,0,c),
(92,0,o),
(31,85,o),
(31,189,cs),
(31,410,o),
(-132,379,o),
(-132,500,cs),
(-132,621,o),
(31,596,o),
(31,811,cs),
(31,914,o),
(116,1000,o),
(220,1000,c),
(400,1000,o),
(377,833,o),
(530,833,c),
(685,833,o),
(662,1000,o),
(841,1000,c),
(937,1001,o),
(1031,915,o),
(1031,811,c),
(1031,596,o),
(1194,621,o),
(1194,500,c),
(1194,379,o),
(1031,410,o),
(1031,189,c),
(1031,85,o),
(937,1,o),
(841,0,c),
(841,0,o),
(841,0,o),
(841,0,c),
(662,0,o),
(685,167,o),
(530,167,c),
(530,167,l),
(530,167,o),
(530,167,o),
(530,167,c),
(530,167,l),
(530,167,o),
(530,167,o),
(530,167,c),
(530,167,l),
(530,167,o),
(530,167,o),
(530,167,c),
(530,167,o),
(530,167,o),
(530,167,c),
(530,167,l),
(530,167,o),
(530,167,o),
(530,167,c),
(530,167,l),
(530,167,o),
(530,167,o),
(530,167,c),
(530,167,l),
(530,167,o),
(530,167,o),
(530,167,c)
);
}
);
width = 1062;
},
{
associatedMasterId = "DBF666E4-5604-41F1-9EC2-592A51C7F52D";
layerId = "A5D40375-0D1B-4AB8-97A6-C8F753B98C23";
shapes = (
{
attr = {
fillColor = (0,255);
};
closed = 1;
nodes = (
(192,2,l),
(184,1,o),
(176,0,o),
(168,0,c),
(92,0,o),
(31,61,o),
(31,137,c),
(31,55,o),
(31,811,q),
(31,915,o),
(116,1000,o),
(220,1000,c),
(842,1000,l),
(946,1000,o),
(1031,915,o),
(1031,811,c),
(1031,220,o),
(1031,138,q),
(1031,62,o),
(970,1,o),
(894,1,c),
(886,1,o),
(878,2,o),
(870,3,c),
(806,14,o),
(757,70,o),
(757,138,c),
(757,478,l),
(757,502,o),
(738,521,o),
(714,521,c),
(711,521,l),
(687,521,o),
(668,502,o),
(668,478,c),
(668,254,l),
(668,178,o),
(607,117,o),
(531,117,c),
(455,117,o),
(394,178,o),
(394,254,c),
(394,478,l),
(394,502,o),
(375,521,o),
(351,521,c),
(348,521,l),
(324,521,o),
(305,502,o),
(305,478,c),
(305,138,l),
(305,70,o),
(256,14,o),
(192,3,c)
);
}
);
width = 1062;
}
);
unicode = (77,109);
},
{
glyphname = N;
lastChange = "2023-04-21 01:54:46 +0000";
layers = (
{
layerId = m01;
shapes = (
{
attr = {
fillColor = (0,255);
};
closed = 1;
nodes = (
(739,1000,o),
(635,1000,o),
(532,1000,c),
(428,1000,o),
(325,1000,o),
(221,1000,c),
(116,1000,o),
(31,915,o),
(31,810,c),
(31,707,o),
(31,604,o),
(31,501,c),
(31,397,o),
(31,292,o),
(31,188,c),
(31,84,o),
(115,0,o),
(219,0,c),
(219,0,l),
(323,0,o),
(407,84,o),
(407,188,c),
(407,488,l),
(407,557,o),
(463,613,o),
(531,613,c),
(600,613,o),
(656,557,o),
(656,488,c),
(656,188,l),
(656,84,o),
(740,0,o),
(844,0,c),
(844,0,l),
(947,0,o),
(1032,84,o),
(1032,188,c),
(1032,293,o),
(1032,397,o),
(1032,502,c),
(1032,605,o),
(1032,707,o),
(1032,810,c),
(1032,915,o),
(947,1000,o),
(842,1000,c)
);
}
);
width = 1062;
},
{
associatedMasterId = m01;
layerId = "50931EA0-C13B-4080-8789-B80C46453536";
shapes = (
{
attr = {
fillColor = (0,255);
};
closed = 1;
nodes = (
(221,1000,l),
(116,1000,o),
(31,915,o),
(31,810,c),
(31,363,l),
(31,362,o),
(31,361,o),
(31,361,c),
(31,188,l),
(31,84,o),
(115,0,o),
(219,0,c),
(219,0,l),
(323,0,o),
(407,84,o),
(407,188,c),
(407,488,l),
(407,557,o),
(463,613,o),
(531,613,c),
(600,613,o),
(656,557,o),
(656,488,c),
(656,188,l),
(656,84,o),
(740,0,o),
(844,0,c),
(844,0,l),
(947,0,o),
(1032,84,o),
(1032,188,c),
(1032,327,l),
(1032,327,o),
(1032,361,o),
(1032,361,c),
(1032,810,l),
(1032,915,o),
(947,1000,o),
(842,1000,c)
);
}
);
width = 1063;
},
{
layerId = "6B27D304-7F9E-45B8-9D41-04979570550F";
shapes = (
{
attr = {
fillColor = (0,255);
};
closed = 1;
nodes = (
(841,1000,o),
(652,1000,o),
(531,1000,c),
(410,1000,o),
(221,1000,o),
(221,1000,c),
(116,1000,o),
(31,915,o),
(31,811,c),
(31,811,o),
(31,655,o),
(31,499,c),
(31,347,o),
(31,188,o),
(31,188,c),
(31,85,o),
(116,0,o),
(219,0,c),
(219,0,l),
(219,0,o),
(410,0,o),
(531,0,c),
(531,0,l),
(531,0,o),
(531,0,o),
(531,0,c),
(531,0,o),
(531,0,o),
(531,0,c),
(531,0,l),
(652,0,o),
(841,0,o),
(841,0,c),
(841,0,l),
(946,0,o),
(1031,85,o),
(1031,188,c),
(1031,188,o),
(1031,346,o),
(1031,497,c),
(1031,653,o),
(1031,811,o),
(1031,811,c),
(1031,915,o),
(946,1000,o),
(841,1000,c)
);
}
);
width = 1062;
},
{
associatedMasterId = "6B27D304-7F9E-45B8-9D41-04979570550F";
layerId = "D44FF9A8-4F4C-4C40-A83B-6965FE7DC57F";
shapes = (
{
attr = {
fillColor = (0,255);
};
closed = 1;
nodes = (
(221,1000,l),
(116,1000,o),
(31,915,o),
(31,810,c),
(31,363,l),
(31,362,o),
(31,361,o),
(31,361,c),
(31,188,l),
(31,84,o),
(115,0,o),
(219,0,c),
(219,0,l),
(323,0,o),
(407,84,o),
(407,188,c),
(407,488,l),
(407,557,o),
(463,613,o),
(531,613,c),
(600,613,o),
(656,557,o),
(656,488,c),
(656,188,l),
(656,84,o),
(740,0,o),
(844,0,c),
(844,0,l),
(947,0,o),
(1032,84,o),
(1032,188,c),
(1032,327,l),
(1032,327,o),
(1032,361,o),
(1032,361,c),
(1032,810,l),
(1032,915,o),
(947,1000,o),
(842,1000,c)
);
}
);
width = 1063;
},
{
layerId = "CD6C633B-B950-41C6-A48C-C51C49E64880";
shapes = (
{
attr = {
fillColor = (0,255);
};
closed = 1;
nodes = (
(621,1000,o),
(652,1163,o),
(531,1163,c),
(410,1163,o),
(441,1000,o),
(221,1000,c),
(116,1000,o),
(31,915,o),
(31,811,c),
(31,619,o),
(198,655,o),
(198,499,c),
(198,347,o),
(31,369,o),
(31,188,c),
(31,85,o),
(116,0,o),
(219,0,c),
(219,0,l),
(441,0,o),
(410,-163,o),
(531,-163,c),
(531,-163,l),
(531,-163,o),
(531,-163,o),
(531,-163,c),
(531,-163,o),
(531,-163,o),
(531,-163,c),
(531,-163,l),
(652,-163,o),
(621,0,o),
(841,0,c),
(841,0,l),
(946,0,o),
(1031,85,o),
(1031,188,c),
(1031,369,o),
(864,346,o),
(864,497,c),
(864,653,o),
(1031,643,o),
(1031,811,c),
(1031,915,o),
(946,1000,o),
(841,1000,c)
);
}
);
width = 1062;
},
{
associatedMasterId = "CD6C633B-B950-41C6-A48C-C51C49E64880";
layerId = "1D8119D7-A3EF-4E27-BDD8-6089754474BE";
shapes = (
{
attr = {
fillColor = (0,255);
};
closed = 1;
nodes = (
(221,1000,l),
(116,1000,o),
(31,915,o),
(31,810,c),
(31,363,l),
(31,362,o),
(31,361,o),
(31,361,c),
(31,188,l),
(31,84,o),
(115,0,o),
(219,0,c),
(219,0,l),
(323,0,o),
(407,84,o),
(407,188,c),
(407,488,l),
(407,557,o),
(463,613,o),
(531,613,c),
(600,613,o),
(656,557,o),
(656,488,c),
(656,188,l),
(656,84,o),
(740,0,o),
(844,0,c),
(844,0,l),
(947,0,o),
(1032,84,o),
(1032,188,c),
(1032,327,l),
(1032,327,o),
(1032,361,o),
(1032,361,c),
(1032,810,l),
(1032,915,o),
(947,1000,o),
(842,1000,c)
);
}
);
width = 1063;
},
{
layerId = "58E5FC18-77BC-4E01-B365-5BD9F0D9FC65";
shapes = (
{
attr = {
fillColor = (0,255);
};
closed = 1;
nodes = (
(841,1000,o),
(685,1000,o),
(530,1000,c),
(377,1000,o),
(221,1000,o),
(221,1000,c),
(116,1000,o),
(31,915,o),
(31,811,c),
(31,811,o),
(31,621,o),
(31,500,c),
(31,380,o),
(31,188,o),
(31,188,c),
(31,85,o),
(116,0,o),
(219,0,c),
(219,0,l),
(219,0,o),
(377,0,o),
(530,0,c),
(530,0,l),
(530,0,o),
(530,0,o),
(530,0,c),
(530,0,o),
(530,0,o),
(530,0,c),
(530,0,l),
(685,0,o),
(841,0,o),
(841,0,c),
(841,0,l),
(946,0,o),
(1031,85,o),
(1031,188,c),
(1031,188,o),
(1031,379,o),
(1031,497,c),
(1031,620,o),
(1031,811,o),
(1031,811,c),
(1031,915,o),
(946,1000,o),
(841,1000,c)
);
}
);
width = 1062;
},
{
associatedMasterId = "58E5FC18-77BC-4E01-B365-5BD9F0D9FC65";
layerId = "7FB71B2C-5979-4A63-BC31-B35A39A31059";
shapes = (
{
attr = {
fillColor = (0,255);
};
closed = 1;
nodes = (
(221,1000,l),
(116,1000,o),
(31,915,o),
(31,810,c),
(31,363,l),
(31,362,o),
(31,361,o),
(31,361,c),
(31,188,l),
(31,84,o),
(115,0,o),
(219,0,c),
(219,0,l),
(323,0,o),
(407,84,o),
(407,188,c),
(407,488,l),
(407,557,o),
(463,613,o),
(531,613,c),
(600,613,o),
(656,557,o),
(656,488,c),
(656,188,l),
(656,84,o),
(740,0,o),
(844,0,c),
(844,0,l),
(947,0,o),
(1032,84,o),
(1032,188,c),
(1032,327,l),
(1032,327,o),
(1032,361,o),
(1032,361,c),
(1032,810,l),
(1032,915,o),
(947,1000,o),
(842,1000,c)
);
}
);
width = 1063;
},
{
background = {
shapes = (
{
closed = 1;
nodes = (
(1194,167,l),
(1194,833,l),
(-132,833,l),
(-132,167,l)
);
}
);
};
layerId = "DBF666E4-5604-41F1-9EC2-592A51C7F52D";
shapes = (
{
attr = {
fillColor = (0,255);
};
closed = 1;
nodes = (
(662,1000,o),
(685,833,o),
(530,833,c),
(377,833,o),
(400,1000,o),
(221,1000,c),
(116,1000,o),
(31,915,o),
(31,811,c),
(31,596,o),
(-132,621,o),
(-132,500,c),
(-132,380,o),
(31,410,o),
(31,188,c),
(31,85,o),
(116,0,o),
(219,0,c),
(219,0,l),
(400,0,o),
(377,167,o),
(530,167,c),
(530,167,l),
(530,167,o),
(530,167,o),
(530,167,c),
(530,167,o),
(530,167,o),
(530,167,c),
(530,167,l),
(685,167,o),
(662,0,o),
(841,0,c),
(841,0,l),
(946,0,o),
(1031,85,o),
(1031,188,c),
(1031,410,o),
(1194,379,o),
(1194,497,c),
(1194,620,o),
(1031,596,o),
(1031,811,c),
(1031,915,o),
(946,1000,o),
(841,1000,c)
);
}
);
width = 1062;
},
{
associatedMasterId = "DBF666E4-5604-41F1-9EC2-592A51C7F52D";
layerId = "DAB3C31F-C231-40D2-BDB3-BF7D0FABAC02";
shapes = (
{
attr = {
fillColor = (0,255);
};
closed = 1;
nodes = (
(221,1000,l),
(116,1000,o),
(31,915,o),
(31,810,c),
(31,363,l),
(31,362,o),
(31,361,o),
(31,361,c),
(31,188,l),
(31,84,o),
(115,0,o),
(219,0,c),
(219,0,l),
(323,0,o),
(407,84,o),
(407,188,c),
(407,488,l),
(407,557,o),
(463,613,o),
(531,613,c),
(600,613,o),
(656,557,o),
(656,488,c),
(656,188,l),
(656,84,o),
(740,0,o),
(844,0,c),
(844,0,l),
(947,0,o),
(1032,84,o),
(1032,188,c),
(1032,327,l),
(1032,327,o),
(1032,361,o),
(1032,361,c),
(1032,810,l),
(1032,915,o),
(947,1000,o),
(842,1000,c)
);
}
);
width = 1063;
}
);
unicode = (78,110);
},
{
glyphname = O;
lastChange = "2023-04-21 02:20:27 +0000";
layers = (
{
layerId = m01;
shapes = (
{
attr = {
fillColor = (0,255);
};
closed = 1;
nodes = (
(738,1000,o),
(635,1000,o),
(531,1000,c),
(427,1000,o),
(324,1000,o),
(220,1000,c),
(116,1000,o),
(31,915,o),
(31,811,c),
(31,707,o),
(31,603,o),
(31,499,c),
(31,396,o),
(31,292,o),
(31,189,c),
(31,85,o),
(116,0,o),
(220,0,c),
(329,0,o),
(437,0,o),
(546,0,c),
(645,0,o),
(743,0,o),
(842,0,c),
(946,0,o),
(1031,85,o),
(1031,189,c),
(1031,293,o),
(1031,396,o),
(1031,500,c),
(1031,604,o),
(1031,707,o),
(1031,811,c),
(1031,915,o),
(946,1000,o),
(842,1000,c)
);
},
{
closed = 1;
nodes = (
(624,667,o),
(698,592,o),
(698,500,cs),
(698,408,o),
(624,333,o),
(531,333,cs),
(439,333,o),
(364,408,o),
(364,500,cs),
(364,592,o),
(439,667,o),
(531,667,cs)
);
}
);
width = 1062;
},
{
associatedMasterId = m01;
layerId = "50931EA0-C13B-4080-8789-B80C46453536";
shapes = (
{
attr = {
fillColor = (0,255);
};
closed = 1;
nodes = (
(220,1000,l),
(116,1000,o),
(31,915,o),
(31,811,c),
(31,189,l),
(31,85,o),
(116,0,o),
(220,0,c),
(842,0,l),
(946,0,o),
(1031,85,o),
(1031,189,c),
(1031,811,l),
(1031,915,o),
(946,1000,o),
(842,1000,c)
);
},
{
attr = {
fillColor = (0,255);
};
closed = 1;
nodes = (
(531,333,l),
(439,333,o),
(364,408,o),
(364,500,c),
(364,592,o),
(439,667,o),
(531,667,c)
);
},
{
attr = {
fillColor = (0,255);
};
closed = 1;
nodes = (
(624,667,o),
(698,592,o),
(698,500,c),
(698,408,o),
(624,333,o),
(531,333,c),
(531,667,l)
);
}
);
width = 1062;
},
{
layerId = "6B27D304-7F9E-45B8-9D41-04979570550F";
shapes = (
{
attr = {
fillColor = (0,255);
};
closed = 1;
nodes = (
(842,1000,o),
(652,1000,o),
(531,1000,c),
(410,1000,o),
(221,1000,o),
(221,1000,c),
(116,1000,o),
(31,915,o),
(31,811,c),
(31,811,o),
(31,654,o),
(31,500,c),
(31,346,o),
(31,189,o),
(31,189,c),
(31,85,o),
(116,0,o),
(221,0,c),
(221,0,o),
(410,0,o),
(531,0,c),
(652,0,o),
(842,0,o),
(842,0,c),
(948,0,o),
(1031,85,o),
(1031,189,c),
(1031,189,o),
(1031,346,o),
(1031,500,c),
(1031,654,o),
(1031,811,o),
(1031,811,c),
(1031,915,o),
(948,1000,o),
(842,1000,c)
);
},
{
closed = 1;
nodes = (
(531,500,o),
(531,500,o),
(531,500,cs),
(531,500,o),
(531,500,o),
(531,500,cs),
(531,500,o),
(531,500,o),
(531,500,cs),
(531,500,o),
(531,500,o),
(531,500,cs)
);
}
);
width = 1062;
},
{
associatedMasterId = "6B27D304-7F9E-45B8-9D41-04979570550F";
layerId = "88B0850B-B54E-4483-A9F7-5E90415A1C7C";
shapes = (
{
attr = {
fillColor = (0,255);
};
closed = 1;
nodes = (
(220,1000,l),
(116,1000,o),
(31,915,o),
(31,811,c),
(31,189,l),
(31,85,o),
(116,0,o),
(220,0,c),
(842,0,l),
(946,0,o),
(1031,85,o),
(1031,189,c),
(1031,811,l),
(1031,915,o),
(946,1000,o),
(842,1000,c)
);
},
{
attr = {
fillColor = (0,255);
};
closed = 1;
nodes = (
(531,333,l),
(439,333,o),
(364,408,o),
(364,500,c),
(364,592,o),
(439,667,o),
(531,667,c)
);
},
{
attr = {
fillColor = (0,255);
};
closed = 1;
nodes = (
(624,667,o),
(698,592,o),
(698,500,c),
(698,408,o),
(624,333,o),
(531,333,c),
(531,667,l)
);
}
);
width = 1062;
},
{
layerId = "CD6C633B-B950-41C6-A48C-C51C49E64880";
shapes = (
{
attr = {
fillColor = (0,255);
};
closed = 1;
nodes = (
(621,1000,o),
(652,1163,o),
(531,1163,c),
(410,1163,o),
(441,1000,o),
(221,1000,c),
(116,1000,o),
(31,915,o),
(31,811,c),
(31,631,o),
(198,654,o),
(198,500,c),
(198,346,o),
(31,369,o),
(31,189,c),
(31,85,o),
(116,0,o),
(221,0,c),
(441,0,o),
(410,-163,o),
(531,-163,c),
(652,-163,o),
(621,0,o),
(842,0,c),
(948,0,o),
(1031,85,o),
(1031,189,c),
(1031,369,o),
(864,346,o),
(864,500,c),
(864,654,o),
(1031,631,o),
(1031,811,c),
(1031,915,o),
(948,1000,o),
(842,1000,c)
);
},
{
closed = 1;
nodes = (
(531,500,o),
(531,500,o),
(531,500,cs),
(531,500,o),
(531,500,o),
(531,500,cs),
(531,500,o),
(531,500,o),
(531,500,cs),
(531,500,o),
(531,500,o),
(531,500,cs)
);
}
);
width = 1062;
},
{
associatedMasterId = "CD6C633B-B950-41C6-A48C-C51C49E64880";
layerId = "A1E4FC61-1DB2-4447-A1A6-2620216BEA31";
shapes = (
{
attr = {
fillColor = (0,255);
};
closed = 1;
nodes = (
(220,1000,l),
(116,1000,o),
(31,915,o),
(31,811,c),
(31,189,l),
(31,85,o),
(116,0,o),
(220,0,c),
(842,0,l),
(946,0,o),
(1031,85,o),
(1031,189,c),
(1031,811,l),
(1031,915,o),
(946,1000,o),
(842,1000,c)
);
},
{
attr = {
fillColor = (0,255);
};
closed = 1;
nodes = (
(531,333,l),
(439,333,o),
(364,408,o),
(364,500,c),
(364,592,o),
(439,667,o),
(531,667,c)
);
},
{
attr = {
fillColor = (0,255);
};
closed = 1;
nodes = (
(624,667,o),
(698,592,o),
(698,500,c),
(698,408,o),
(624,333,o),
(531,333,c),
(531,667,l)
);
}
);
width = 1062;
},
{
layerId = "58E5FC18-77BC-4E01-B365-5BD9F0D9FC65";
shapes = (
{
attr = {
fillColor = (0,255);
};
closed = 1;
nodes = (
(842,1000,o),
(685,1000,o),
(530,1000,c),
(377,1000,o),
(221,1000,o),
(221,1000,c),
(116,1000,o),
(31,915,o),
(31,811,c),
(31,811,o),
(31,621,o),
(31,500,c),
(31,379,o),
(31,189,o),
(31,189,c),
(31,85,o),
(116,0,o),
(221,0,c),
(221,0,o),
(377,0,o),
(530,0,c),
(685,0,o),
(842,0,o),
(842,0,c),
(948,0,o),
(1031,85,o),
(1031,189,c),
(1031,189,o),
(1031,379,o),
(1031,500,c),
(1031,621,o),
(1031,811,o),
(1031,811,c),
(1031,915,o),
(948,1000,o),
(842,1000,c)
);
},
{
closed = 1;
nodes = (
(531,500,o),
(531,500,o),
(531,500,cs),
(531,500,o),
(531,500,o),
(531,500,cs),
(531,500,o),
(531,500,o),
(531,500,cs),
(531,500,o),
(531,500,o),
(531,500,cs)
);
}
);
width = 1062;
},
{
associatedMasterId = "58E5FC18-77BC-4E01-B365-5BD9F0D9FC65";
layerId = "08F7AE6B-46EE-43AD-9E9A-0FC706850142";
shapes = (
{
attr = {
fillColor = (0,255);
};
closed = 1;
nodes = (
(220,1000,l),
(116,1000,o),
(31,915,o),
(31,811,c),
(31,189,l),
(31,85,o),
(116,0,o),
(220,0,c),
(842,0,l),
(946,0,o),
(1031,85,o),
(1031,189,c),
(1031,811,l),
(1031,915,o),
(946,1000,o),
(842,1000,c)
);
},
{
attr = {
fillColor = (0,255);
};
closed = 1;
nodes = (
(531,333,l),
(439,333,o),
(364,408,o),
(364,500,c),
(364,592,o),
(439,667,o),
(531,667,c)
);
},
{
attr = {
fillColor = (0,255);
};
closed = 1;
nodes = (
(624,667,o),
(698,592,o),
(698,500,c),
(698,408,o),
(624,333,o),
(531,333,c),
(531,667,l)
);
}
);
width = 1062;
},
{
background = {
shapes = (
{
closed = 1;
nodes = (
(1194,167,l),
(1194,833,l),
(-132,833,l),
(-132,167,l)
);
}
);
};
layerId = "DBF666E4-5604-41F1-9EC2-592A51C7F52D";
shapes = (
{
attr = {
fillColor = (0,255);
};
closed = 1;
nodes = (
(662,1000,o),
(685,833,o),
(530,833,c),
(377,833,o),
(400,1000,o),
(221,1000,c),
(116,1000,o),
(31,915,o),
(31,811,c),
(31,596,o),
(-132,621,o),
(-132,500,c),
(-132,379,o),
(31,410,o),
(31,189,c),
(31,85,o),
(116,0,o),
(221,0,c),
(400,0,o),
(377,167,o),
(530,167,c),
(685,167,o),
(662,0,o),
(842,0,c),
(948,0,o),
(1031,85,o),
(1031,189,c),
(1031,410,o),
(1194,379,o),
(1194,500,c),
(1194,621,o),
(1031,596,o),
(1031,811,c),
(1031,915,o),
(948,1000,o),
(842,1000,c)
);
},
{
closed = 1;
nodes = (
(531,500,o),
(531,500,o),
(531,500,cs),
(531,500,o),
(531,500,o),
(531,500,cs),
(531,500,o),
(531,500,o),
(531,500,cs),
(531,500,o),
(531,500,o),
(531,500,cs)
);
}
);
width = 1062;
},
{
associatedMasterId = "DBF666E4-5604-41F1-9EC2-592A51C7F52D";
layerId = "42B874D4-CD3E-4A69-B5A7-CA00D5269893";
shapes = (
{
attr = {
fillColor = (0,255);
};
closed = 1;
nodes = (
(220,1000,l),
(116,1000,o),
(31,915,o),
(31,811,c),
(31,189,l),
(31,85,o),
(116,0,o),
(220,0,c),
(842,0,l),
(946,0,o),
(1031,85,o),
(1031,189,c),
(1031,811,l),
(1031,915,o),
(946,1000,o),
(842,1000,c)
);
},
{
attr = {
fillColor = (0,255);
};
closed = 1;
nodes = (
(531,333,l),
(439,333,o),
(364,408,o),
(364,500,c),
(364,592,o),
(439,667,o),
(531,667,c)
);
},
{
attr = {
fillColor = (0,255);
};
closed = 1;
nodes = (
(624,667,o),
(698,592,o),
(698,500,c),
(698,408,o),
(624,333,o),
(531,333,c),
(531,667,l)
);
}
);
width = 1062;
}
);
unicode = (79,111);
},
{
glyphname = P;
lastChange = "2023-04-21 01:54:46 +0000";
layers = (
{
layerId = m01;
shapes = (
{
attr = {
fillColor = (0,255);
};
closed = 1;
nodes = (
(738,1000,o),
(634,1000,o),
(530,1000,cs),
(427,1000,o),
(324,1000,o),
(221,1000,c),
(116,1000,o),
(31,915,o),
(31,811,c),
(31,686,o),
(31,561,o),
(31,436,c),
(31,435,o),
(31,362,o),
(31,361,c),
(31,303,o),
(31,246,o),
(31,188,c),
(31,84,o),
(115,0,o),
(219,0,c),
(271,0,o),
(318,21,o),
(352,55,c),
(386,89,o),
(407,136,o),
(407,188,c),
(407,203,l),
(407,269,o),
(458,323,o),
(523,327,c),
(526,327,o),
(528,327,o),
(531,327,c),
(534,327,o),
(537,327,o),
(539,327,c),
(841,327,l),
(946,327,o),
(1031,412,o),
(1031,517,c),
(1031,619,o),
(1031,721,o),
(1031,823,c),
(1025,922,o),
(942,1000,o),
(842,1000,c)
);
},
{
attr = {
fillColor = (0,255);
};
closed = 1;
nodes = (
(531,555,l),
(467,555,o),
(414,607,o),
(414,672,c),
(414,683,o),
(416,694,o),
(419,704,c),
(433,753,o),
(478,789,o),
(531,789,c),
(585,789,o),
(629,753,o),
(644,704,c),
(647,694,o),
(648,683,o),
(648,672,c),
(648,607,o),
(596,555,o),
(531,555,c)
);
}
);
width = 1062;
},
{
associatedMasterId = m01;
layerId = "50931EA0-C13B-4080-8789-B80C46453536";
shapes = (
{
attr = {
fillColor = (0,255);
};
closed = 1;
nodes = (
(221,1000,l),
(116,1000,o),
(31,915,o),
(31,811,c),
(31,363,l),
(31,362,o),
(31,362,o),
(31,361,c),
(31,188,l),
(31,84,o),
(115,0,o),
(219,0,c),
(271,0,o),
(318,21,o),
(352,55,c),
(386,89,o),
(407,136,o),
(407,188,c),
(407,203,l),
(407,269,o),
(458,323,o),
(523,327,c),
(526,327,o),
(528,327,o),
(531,327,c),
(534,327,o),
(537,327,o),
(539,327,c),
(841,327,l),
(946,327,o),
(1031,412,o),
(1031,517,c),
(1031,823,l),
(1025,922,o),
(942,1000,o),
(842,1000,c)
);
},
{
attr = {
fillColor = (0,255);
};
closed = 1;
nodes = (
(531,555,l),
(467,555,o),
(414,607,o),
(414,672,c),
(414,683,o),
(416,694,o),
(419,704,c),
(433,753,o),
(478,789,o),
(531,789,c),
(585,789,o),
(629,753,o),
(644,704,c),
(647,694,o),
(648,683,o),
(648,672,c),
(648,607,o),
(596,555,o),
(531,555,c)
);
}
);
width = 1062;
},
{
layerId = "6B27D304-7F9E-45B8-9D41-04979570550F";
shapes = (
{
attr = {
fillColor = (0,255);
};
closed = 1;
nodes = (
(841,1000,o),
(652,1000,o),
(531,1000,cs),
(410,1000,o),
(221,1000,o),
(221,1000,c),
(116,1000,o),
(28,915,o),
(31,805,c),
(31,805,o),
(31,654,o),
(31,500,c),
(31,500,o),
(31,500,o),
(31,500,c),
(31,346,o),
(31,189,o),
(31,189,c),
(31,85,o),
(116,0,o),
(219,0,c),
(219,0,o),
(410,0,o),
(531,0,c),
(531,0,o),
(531,0,o),
(531,0,c),
(531,0,l),
(652,0,o),
(842,0,o),
(842,0,c),
(842,0,o),
(842,0,o),
(842,0,c),
(947,0,o),
(1031,85,o),
(1031,189,cs),
(1031,189,l),
(1031,189,o),
(1031,346,o),
(1031,500,c),
(1031,654,o),
(1031,817,o),
(1031,817,c),
(1028,915,o),
(952,1000,o),
(841,1000,c)
);
},
{
attr = {
fillColor = (0,255);
};
closed = 1;
nodes = (
(531,672,l),
(531,672,o),
(531,672,o),
(531,672,c),
(531,672,o),
(531,672,o),
(531,672,c),
(531,672,o),
(531,672,o),
(531,672,c),
(531,672,o),
(531,672,o),
(531,672,c),
(531,672,o),
(531,672,o),
(531,672,c),
(531,672,o),
(531,672,o),
(531,672,c)
);
}
);
width = 1062;
},
{
associatedMasterId = "6B27D304-7F9E-45B8-9D41-04979570550F";
layerId = "1C4582C0-DC02-4B20-840D-415A1C74974A";
shapes = (
{
attr = {
fillColor = (0,255);
};
closed = 1;
nodes = (
(221,1000,l),
(116,1000,o),
(31,915,o),
(31,811,c),
(31,363,l),
(31,362,o),
(31,362,o),
(31,361,c),
(31,188,l),
(31,84,o),
(115,0,o),
(219,0,c),
(271,0,o),
(318,21,o),
(352,55,c),
(386,89,o),
(407,136,o),
(407,188,c),
(407,203,l),
(407,269,o),
(458,323,o),
(523,327,c),
(526,327,o),
(528,327,o),
(531,327,c),
(534,327,o),
(537,327,o),
(539,327,c),
(841,327,l),
(946,327,o),
(1031,412,o),
(1031,517,c),
(1031,823,l),
(1025,922,o),
(942,1000,o),
(842,1000,c)
);
},
{
attr = {
fillColor = (0,255);
};
closed = 1;
nodes = (
(531,555,l),
(467,555,o),
(414,607,o),
(414,672,c),
(414,683,o),
(416,694,o),
(419,704,c),
(433,753,o),
(478,789,o),
(531,789,c),
(585,789,o),
(629,753,o),
(644,704,c),
(647,694,o),
(648,683,o),
(648,672,c),
(648,607,o),
(596,555,o),
(531,555,c)
);
}
);
width = 1062;
},
{
layerId = "CD6C633B-B950-41C6-A48C-C51C49E64880";
shapes = (
{
attr = {
fillColor = (0,255);
};
closed = 1;
nodes = (
(593,1000,o),
(652,1163,o),
(531,1163,cs),
(410,1163,o),
(455,1000,o),
(221,1000,c),
(116,1000,o),
(28,915,o),
(31,805,c),
(31,631,o),
(198,654,o),
(198,500,c),
(198,500,o),
(198,500,o),
(198,500,c),
(198,346,o),
(31,369,o),
(31,189,c),
(31,85,o),
(116,0,o),
(219,0,c),
(428,0,o),
(410,-163,o),
(531,-163,c),
(531,-163,o),
(531,-163,o),
(531,-163,c),
(531,-163,l),
(652,-163,o),
(649,0,o),
(842,0,c),
(842,0,o),
(842,0,o),
(842,0,c),
(947,0,o),
(1031,85,o),
(1031,189,cs),
(1031,189,l),
(1031,369,o),
(864,346,o),
(864,500,c),
(864,654,o),
(1031,631,o),
(1031,817,c),
(1028,915,o),
(952,1000,o),
(841,1000,c)
);
},
{
attr = {
fillColor = (0,255);
};
closed = 1;
nodes = (
(531,728,l),
(531,728,o),
(531,728,o),
(531,728,c),
(531,728,o),
(531,728,o),
(531,728,c),
(531,728,o),
(531,728,o),
(531,728,c),
(531,728,o),
(531,728,o),
(531,728,c),
(531,728,o),
(531,728,o),
(531,728,c),
(531,728,o),
(531,728,o),
(531,728,c)
);
}
);
width = 1062;
},
{
associatedMasterId = "CD6C633B-B950-41C6-A48C-C51C49E64880";
layerId = "1468E8F4-7DAC-4F18-A1FB-FA39D05E57F2";
shapes = (
{
attr = {
fillColor = (0,255);
};
closed = 1;
nodes = (
(221,1000,l),
(116,1000,o),
(31,915,o),
(31,811,c),
(31,363,l),
(31,362,o),
(31,362,o),
(31,361,c),
(31,188,l),
(31,84,o),
(115,0,o),
(219,0,c),
(271,0,o),
(318,21,o),
(352,55,c),
(386,89,o),
(407,136,o),
(407,188,c),
(407,203,l),
(407,269,o),
(458,323,o),
(523,327,c),
(526,327,o),
(528,327,o),
(531,327,c),
(534,327,o),
(537,327,o),
(539,327,c),
(841,327,l),
(946,327,o),
(1031,412,o),
(1031,517,c),
(1031,823,l),
(1025,922,o),
(942,1000,o),
(842,1000,c)
);
},
{
attr = {
fillColor = (0,255);
};
closed = 1;
nodes = (
(531,555,l),
(467,555,o),
(414,607,o),
(414,672,c),
(414,683,o),
(416,694,o),
(419,704,c),
(433,753,o),
(478,789,o),
(531,789,c),
(585,789,o),
(629,753,o),
(644,704,c),
(647,694,o),
(648,683,o),
(648,672,c),
(648,607,o),
(596,555,o),
(531,555,c)
);
}
);
width = 1062;
},
{
layerId = "58E5FC18-77BC-4E01-B365-5BD9F0D9FC65";
shapes = (
{
attr = {
fillColor = (0,255);
};
closed = 1;
nodes = (
(841,1000,o),
(684,1000,o),
(530,1000,cs),
(377,1000,o),
(221,1000,o),
(221,1000,c),
(116,1000,o),
(28,915,o),
(31,805,c),
(31,805,o),
(31,621,o),
(31,500,c),
(31,500,o),
(31,500,o),
(31,500,c),
(31,379,o),
(31,189,o),
(31,189,c),
(31,85,o),
(116,0,o),
(219,0,c),
(219,0,o),
(377,0,o),
(530,0,c),
(530,0,o),
(530,0,o),
(530,0,c),
(530,0,l),
(684,0,o),
(842,0,o),
(842,0,c),
(842,0,o),
(842,0,o),
(842,0,c),
(947,0,o),
(1031,85,o),
(1031,189,cs),
(1031,189,l),
(1031,189,o),
(1031,379,o),
(1031,500,c),
(1031,621,o),
(1031,817,o),
(1031,817,c),
(1028,915,o),
(952,1000,o),
(841,1000,c)
);
},
{
attr = {
fillColor = (0,255);
};
closed = 1;
nodes = (
(531,672,l),
(531,672,o),
(531,672,o),
(531,672,c),
(531,672,o),
(531,672,o),
(531,672,c),
(531,672,o),
(531,672,o),
(531,672,c),
(531,672,o),
(531,672,o),
(531,672,c),
(531,672,o),
(531,672,o),
(531,672,c),
(531,672,o),
(531,672,o),
(531,672,c)
);
}
);
width = 1062;
},
{
associatedMasterId = "58E5FC18-77BC-4E01-B365-5BD9F0D9FC65";
layerId = "669B28BA-D576-4CEF-9AC1-15C5DA31EC94";
shapes = (
{
attr = {
fillColor = (0,255);
};
closed = 1;
nodes = (
(221,1000,l),
(116,1000,o),
(31,915,o),
(31,811,c),
(31,363,l),
(31,362,o),
(31,362,o),
(31,361,c),
(31,188,l),
(31,84,o),
(115,0,o),
(219,0,c),
(271,0,o),
(318,21,o),
(352,55,c),
(386,89,o),
(407,136,o),
(407,188,c),
(407,203,l),
(407,269,o),
(458,323,o),
(523,327,c),
(526,327,o),
(528,327,o),
(531,327,c),
(534,327,o),
(537,327,o),
(539,327,c),
(841,327,l),
(946,327,o),
(1031,412,o),
(1031,517,c),
(1031,823,l),
(1025,922,o),
(942,1000,o),
(842,1000,c)
);
},
{
attr = {
fillColor = (0,255);
};
closed = 1;
nodes = (
(531,555,l),
(467,555,o),
(414,607,o),
(414,672,c),
(414,683,o),
(416,694,o),
(419,704,c),
(433,753,o),
(478,789,o),
(531,789,c),
(585,789,o),
(629,753,o),
(644,704,c),
(647,694,o),
(648,683,o),
(648,672,c),
(648,607,o),
(596,555,o),
(531,555,c)
);
}
);
width = 1062;
},
{
background = {
shapes = (
{
closed = 1;
nodes = (
(1194,167,l),
(1194,833,l),
(-132,833,l),
(-132,167,l)
);
}
);
};
layerId = "DBF666E4-5604-41F1-9EC2-592A51C7F52D";
shapes = (
{
attr = {
fillColor = (0,255);
};
closed = 1;
nodes = (
(662,1000,o),
(684,833,o),
(530,833,cs),
(377,833,o),
(400,1000,o),
(221,1000,c),
(116,1000,o),
(28,915,o),
(31,805,c),
(31,596,o),
(-132,621,o),
(-132,500,c),
(-132,500,o),
(-132,500,o),
(-132,500,c),
(-132,379,o),
(31,410,o),
(31,189,c),
(31,85,o),
(116,0,o),
(219,0,c),
(400,0,o),
(377,167,o),
(530,167,c),
(530,167,o),
(530,167,o),
(530,167,c),
(530,167,l),
(684,167,o),
(662,0,o),
(842,0,c),
(842,0,o),
(842,0,o),
(842,0,c),
(947,0,o),
(1031,85,o),
(1031,189,cs),
(1031,189,l),
(1028,410,o),
(1194,379,o),
(1194,500,c),
(1194,621,o),
(1031,596,o),
(1031,817,c),
(1028,915,o),
(952,1000,o),
(841,1000,c)
);
},
{
attr = {
fillColor = (0,255);
};
closed = 1;
nodes = (
(531,615,l),
(531,615,o),
(531,615,o),
(531,615,c),
(531,615,o),
(531,615,o),
(531,615,c),
(531,615,o),
(531,615,o),
(531,615,c),
(531,615,o),
(531,615,o),
(531,615,c),
(531,615,o),
(531,615,o),
(531,615,c),
(531,615,o),
(531,615,o),
(531,615,c)
);
}
);
width = 1062;
},
{
associatedMasterId = "DBF666E4-5604-41F1-9EC2-592A51C7F52D";
layerId = "B7DCB7FA-6A22-47C1-AA00-2A6A4C87867D";
shapes = (
{
attr = {
fillColor = (0,255);
};
closed = 1;
nodes = (
(221,1000,l),
(116,1000,o),
(31,915,o),
(31,811,c),
(31,363,l),
(31,362,o),
(31,362,o),
(31,361,c),
(31,188,l),
(31,84,o),
(115,0,o),
(219,0,c),
(271,0,o),
(318,21,o),
(352,55,c),
(386,89,o),
(407,136,o),
(407,188,c),
(407,203,l),
(407,269,o),
(458,323,o),
(523,327,c),
(526,327,o),
(528,327,o),
(531,327,c),
(534,327,o),
(537,327,o),
(539,327,c),
(841,327,l),
(946,327,o),
(1031,412,o),
(1031,517,c),
(1031,823,l),
(1025,922,o),
(942,1000,o),
(842,1000,c)
);
},
{
attr = {
fillColor = (0,255);
};
closed = 1;
nodes = (
(531,555,l),
(467,555,o),
(414,607,o),
(414,672,c),
(414,683,o),
(416,694,o),
(419,704,c),
(433,753,o),
(478,789,o),
(531,789,c),
(585,789,o),
(629,753,o),
(644,704,c),
(647,694,o),
(648,683,o),
(648,672,c),
(648,607,o),
(596,555,o),
(531,555,c)
);
}
);
width = 1062;
}
);
unicode = (80,112);
},
{
glyphname = Q;
lastChange = "2023-04-21 01:54:46 +0000";
layers = (
{
layerId = m01;
shapes = (
{
attr = {
fillColor = (0,255);
};
closed = 1;
nodes = (
(31,721,o),
(31,619,o),
(31,517,c),
(31,412,o),
(116,327,o),
(221,327,c),
(523,327,l),
(525,327,o),
(528,327,o),
(531,327,c),
(534,327,o),
(536,327,o),
(539,327,c),
(604,323,o),
(655,269,o),
(655,203,c),
(655,188,l),
(655,136,o),
(676,89,o),
(710,55,c),
(727,38,o),
(748,24,o),
(771,14,cs),
(793,5,o),
(817,0,o),
(843,0,c),
(947,0,o),
(1031,84,o),
(1031,188,c),
(1031,246,o),
(1031,303,o),
(1031,361,c),
(1031,362,o),
(1031,362,o),
(1031,363,c),
(1031,512,o),
(1031,662,o),
(1031,811,c),
(1031,915,o),
(946,1000,o),
(841,1000,c),
(737,1000,o),
(633,1000,o),
(529,1000,cs),
(426,1000,o),
(323,1000,o),
(220,1000,c),
(120,1000,o),
(37,922,o),
(31,823,c)
);
},
{
attr = {
fillColor = (0,255);
};
closed = 1;
nodes = (
(414,672,l),
(414,683,o),
(415,694,o),
(418,704,c),
(432,753,o),
(477,789,o),
(531,789,c),
(584,789,o),
(629,753,o),
(643,704,c),
(646,694,o),
(648,683,o),
(648,672,c),
(648,607,o),
(595,555,o),
(531,555,c),
(466,555,o),
(414,607,o),
(414,672,c)
);
}
);
width = 1062;
},
{
associatedMasterId = m01;
layerId = "50931EA0-C13B-4080-8789-B80C46453536";
shapes = (
{
attr = {
fillColor = (0,255);
};
closed = 1;
nodes = (
(31,517,l),
(31,412,o),
(116,327,o),
(221,327,c),
(523,327,l),
(525,327,o),
(528,327,o),
(531,327,c),
(534,327,o),
(536,327,o),
(539,327,c),
(604,323,o),
(655,269,o),
(655,203,c),
(655,188,l),
(655,136,o),
(676,89,o),
(710,55,c),
(744,21,o),
(791,0,o),
(843,0,c),
(947,0,o),
(1031,84,o),
(1031,188,c),
(1031,361,l),
(1031,362,o),
(1031,362,o),
(1031,363,c),
(1031,811,l),
(1031,915,o),
(946,1000,o),
(841,1000,c),
(220,1000,l),
(120,1000,o),
(37,922,o),
(31,823,c)
);
},
{
attr = {
fillColor = (0,255);
};
closed = 1;
nodes = (
(414,672,l),
(414,683,o),
(415,694,o),
(418,704,c),
(432,753,o),
(477,789,o),
(531,789,c),
(584,789,o),
(629,753,o),
(643,704,c),
(646,694,o),
(648,683,o),
(648,672,c),
(648,607,o),
(595,555,o),
(531,555,c),
(466,555,o),
(414,607,o),
(414,672,c)
);
}
);
width = 1062;
},
{
layerId = "6B27D304-7F9E-45B8-9D41-04979570550F";
shapes = (
{
attr = {
fillColor = (0,255);
};
closed = 1;
nodes = (
(31,811,o),
(31,654,o),
(31,500,c),
(31,500,o),
(31,500,o),
(31,500,c),
(31,500,l),
(31,500,o),
(31,500,o),
(31,500,c),
(31,500,o),
(31,500,o),
(31,500,c),
(31,346,o),
(31,189,o),
(31,189,c),
(31,189,l),
(31,85,o),
(116,0,o),
(220,0,c),
(220,0,o),
(410,0,o),
(531,0,cs),
(652,0,o),
(841,0,o),
(841,0,c),
(943,0,o),
(1031,85,o),
(1031,189,c),
(1031,189,o),
(1031,346,o),
(1031,500,c),
(1031,500,o),
(1031,500,o),
(1031,500,c),
(1031,654,o),
(1031,811,o),
(1031,811,c),
(1031,915,o),
(945,1000,o),
(841,1000,c),
(841,1000,o),
(652,1000,o),
(531,1000,cs),
(410,1000,o),
(220,1000,o),
(220,1000,c),
(116,1000,o),
(37,915,o),
(31,811,c)
);
},
{
attr = {
fillColor = (0,255);
};
closed = 1;
nodes = (
(531,683,l),
(531,683,o),
(531,683,o),
(531,683,c),
(531,683,o),
(531,683,o),
(531,683,c),
(531,683,o),
(531,683,o),
(531,683,c),
(531,683,o),
(531,683,o),
(531,683,c),
(531,683,o),
(531,683,o),
(531,683,c),
(531,683,o),
(531,683,o),
(531,683,c)
);
}
);
width = 1062;
},
{
associatedMasterId = "6B27D304-7F9E-45B8-9D41-04979570550F";
layerId = "629A0375-A2F9-4384-818F-8ED2F2517384";
shapes = (
{
attr = {
fillColor = (0,255);
};
closed = 1;
nodes = (
(31,517,l),
(31,412,o),
(116,327,o),
(221,327,c),
(523,327,l),
(525,327,o),
(528,327,o),
(531,327,c),
(534,327,o),
(536,327,o),
(539,327,c),
(604,323,o),
(655,269,o),
(655,203,c),
(655,188,l),
(655,136,o),
(676,89,o),
(710,55,c),
(744,21,o),
(791,0,o),
(843,0,c),
(947,0,o),
(1031,84,o),
(1031,188,c),
(1031,361,l),
(1031,362,o),
(1031,362,o),
(1031,363,c),
(1031,811,l),
(1031,915,o),
(946,1000,o),
(841,1000,c),
(220,1000,l),
(120,1000,o),
(37,922,o),
(31,823,c)
);
},
{
attr = {
fillColor = (0,255);
};
closed = 1;
nodes = (
(414,672,l),
(414,683,o),
(415,694,o),
(418,704,c),
(432,753,o),
(477,789,o),
(531,789,c),
(584,789,o),
(629,753,o),
(643,704,c),
(646,694,o),
(648,683,o),
(648,672,c),
(648,607,o),
(595,555,o),
(531,555,c),
(466,555,o),
(414,607,o),
(414,672,c)
);
}
);
width = 1062;
},
{
layerId = "CD6C633B-B950-41C6-A48C-C51C49E64880";
shapes = (
{
attr = {
fillColor = (0,255);
};
closed = 1;
nodes = (
(31,631,o),
(198,654,o),
(198,500,c),
(198,500,o),
(198,500,o),
(198,500,c),
(198,500,l),
(198,500,o),
(198,500,o),
(198,500,c),
(198,500,o),
(198,500,o),
(198,500,c),
(198,346,o),
(31,369,o),
(31,189,c),
(31,189,l),
(31,85,o),
(116,0,o),
(220,0,c),
(441,0,o),
(410,-163,o),
(531,-163,cs),
(652,-163,o),
(621,0,o),
(841,0,c),
(943,0,o),
(1031,85,o),
(1031,189,c),
(1031,369,o),
(864,346,o),
(864,500,c),
(864,500,o),
(864,500,o),
(864,500,c),
(864,654,o),
(1031,631,o),
(1031,811,c),
(1031,915,o),
(945,1000,o),
(841,1000,c),
(621,1000,o),
(652,1163,o),
(531,1163,cs),
(410,1163,o),
(441,1000,o),
(220,1000,c),
(116,1000,o),
(37,915,o),
(31,811,c)
);
},
{
attr = {
fillColor = (0,255);
};
closed = 1;
nodes = (
(531,743,l),
(531,743,o),
(531,743,o),
(531,743,c),
(531,743,o),
(531,743,o),
(531,743,c),
(531,743,o),
(531,743,o),
(531,743,c),
(531,743,o),
(531,743,o),
(531,743,c),
(531,743,o),
(531,743,o),
(531,743,c),
(531,743,o),
(531,743,o),
(531,743,c)
);
}
);
width = 1062;
},
{
associatedMasterId = "CD6C633B-B950-41C6-A48C-C51C49E64880";
layerId = "0D62FBD3-EDB0-4FB9-9B15-15D88FAAFD3C";
shapes = (
{
attr = {
fillColor = (0,255);
};
closed = 1;
nodes = (
(31,517,l),
(31,412,o),
(116,327,o),
(221,327,c),
(523,327,l),
(525,327,o),
(528,327,o),
(531,327,c),
(534,327,o),
(536,327,o),
(539,327,c),
(604,323,o),
(655,269,o),
(655,203,c),
(655,188,l),
(655,136,o),
(676,89,o),
(710,55,c),
(744,21,o),
(791,0,o),
(843,0,c),
(947,0,o),
(1031,84,o),
(1031,188,c),
(1031,361,l),
(1031,362,o),
(1031,362,o),
(1031,363,c),
(1031,811,l),
(1031,915,o),
(946,1000,o),
(841,1000,c),
(220,1000,l),
(120,1000,o),
(37,922,o),
(31,823,c)
);
},
{
attr = {
fillColor = (0,255);
};
closed = 1;
nodes = (
(414,672,l),
(414,683,o),
(415,694,o),
(418,704,c),
(432,753,o),
(477,789,o),
(531,789,c),
(584,789,o),
(629,753,o),
(643,704,c),
(646,694,o),
(648,683,o),
(648,672,c),
(648,607,o),
(595,555,o),
(531,555,c),
(466,555,o),
(414,607,o),
(414,672,c)
);
}
);
width = 1062;
},
{
layerId = "58E5FC18-77BC-4E01-B365-5BD9F0D9FC65";
shapes = (
{
attr = {
fillColor = (0,255);
};
closed = 1;
nodes = (
(31,811,o),
(31,621,o),
(31,500,c),
(31,500,o),
(31,500,o),
(31,500,c),
(31,500,l),
(31,500,o),
(31,500,o),
(31,500,c),
(31,500,o),
(31,500,o),
(31,500,c),
(31,379,o),
(31,189,o),
(31,189,c),
(31,189,l),
(31,85,o),
(116,0,o),
(220,0,c),
(220,0,o),
(377,0,o),
(531,0,cs),
(685,0,o),
(841,0,o),
(841,0,c),
(943,0,o),
(1031,85,o),
(1031,189,c),
(1031,189,o),
(1031,379,o),
(1031,500,c),
(1031,500,o),
(1031,500,o),
(1031,500,c),
(1031,621,o),
(1031,811,o),
(1031,811,c),
(1031,915,o),
(945,1000,o),
(841,1000,c),
(841,1000,o),
(685,1000,o),
(531,1000,cs),
(377,1000,o),
(220,1000,o),
(220,1000,c),
(116,1000,o),
(37,915,o),
(31,811,c)
);
},
{
attr = {
fillColor = (0,255);
};
closed = 1;
nodes = (
(531,683,l),
(531,683,o),
(531,683,o),
(531,683,c),
(531,683,o),
(531,683,o),
(531,683,c),
(531,683,o),
(531,683,o),
(531,683,c),
(531,683,o),
(531,683,o),
(531,683,c),
(531,683,o),
(531,683,o),
(531,683,c),
(531,683,o),
(531,683,o),
(531,683,c)
);
}
);
width = 1062;
},
{
associatedMasterId = "58E5FC18-77BC-4E01-B365-5BD9F0D9FC65";
layerId = "CA3FAF27-1C69-4702-95D1-44F9873B235C";
shapes = (
{
attr = {
fillColor = (0,255);
};
closed = 1;
nodes = (
(31,517,l),
(31,412,o),
(116,327,o),
(221,327,c),
(523,327,l),
(525,327,o),
(528,327,o),
(531,327,c),
(534,327,o),
(536,327,o),
(539,327,c),
(604,323,o),
(655,269,o),
(655,203,c),
(655,188,l),
(655,136,o),
(676,89,o),
(710,55,c),
(744,21,o),
(791,0,o),
(843,0,c),
(947,0,o),
(1031,84,o),
(1031,188,c),
(1031,361,l),
(1031,362,o),
(1031,362,o),
(1031,363,c),
(1031,811,l),
(1031,915,o),
(946,1000,o),
(841,1000,c),
(220,1000,l),
(120,1000,o),
(37,922,o),
(31,823,c)
);
},
{
attr = {
fillColor = (0,255);
};
closed = 1;
nodes = (
(414,672,l),
(414,683,o),
(415,694,o),
(418,704,c),
(432,753,o),
(477,789,o),
(531,789,c),
(584,789,o),
(629,753,o),
(643,704,c),
(646,694,o),
(648,683,o),
(648,672,c),
(648,607,o),
(595,555,o),
(531,555,c),
(466,555,o),
(414,607,o),
(414,672,c)
);
}
);
width = 1062;
},
{
background = {
shapes = (
{
closed = 1;
nodes = (
(1194,167,l),
(1194,833,l),
(-132,833,l),
(-132,167,l)
);
}
);
};
layerId = "DBF666E4-5604-41F1-9EC2-592A51C7F52D";
shapes = (
{
attr = {
fillColor = (0,255);
};
closed = 1;
nodes = (
(31,596,o),
(-132,621,o),
(-132,500,c),
(-132,500,o),
(-132,500,o),
(-132,500,c),
(-132,500,l),
(-132,500,o),
(-132,500,o),
(-132,500,c),
(-132,500,o),
(-132,500,o),
(-132,500,c),
(-132,379,o),
(31,410,o),
(31,189,c),
(31,189,l),
(31,85,o),
(116,0,o),
(220,0,c),
(400,0,o),
(377,167,o),
(531,167,cs),
(685,167,o),
(662,0,o),
(841,0,c),
(943,0,o),
(1031,85,o),
(1031,189,c),
(1031,410,o),
(1194,379,o),
(1194,500,c),
(1194,500,o),
(1194,500,o),
(1194,500,c),
(1194,621,o),
(1031,596,o),
(1031,811,c),
(1031,915,o),
(945,1000,o),
(841,1000,c),
(662,1000,o),
(685,833,o),
(531,833,cs),
(377,833,o),
(400,1000,o),
(220,1000,c),
(116,1000,o),
(37,915,o),
(31,811,c)
);
},
{
attr = {
fillColor = (0,255);
};
closed = 1;
nodes = (
(531,622,l),
(531,622,o),
(531,622,o),
(531,622,c),
(531,622,o),
(531,622,o),
(531,622,c),
(531,622,o),
(531,622,o),
(531,622,c),
(531,622,o),
(531,622,o),
(531,622,c),
(531,622,o),
(531,622,o),
(531,622,c),
(531,622,o),
(531,622,o),
(531,622,c)
);
}
);
width = 1062;
},
{
associatedMasterId = "DBF666E4-5604-41F1-9EC2-592A51C7F52D";
layerId = "F1EFC133-C4EA-45F5-8F1E-61DA4C809C6E";
shapes = (
{
attr = {
fillColor = (0,255);
};
closed = 1;
nodes = (
(31,517,l),
(31,412,o),
(116,327,o),
(221,327,c),
(523,327,l),
(525,327,o),
(528,327,o),
(531,327,c),
(534,327,o),
(536,327,o),
(539,327,c),
(604,323,o),
(655,269,o),
(655,203,c),
(655,188,l),
(655,136,o),
(676,89,o),
(710,55,c),
(744,21,o),
(791,0,o),
(843,0,c),
(947,0,o),
(1031,84,o),
(1031,188,c),
(1031,361,l),
(1031,362,o),
(1031,362,o),
(1031,363,c),
(1031,811,l),
(1031,915,o),
(946,1000,o),
(841,1000,c),
(220,1000,l),
(120,1000,o),
(37,922,o),
(31,823,c)
);
},
{
attr = {
fillColor = (0,255);
};
closed = 1;
nodes = (
(414,672,l),
(414,683,o),
(415,694,o),
(418,704,c),
(432,753,o),
(477,789,o),
(531,789,c),
(584,789,o),
(629,753,o),
(643,704,c),
(646,694,o),
(648,683,o),
(648,672,c),
(648,607,o),
(595,555,o),
(531,555,c),
(466,555,o),
(414,607,o),
(414,672,c)
);
}
);
width = 1062;
}
);
unicode = (81,113);
},
{
glyphname = R;
lastChange = "2023-04-21 01:54:46 +0000";
layers = (
{
layerId = m01;
shapes = (
{
attr = {
fillColor = (0,255);
};
closed = 1;
nodes = (
(941,640,l),
(996,676,o),
(1031,736,o),
(1031,802,c),
(1031,811,l),
(1031,915,o),
(946,1000,o),
(841,1000,c),
(733,1000,o),
(624,1000,o),
(516,1000,cs),
(417,1000,o),
(319,1000,o),
(220,1000,c),
(116,1000,o),
(31,915,o),
(31,811,c),
(31,708,o),
(31,604,o),
(31,501,cs),
(31,397,o),
(31,294,o),
(31,190,c),
(31,85,o),
(116,0,o),
(220,0,c),
(229,0,l),
(295,0,o),
(355,35,o),
(391,90,c),
(420,136,o),
(472,167,o),
(531,167,c),
(590,167,o),
(641,136,o),
(671,90,c),
(707,35,o),
(767,0,o),
(833,0,c),
(842,0,l),
(946,0,o),
(1031,85,o),
(1031,190,c),
(1031,199,l),
(1031,264,o),
(996,324,o),
(941,360,c),
(895,390,o),
(864,441,o),
(864,500,c),
(864,559,o),
(895,611,o),
(941,640,c)
);
},
{
attr = {
fillColor = (0,255);
};
closed = 1;
nodes = (
(450,555,l),
(385,555,o),
(333,607,o),
(333,672,c),
(333,736,o),
(385,789,o),
(450,789,c)
);
},
{
attr = {
fillColor = (0,255);
};
closed = 1;
nodes = (
(515,789,o),
(567,736,o),
(567,672,c),
(567,607,o),
(515,555,o),
(450,555,c),
(450,789,l)
);
}
);
width = 1062;
},
{
associatedMasterId = m01;
layerId = "50931EA0-C13B-4080-8789-B80C46453536";
shapes = (
{
attr = {
fillColor = (0,255);
};
closed = 1;
nodes = (
(941,640,l),
(996,676,o),
(1031,736,o),
(1031,802,c),
(1031,811,l),
(1031,915,o),
(946,1000,o),
(841,1000,c),
(220,1000,l),
(116,1000,o),
(31,915,o),
(31,811,c),
(31,190,l),
(31,85,o),
(116,0,o),
(220,0,c),
(229,0,l),
(295,0,o),
(355,35,o),
(391,90,c),
(420,136,o),
(472,167,o),
(531,167,c),
(590,167,o),
(641,136,o),
(671,90,c),
(707,35,o),
(767,0,o),
(833,0,c),
(842,0,l),
(946,0,o),
(1031,85,o),
(1031,190,c),
(1031,199,l),
(1031,264,o),
(996,324,o),
(941,360,c),
(895,390,o),
(864,441,o),
(864,500,c),
(864,559,o),
(895,611,o),
(941,640,c)
);
},
{
attr = {
fillColor = (0,255);
};
closed = 1;
nodes = (
(450,555,l),
(385,555,o),
(333,607,o),
(333,672,c),
(333,736,o),
(385,789,o),
(450,789,c)
);
},
{
attr = {
fillColor = (0,255);
};
closed = 1;
nodes = (
(515,789,o),
(567,736,o),
(567,672,c),
(567,607,o),
(515,555,o),
(450,555,c),
(450,789,l)
);
}
);
width = 1062;
},
{
layerId = "6B27D304-7F9E-45B8-9D41-04979570550F";
shapes = (
{
attr = {
fillColor = (0,255);
};
closed = 1;
nodes = (
(1031,499,l),
(1031,654,o),
(1031,745,o),
(1031,811,c),
(1031,811,l),
(1031,915,o),
(946,1000,o),
(841,1000,c),
(841,1000,o),
(652,1000,o),
(525,1000,cs),
(410,1000,o),
(220,1000,o),
(220,1000,c),
(116,1000,o),
(31,915,o),
(31,811,c),
(31,811,o),
(31,654,o),
(31,499,cs),
(31,346,o),
(31,189,o),
(31,189,c),
(31,79,o),
(116,0,o),
(220,0,c),
(220,0,l),
(220,0,o),
(410,0,o),
(531,0,c),
(531,0,o),
(531,0,o),
(531,0,c),
(531,0,o),
(531,0,o),
(531,0,c),
(652,0,o),
(841,0,o),
(841,0,c),
(841,0,l),
(946,0,o),
(1031,79,o),
(1031,189,c),
(1031,189,l),
(1031,189,o),
(1031,346,o),
(1031,499,c),
(1031,499,o),
(1031,499,o),
(1031,499,c),
(1031,499,o),
(1031,499,o),
(1031,499,c)
);
},
{
attr = {
fillColor = (0,255);
};
closed = 1;
nodes = (
(450,683,l),
(450,683,o),
(450,683,o),
(450,683,c),
(450,683,o),
(450,683,o),
(450,683,c)
);
},
{
attr = {
fillColor = (0,255);
};
closed = 1;
nodes = (
(450,683,o),
(450,683,o),
(450,683,c),
(450,683,o),
(450,683,o),
(450,683,c),
(450,683,l)
);
}
);
width = 1062;
},
{
associatedMasterId = "6B27D304-7F9E-45B8-9D41-04979570550F";
layerId = "73967A37-5287-4B84-AF26-59BDA39965BC";
shapes = (
{
attr = {
fillColor = (0,255);
};
closed = 1;
nodes = (
(941,640,l),
(996,676,o),
(1031,736,o),
(1031,802,c),
(1031,811,l),
(1031,915,o),
(946,1000,o),
(841,1000,c),
(220,1000,l),
(116,1000,o),
(31,915,o),
(31,811,c),
(31,190,l),
(31,85,o),
(116,0,o),
(220,0,c),
(229,0,l),
(295,0,o),
(355,35,o),
(391,90,c),
(420,136,o),
(472,167,o),
(531,167,c),
(590,167,o),
(641,136,o),
(671,90,c),
(707,35,o),
(767,0,o),
(833,0,c),
(842,0,l),
(946,0,o),
(1031,85,o),
(1031,190,c),
(1031,199,l),
(1031,264,o),
(996,324,o),
(941,360,c),
(895,390,o),
(864,441,o),
(864,500,c),
(864,559,o),
(895,611,o),
(941,640,c)
);
},
{
attr = {
fillColor = (0,255);
};
closed = 1;
nodes = (
(450,555,l),
(385,555,o),
(333,607,o),
(333,672,c),
(333,736,o),
(385,789,o),
(450,789,c)
);
},
{
attr = {
fillColor = (0,255);
};
closed = 1;
nodes = (
(515,789,o),
(567,736,o),
(567,672,c),
(567,607,o),
(515,555,o),
(450,555,c),
(450,789,l)
);
}
);
width = 1062;
},
{
layerId = "CD6C633B-B950-41C6-A48C-C51C49E64880";
shapes = (
{
attr = {
fillColor = (0,255);
};
closed = 1;
nodes = (
(864,499,l),
(864,654,o),
(1031,631,o),
(1031,811,c),
(1031,811,l),
(1031,915,o),
(946,1000,o),
(841,1000,c),
(621,1000,o),
(652,1163,o),
(525,1163,cs),
(410,1163,o),
(441,1000,o),
(220,1000,c),
(116,1000,o),
(31,915,o),
(31,811,c),
(31,631,o),
(198,654,o),
(198,499,cs),
(198,346,o),
(31,369,o),
(31,189,c),
(31,79,o),
(116,0,o),
(220,0,c),
(220,0,l),
(441,0,o),
(410,-163,o),
(531,-163,c),
(531,-163,o),
(531,-163,o),
(531,-163,c),
(531,-163,o),
(531,-163,o),
(531,-163,c),
(652,-163,o),
(621,0,o),
(841,0,c),
(841,0,l),
(946,0,o),
(1031,79,o),
(1031,189,c),
(1031,189,l),
(1031,369,o),
(864,346,o),
(864,499,c),
(864,499,o),
(864,499,o),
(864,499,c),
(864,499,o),
(864,499,o),
(864,499,c)
);
},
{
attr = {
fillColor = (0,255);
};
closed = 1;
nodes = (
(450,743,l),
(450,743,o),
(450,743,o),
(450,743,c),
(450,743,o),
(450,743,o),
(450,743,c)
);
},
{
attr = {
fillColor = (0,255);
};
closed = 1;
nodes = (
(450,743,o),
(450,743,o),
(450,743,c),
(450,743,o),
(450,743,o),
(450,743,c),
(450,743,l)
);
}
);
width = 1062;
},
{
associatedMasterId = "CD6C633B-B950-41C6-A48C-C51C49E64880";
layerId = "FEE6DAF7-5929-410A-8044-2C128B603120";
shapes = (
{
attr = {
fillColor = (0,255);
};
closed = 1;
nodes = (
(941,640,l),
(996,676,o),
(1031,736,o),
(1031,802,c),
(1031,811,l),
(1031,915,o),
(946,1000,o),
(841,1000,c),
(220,1000,l),
(116,1000,o),
(31,915,o),
(31,811,c),
(31,190,l),
(31,85,o),
(116,0,o),
(220,0,c),
(229,0,l),
(295,0,o),
(355,35,o),
(391,90,c),
(420,136,o),
(472,167,o),
(531,167,c),
(590,167,o),
(641,136,o),
(671,90,c),
(707,35,o),
(767,0,o),
(833,0,c),
(842,0,l),
(946,0,o),
(1031,85,o),
(1031,190,c),
(1031,199,l),
(1031,264,o),
(996,324,o),
(941,360,c),
(895,390,o),
(864,441,o),
(864,500,c),
(864,559,o),
(895,611,o),
(941,640,c)
);
},
{
attr = {
fillColor = (0,255);
};
closed = 1;
nodes = (
(450,555,l),
(385,555,o),
(333,607,o),
(333,672,c),
(333,736,o),
(385,789,o),
(450,789,c)
);
},
{
attr = {
fillColor = (0,255);
};
closed = 1;
nodes = (
(515,789,o),
(567,736,o),
(567,672,c),
(567,607,o),
(515,555,o),
(450,555,c),
(450,789,l)
);
}
);
width = 1062;
},
{
layerId = "58E5FC18-77BC-4E01-B365-5BD9F0D9FC65";
shapes = (
{
attr = {
fillColor = (0,255);
};
closed = 1;
nodes = (
(1031,499,l),
(1031,621,o),
(1031,745,o),
(1031,811,c),
(1031,811,l),
(1031,915,o),
(946,1000,o),
(841,1000,c),
(841,1000,o),
(684,1000,o),
(524,1000,cs),
(377,1000,o),
(220,1000,o),
(220,1000,c),
(116,1000,o),
(31,915,o),
(31,811,c),
(31,811,o),
(31,621,o),
(31,499,cs),
(31,379,o),
(31,189,o),
(31,189,c),
(31,79,o),
(116,0,o),
(220,0,c),
(220,0,l),
(220,0,o),
(377,0,o),
(531,0,c),
(531,0,o),
(531,0,o),
(531,0,c),
(531,0,o),
(531,0,o),
(531,0,c),
(684,0,o),
(841,0,o),
(841,0,c),
(841,0,l),
(946,0,o),
(1031,79,o),
(1031,189,c),
(1031,189,l),
(1031,189,o),
(1031,379,o),
(1031,499,c),
(1031,499,o),
(1031,499,o),
(1031,499,c),
(1031,499,o),
(1031,499,o),
(1031,499,c)
);
},
{
attr = {
fillColor = (0,255);
};
closed = 1;
nodes = (
(450,683,l),
(450,683,o),
(450,683,o),
(450,683,c),
(450,683,o),
(450,683,o),
(450,683,c)
);
},
{
attr = {
fillColor = (0,255);
};
closed = 1;
nodes = (
(450,683,o),
(450,683,o),
(450,683,c),
(450,683,o),
(450,683,o),
(450,683,c),
(450,683,l)
);
}
);
width = 1062;
},
{
associatedMasterId = "58E5FC18-77BC-4E01-B365-5BD9F0D9FC65";
layerId = "3C5FA8E1-E7D1-4914-A65D-55C0ABF59ABA";
shapes = (
{
attr = {
fillColor = (0,255);
};
closed = 1;
nodes = (
(941,640,l),
(996,676,o),
(1031,736,o),
(1031,802,c),
(1031,811,l),
(1031,915,o),
(946,1000,o),
(841,1000,c),
(220,1000,l),
(116,1000,o),
(31,915,o),
(31,811,c),
(31,190,l),
(31,85,o),
(116,0,o),
(220,0,c),
(229,0,l),
(295,0,o),
(355,35,o),
(391,90,c),
(420,136,o),
(472,167,o),
(531,167,c),
(590,167,o),
(641,136,o),
(671,90,c),
(707,35,o),
(767,0,o),
(833,0,c),
(842,0,l),
(946,0,o),
(1031,85,o),
(1031,190,c),
(1031,199,l),
(1031,264,o),
(996,324,o),
(941,360,c),
(895,390,o),
(864,441,o),
(864,500,c),
(864,559,o),
(895,611,o),
(941,640,c)
);
},
{
attr = {
fillColor = (0,255);
};
closed = 1;
nodes = (
(450,555,l),
(385,555,o),
(333,607,o),
(333,672,c),
(333,736,o),
(385,789,o),
(450,789,c)
);
},
{
attr = {
fillColor = (0,255);
};
closed = 1;
nodes = (
(515,789,o),
(567,736,o),
(567,672,c),
(567,607,o),
(515,555,o),
(450,555,c),
(450,789,l)
);
}
);
width = 1062;
},
{
background = {
shapes = (
{
closed = 1;
nodes = (
(1194,167,l),
(1194,833,l),
(-132,833,l),
(-132,167,l)
);
}
);
};
layerId = "DBF666E4-5604-41F1-9EC2-592A51C7F52D";
shapes = (
{
attr = {
fillColor = (0,255);
};
closed = 1;
nodes = (
(1194,499,l),
(1194,621,o),
(1031,596,o),
(1031,811,c),
(1031,811,l),
(1031,915,o),
(946,1000,o),
(841,1000,c),
(662,1000,o),
(684,833,o),
(524,833,cs),
(377,833,o),
(400,1000,o),
(220,1000,c),
(116,1000,o),
(31,915,o),
(31,811,c),
(31,596,o),
(-132,621,o),
(-132,499,cs),
(-132,379,o),
(31,410,o),
(31,189,c),
(31,79,o),
(116,0,o),
(220,0,c),
(220,0,l),
(400,0,o),
(377,167,o),
(531,167,c),
(531,167,o),
(531,167,o),
(531,167,c),
(531,167,o),
(531,167,o),
(531,167,c),
(684,167,o),
(662,0,o),
(841,0,c),
(841,0,l),
(946,0,o),
(1031,79,o),
(1031,189,c),
(1031,189,l),
(1031,410,o),
(1194,379,o),
(1194,499,c),
(1194,499,o),
(1194,499,o),
(1194,499,c),
(1194,499,o),
(1194,499,o),
(1194,499,c)
);
},
{
attr = {
fillColor = (0,255);
};
closed = 1;
nodes = (
(424,622,l),
(424,622,o),
(424,622,o),
(424,622,c),
(424,622,o),
(424,622,o),
(424,622,c)
);
},
{
attr = {
fillColor = (0,255);
};
closed = 1;
nodes = (
(424,622,o),
(424,622,o),
(424,622,c),
(424,622,o),
(424,622,o),
(424,622,c),
(424,622,l)
);
}
);
width = 1062;
},
{
associatedMasterId = "DBF666E4-5604-41F1-9EC2-592A51C7F52D";
layerId = "86B2E716-7471-4AA8-911E-006FB437258F";
shapes = (
{
attr = {
fillColor = (0,255);
};
closed = 1;
nodes = (
(941,640,l),
(996,676,o),
(1031,736,o),
(1031,802,c),
(1031,811,l),
(1031,915,o),
(946,1000,o),
(841,1000,c),
(220,1000,l),
(116,1000,o),
(31,915,o),
(31,811,c),
(31,190,l),
(31,85,o),
(116,0,o),
(220,0,c),
(229,0,l),
(295,0,o),
(355,35,o),
(391,90,c),
(420,136,o),
(472,167,o),
(531,167,c),
(590,167,o),
(641,136,o),
(671,90,c),
(707,35,o),
(767,0,o),
(833,0,c),
(842,0,l),
(946,0,o),
(1031,85,o),
(1031,190,c),
(1031,199,l),
(1031,264,o),
(996,324,o),
(941,360,c),
(895,390,o),
(864,441,o),
(864,500,c),
(864,559,o),
(895,611,o),
(941,640,c)
);
},
{
attr = {
fillColor = (0,255);
};
closed = 1;
nodes = (
(450,555,l),
(385,555,o),
(333,607,o),
(333,672,c),
(333,736,o),
(385,789,o),
(450,789,c)
);
},
{
attr = {
fillColor = (0,255);
};
closed = 1;
nodes = (
(515,789,o),
(567,736,o),
(567,672,c),
(567,607,o),
(515,555,o),
(450,555,c),
(450,789,l)
);
}
);
width = 1062;
}
);
unicode = (82,114);
},
{
glyphname = S;
lastChange = "2023-04-21 07:26:03 +0000";
layers = (
{
layerId = m01;
shapes = (
{
attr = {
fillColor = (0,255);
};
closed = 1;
nodes = (
(1031,344,o),
(1031,344,o),
(1031,344,cs),
(1031,132,o),
(900,0,o),
(737,0,cs),
(647,0,o),
(557,0,o),
(467,0,cs),
(369,0,o),
(270,0,o),
(172,0,cs),
(95,0,o),
(31,63,o),
(31,139,cs),
(31,231,o),
(101,275,o),
(168,275,cs),
(342,275,ls),
(366,275,o),
(387,291,o),
(387,321,cs),
(387,350,o),
(366,363,o),
(342,363,cs),
(311,363,ls),
(114,363,o),
(31,530,o),
(31,694,cs),
(31,849,o),
(144,1000,o),
(331,1000,cs),
(420,1000,o),
(509,1000,o),
(598,1000,cs),
(697,1000,o),
(795,1000,o),
(894,1000,cs),
(969,1000,o),
(1031,947,o),
(1031,860,cs),
(1031,772,o),
(961,726,o),
(894,726,cs),
(741,726,ls),
(732,726,o),
(698,720,o),
(698,683,cs),
(698,646,o),
(732,637,o),
(741,637,cs),
(786,637,ls),
(921,637,o),
(1031,527,o),
(1031,344,cs)
);
}
);
width = 1062;
},
{
associatedMasterId = m01;
layerId = "50931EA0-C13B-4080-8789-B80C46453536";
shapes = (
{
attr = {
fillColor = (0,255);
};
closed = 1;
nodes = (
(1031,392,l),
(1031,294,l),
(1031,131,o),
(900,0,o),
(737,0,c),
(172,0,l),
(95,0,o),
(30,63,o),
(31,139,c),
(31,147,o),
(32,154,o),
(33,161,c),
(44,225,o),
(101,274,o),
(168,274,c),
(480,274,l),
(504,274,o),
(523,293,o),
(523,317,c),
(523,320,l),
(523,344,o),
(504,363,o),
(480,363,c),
(311,363,l),
(156,363,o),
(31,488,o),
(31,643,c),
(31,643,o),
(33,694,o),
(33,703,c),
(33,834,o),
(108,1000,o),
(331,1000,c),
(894,1000,l),
(970,1000,o),
(1031,939,o),
(1031,863,c),
(1031,855,o),
(1030,847,o),
(1029,839,c),
(1018,775,o),
(961,726,o),
(894,726,c),
(628,726,l),
(619,726,o),
(612,723,o),
(605,719,c),
(593,712,o),
(585,698,o),
(585,683,c),
(585,680,l),
(585,665,o),
(593,651,o),
(605,644,c),
(612,640,o),
(619,637,o),
(628,637,c),
(786,637,l),
(921,637,o),
(1031,527,o),
(1031,392,c)
);
}
);
width = 1062;
},
{
layerId = "6B27D304-7F9E-45B8-9D41-04979570550F";
shapes = (
{
attr = {
fillColor = (0,255);
};
closed = 1;
nodes = (
(1031,346,o),
(1031,214,o),
(1031,189,c),
(1031,85,o),
(947,0,o),
(842,0,c),
(813,0,o),
(652,0,o),
(531,0,cs),
(410,0,o),
(248,0,o),
(221,0,c),
(116,0,o),
(31,85,o),
(31,189,c),
(31,214,o),
(31,346,o),
(31,500,c),
(31,500,l),
(31,500,o),
(31,500,o),
(31,500,c),
(31,500,o),
(31,500,o),
(31,500,c),
(31,500,l),
(31,654,o),
(31,788,o),
(31,811,cs),
(31,915,o),
(116,1000,o),
(221,1000,c),
(247,1000,o),
(410,1000,o),
(531,1000,cs),
(652,1000,o),
(812,1000,o),
(842,1000,c),
(947,1000,o),
(1031,915,o),
(1031,811,c),
(1031,788,o),
(1031,654,o),
(1031,500,c),
(1031,500,l),
(1031,500,o),
(1031,500,o),
(1031,500,c),
(1031,500,o),
(1031,500,o),
(1031,500,c),
(1031,500,l),
(1031,500,o),
(1031,500,o),
(1031,500,c)
);
}
);
width = 1062;
},
{
associatedMasterId = "6B27D304-7F9E-45B8-9D41-04979570550F";
layerId = "2803C4FD-8C35-4613-951B-C8C9AAECC854";
shapes = (
{
attr = {
fillColor = (0,255);
};
closed = 1;
nodes = (
(1031,392,l),
(1031,294,l),
(1031,131,o),
(900,0,o),
(737,0,c),
(172,0,l),
(95,0,o),
(30,63,o),
(31,139,c),
(31,147,o),
(32,154,o),
(33,161,c),
(44,225,o),
(101,274,o),
(168,274,c),
(480,274,l),
(504,274,o),
(523,293,o),
(523,317,c),
(523,320,l),
(523,344,o),
(504,363,o),
(480,363,c),
(311,363,l),
(156,363,o),
(31,488,o),
(31,643,c),
(31,643,o),
(33,694,o),
(33,703,c),
(33,834,o),
(108,1000,o),
(331,1000,c),
(894,1000,l),
(970,1000,o),
(1031,939,o),
(1031,863,c),
(1031,855,o),
(1030,847,o),
(1029,839,c),
(1018,775,o),
(961,726,o),
(894,726,c),
(628,726,l),
(619,726,o),
(612,723,o),
(605,719,c),
(593,712,o),
(585,698,o),
(585,683,c),
(585,680,l),
(585,665,o),
(593,651,o),
(605,644,c),
(612,640,o),
(619,637,o),
(628,637,c),
(786,637,l),
(921,637,o),
(1031,527,o),
(1031,392,c)
);
}
);
width = 1062;
},
{
layerId = "CD6C633B-B950-41C6-A48C-C51C49E64880";
shapes = (
{
attr = {
fillColor = (0,255);
};
closed = 1;
nodes = (
(864,346,o),
(1031,410,o),
(1031,189,c),
(1031,85,o),
(947,0,o),
(842,0,c),
(662,0,o),
(652,-163,o),
(531,-163,cs),
(410,-163,o),
(400,0,o),
(221,0,c),
(116,0,o),
(31,85,o),
(31,189,c),
(31,410,o),
(198,346,o),
(198,500,c),
(198,500,l),
(198,500,o),
(198,500,o),
(198,500,c),
(198,500,o),
(198,500,o),
(198,500,c),
(198,500,l),
(198,654,o),
(31,596,o),
(31,811,cs),
(31,915,o),
(116,1000,o),
(221,1000,c),
(400,1000,o),
(410,1163,o),
(531,1163,cs),
(652,1163,o),
(662,1000,o),
(842,1000,c),
(947,1000,o),
(1031,915,o),
(1031,811,c),
(1031,596,o),
(864,654,o),
(864,500,c),
(864,500,l),
(864,500,o),
(864,500,o),
(864,500,c),
(864,500,o),
(864,500,o),
(864,500,c),
(864,500,l),
(864,500,o),
(864,500,o),
(864,500,c)
);
}
);
width = 1062;
},
{
associatedMasterId = "CD6C633B-B950-41C6-A48C-C51C49E64880";
layerId = "9D6483C0-7084-4672-A61D-1FE12D6627C1";
shapes = (
{
attr = {
fillColor = (0,255);
};
closed = 1;
nodes = (
(1031,392,l),
(1031,294,l),
(1031,131,o),
(900,0,o),
(737,0,c),
(172,0,l),
(95,0,o),
(30,63,o),
(31,139,c),
(31,147,o),
(32,154,o),
(33,161,c),
(44,225,o),
(101,274,o),
(168,274,c),
(480,274,l),
(504,274,o),
(523,293,o),
(523,317,c),
(523,320,l),
(523,344,o),
(504,363,o),
(480,363,c),
(311,363,l),
(156,363,o),
(31,488,o),
(31,643,c),
(31,643,o),
(33,694,o),
(33,703,c),
(33,834,o),
(108,1000,o),
(331,1000,c),
(894,1000,l),
(970,1000,o),
(1031,939,o),
(1031,863,c),
(1031,855,o),
(1030,847,o),
(1029,839,c),
(1018,775,o),
(961,726,o),
(894,726,c),
(628,726,l),
(619,726,o),
(612,723,o),
(605,719,c),
(593,712,o),
(585,698,o),
(585,683,c),
(585,680,l),
(585,665,o),
(593,651,o),
(605,644,c),
(612,640,o),
(619,637,o),
(628,637,c),
(786,637,l),
(921,637,o),
(1031,527,o),
(1031,392,c)
);
}
);
width = 1062;
},
{
layerId = "58E5FC18-77BC-4E01-B365-5BD9F0D9FC65";
shapes = (
{
attr = {
fillColor = (0,255);
};
closed = 1;
nodes = (
(1031,379,o),
(1031,214,o),
(1031,189,c),
(1031,85,o),
(947,0,o),
(842,0,c),
(813,0,o),
(685,0,o),
(531,0,cs),
(377,0,o),
(248,0,o),
(221,0,c),
(116,0,o),
(31,85,o),
(31,189,c),
(31,214,o),
(31,379,o),
(31,500,c),
(31,500,l),
(31,500,o),
(31,500,o),
(31,500,c),
(31,500,o),
(31,500,o),
(31,500,c),
(31,500,l),
(31,621,o),
(31,788,o),
(31,811,cs),
(31,915,o),
(116,1000,o),
(221,1000,c),
(247,1000,o),
(377,1000,o),
(531,1000,cs),
(685,1000,o),
(812,1000,o),
(842,1000,c),
(947,1000,o),
(1031,915,o),
(1031,811,c),
(1031,788,o),
(1031,621,o),
(1031,500,c),
(1031,500,l),
(1031,500,o),
(1031,500,o),
(1031,500,c),
(1031,500,o),
(1031,500,o),
(1031,500,c),
(1031,500,l),
(1031,500,o),
(1031,500,o),
(1031,500,c)
);
}
);
width = 1062;
},
{
associatedMasterId = "58E5FC18-77BC-4E01-B365-5BD9F0D9FC65";
layerId = "B7B96D00-A105-461C-B164-460B89C40086";
shapes = (
{
attr = {
fillColor = (0,255);
};
closed = 1;
nodes = (
(1031,392,l),
(1031,294,l),
(1031,131,o),
(900,0,o),
(737,0,c),
(172,0,l),
(95,0,o),
(30,63,o),
(31,139,c),
(31,147,o),
(32,154,o),
(33,161,c),
(44,225,o),
(101,274,o),
(168,274,c),
(480,274,l),
(504,274,o),
(523,293,o),
(523,317,c),
(523,320,l),
(523,344,o),
(504,363,o),
(480,363,c),
(311,363,l),
(156,363,o),
(31,488,o),
(31,643,c),
(31,643,o),
(33,694,o),
(33,703,c),
(33,834,o),
(108,1000,o),
(331,1000,c),
(894,1000,l),
(970,1000,o),
(1031,939,o),
(1031,863,c),
(1031,855,o),
(1030,847,o),
(1029,839,c),
(1018,775,o),
(961,726,o),
(894,726,c),
(628,726,l),
(619,726,o),
(612,723,o),
(605,719,c),
(593,712,o),
(585,698,o),
(585,683,c),
(585,680,l),
(585,665,o),
(593,651,o),
(605,644,c),
(612,640,o),
(619,637,o),
(628,637,c),
(786,637,l),
(921,637,o),
(1031,527,o),
(1031,392,c)
);
}
);
width = 1062;
},
{
background = {
shapes = (
{
closed = 1;
nodes = (
(1194,167,l),
(1194,833,l),
(-132,833,l),
(-132,167,l)
);
}
);
};
layerId = "DBF666E4-5604-41F1-9EC2-592A51C7F52D";
shapes = (
{
attr = {
fillColor = (0,255);
};
closed = 1;
nodes = (
(1194,379,o),
(1031,369,o),
(1031,189,c),
(1031,85,o),
(947,0,o),
(842,0,c),
(622,0,o),
(685,167,o),
(531,167,cs),
(377,167,o),
(442,0,o),
(221,0,c),
(116,0,o),
(31,85,o),
(31,189,c),
(31,369,o),
(-132,379,o),
(-132,500,c),
(-132,500,l),
(-132,500,o),
(-132,500,o),
(-132,500,c),
(-132,500,o),
(-132,500,o),
(-132,500,c),
(-132,500,l),
(-132,621,o),
(31,631,o),
(31,811,cs),
(31,915,o),
(116,1000,o),
(221,1000,c),
(441,1000,o),
(377,833,o),
(531,833,cs),
(685,833,o),
(621,1000,o),
(842,1000,c),
(947,1000,o),
(1031,915,o),
(1031,811,c),
(1031,631,o),
(1194,621,o),
(1194,500,c),
(1194,500,l),
(1194,500,o),
(1194,500,o),
(1194,500,c),
(1194,500,o),
(1194,500,o),
(1194,500,c),
(1194,500,l),
(1194,500,o),
(1194,500,o),
(1194,500,c)
);
}
);
width = 1062;
},
{
associatedMasterId = "DBF666E4-5604-41F1-9EC2-592A51C7F52D";
layerId = "040F6ED4-F178-4226-AA40-4AD4FA98B7F4";
shapes = (
{
attr = {
fillColor = (0,255);
};
closed = 1;
nodes = (
(1031,392,l),
(1031,294,l),
(1031,131,o),
(900,0,o),
(737,0,c),
(172,0,l),
(95,0,o),
(30,63,o),
(31,139,c),
(31,147,o),
(32,154,o),
(33,161,c),
(44,225,o),
(101,274,o),
(168,274,c),
(480,274,l),
(504,274,o),
(523,293,o),
(523,317,c),
(523,320,l),
(523,344,o),
(504,363,o),
(480,363,c),
(311,363,l),
(156,363,o),
(31,488,o),
(31,643,c),
(31,643,o),
(33,694,o),
(33,703,c),
(33,834,o),
(108,1000,o),
(331,1000,c),
(894,1000,l),
(970,1000,o),
(1031,939,o),
(1031,863,c),
(1031,855,o),
(1030,847,o),
(1029,839,c),
(1018,775,o),
(961,726,o),
(894,726,c),
(628,726,l),
(619,726,o),
(612,723,o),
(605,719,c),
(593,712,o),
(585,698,o),
(585,683,c),
(585,680,l),
(585,665,o),
(593,651,o),
(605,644,c),
(612,640,o),
(619,637,o),
(628,637,c),
(786,637,l),
(921,637,o),
(1031,527,o),
(1031,392,c)
);
}
);
width = 1062;
}
);
unicode = (83,115);
},
{
glyphname = T;
lastChange = "2023-04-21 01:54:46 +0000";
layers = (
{
layerId = m01;
shapes = (
{
attr = {
fillColor = (0,255);
};
closed = 1;
nodes = (
(755,1000,o),
(643,1000,o),
(531,1000,c),
(531,1000,o),
(531,1000,o),
(531,1000,c),
(419,1000,o),
(307,1000,o),
(195,1000,c),
(104,1000,o),
(31,927,o),
(31,836,c),
(31,836,l),
(31,745,o),
(104,672,o),
(195,672,c),
(195,672,l),
(245,672,o),
(286,631,o),
(286,581,c),
(286,469,o),
(286,357,o),
(286,245,c),
(286,110,o),
(396,0,o),
(531,0,c),
(531,0,l),
(666,0,o),
(776,110,o),
(776,245,c),
(776,357,o),
(776,469,o),
(776,581,c),
(776,631,o),
(817,672,o),
(867,672,c),
(867,672,o),
(867,672,o),
(867,672,c),
(958,672,o),
(1031,745,o),
(1031,836,c),
(1031,836,l),
(1031,927,o),
(958,1000,o),
(867,1000,c)
);
}
);
width = 1062;
},
{
associatedMasterId = m01;
layerId = "50931EA0-C13B-4080-8789-B80C46453536";
shapes = (
{
attr = {
fillColor = (0,255);
};
closed = 1;
nodes = (
(531,1000,l),
(531,1000,o),
(531,1000,o),
(531,1000,c),
(195,1000,l),
(104,1000,o),
(31,927,o),
(31,836,c),
(31,836,l),
(31,745,o),
(104,672,o),
(195,672,c),
(195,672,l),
(245,672,o),
(286,631,o),
(286,581,c),
(286,245,l),
(286,110,o),
(396,0,o),
(531,0,c),
(531,0,l),
(666,0,o),
(776,110,o),
(776,245,c),
(776,581,l),
(776,631,o),
(817,672,o),
(867,672,c),
(867,672,l),
(958,672,o),
(1031,745,o),
(1031,836,c),
(1031,836,l),
(1031,927,o),
(958,1000,o),
(867,1000,c)
);
}
);
width = 1062;
},
{
layerId = "6B27D304-7F9E-45B8-9D41-04979570550F";
shapes = (
{
attr = {
fillColor = (0,255);
};
closed = 1;
nodes = (
(841,1000,o),
(652,1000,o),
(531,1000,c),
(531,1000,o),
(531,1000,o),
(531,1000,c),
(410,1000,o),
(220,1000,o),
(220,1000,c),
(116,1000,o),
(31,915,o),
(31,811,c),
(31,811,l),
(31,811,o),
(31,654,o),
(31,500,c),
(31,500,l),
(31,500,o),
(31,500,o),
(31,500,c),
(31,346,o),
(31,189,o),
(31,189,c),
(31,85,o),
(116,0,o),
(220,0,c),
(220,0,l),
(220,0,o),
(410,0,o),
(531,0,cs),
(652,0,o),
(841,0,o),
(841,0,c),
(975,0,o),
(1031,85,o),
(1031,189,c),
(1031,189,o),
(1031,346,o),
(1031,500,c),
(1031,638,o),
(1031,811,o),
(1031,811,c),
(1031,811,l),
(1031,915,o),
(946,1000,o),
(841,1000,c)
);
}
);
width = 1062;
},
{
associatedMasterId = "6B27D304-7F9E-45B8-9D41-04979570550F";
layerId = "34B567FD-B6F2-4391-B830-DD7564E0720D";
shapes = (
{
attr = {
fillColor = (0,255);
};
closed = 1;
nodes = (
(531,1000,l),
(531,1000,o),
(531,1000,o),
(531,1000,c),
(195,1000,l),
(104,1000,o),
(31,927,o),
(31,836,c),
(31,836,l),
(31,745,o),
(104,672,o),
(195,672,c),
(195,672,l),
(245,672,o),
(286,631,o),
(286,581,c),
(286,245,l),
(286,110,o),
(396,0,o),
(531,0,c),
(531,0,l),
(666,0,o),
(776,110,o),
(776,245,c),
(776,581,l),
(776,631,o),
(817,672,o),
(867,672,c),
(867,672,l),
(958,672,o),
(1031,745,o),
(1031,836,c),
(1031,836,l),
(1031,927,o),
(958,1000,o),
(867,1000,c)
);
}
);
width = 1062;
},
{
layerId = "CD6C633B-B950-41C6-A48C-C51C49E64880";
shapes = (
{
attr = {
fillColor = (0,255);
};
closed = 1;
nodes = (
(621,1000,o),
(652,1163,o),
(531,1163,c),
(531,1163,o),
(531,1163,o),
(531,1163,c),
(410,1163,o),
(441,1000,o),
(220,1000,c),
(116,1000,o),
(31,915,o),
(31,811,c),
(31,811,l),
(31,631,o),
(198,654,o),
(198,500,c),
(198,500,l),
(198,500,o),
(198,500,o),
(198,500,c),
(198,346,o),
(31,369,o),
(31,189,c),
(31,85,o),
(116,0,o),
(220,0,c),
(220,0,l),
(441,0,o),
(410,-163,o),
(531,-163,cs),
(652,-163,o),
(621,0,o),
(841,0,c),
(975,0,o),
(1031,85,o),
(1031,189,c),
(1031,369,o),
(864,346,o),
(864,500,c),
(864,638,o),
(1031,631,o),
(1031,811,c),
(1031,811,l),
(1031,915,o),
(946,1000,o),
(841,1000,c)
);
}
);
width = 1062;
},
{
associatedMasterId = "CD6C633B-B950-41C6-A48C-C51C49E64880";
layerId = "53C00EB8-ABAE-4BCF-BC3C-9E8FD7CC945D";
shapes = (
{
attr = {
fillColor = (0,255);
};
closed = 1;
nodes = (
(531,1000,l),
(531,1000,o),
(531,1000,o),
(531,1000,c),
(195,1000,l),
(104,1000,o),
(31,927,o),
(31,836,c),
(31,836,l),
(31,745,o),
(104,672,o),
(195,672,c),
(195,672,l),
(245,672,o),
(286,631,o),
(286,581,c),
(286,245,l),
(286,110,o),
(396,0,o),
(531,0,c),
(531,0,l),
(666,0,o),
(776,110,o),
(776,245,c),
(776,581,l),
(776,631,o),
(817,672,o),
(867,672,c),
(867,672,l),
(958,672,o),
(1031,745,o),
(1031,836,c),
(1031,836,l),
(1031,927,o),
(958,1000,o),
(867,1000,c)
);
}
);
width = 1062;
},
{
layerId = "58E5FC18-77BC-4E01-B365-5BD9F0D9FC65";
shapes = (
{
attr = {
fillColor = (0,255);
};
closed = 1;
nodes = (
(841,1000,o),
(684,1000,o),
(530,1000,c),
(530,1000,o),
(530,1000,o),
(530,1000,c),
(376,1000,o),
(220,1000,o),
(220,1000,c),
(116,1000,o),
(31,915,o),
(31,811,c),
(31,811,l),
(31,811,o),
(31,621,o),
(31,500,c),
(31,500,l),
(31,500,o),
(31,500,o),
(31,500,c),
(31,379,o),
(31,189,o),
(31,189,c),
(31,85,o),
(116,0,o),
(220,0,c),
(220,0,l),
(220,0,o),
(377,0,o),
(530,0,cs),
(684,0,o),
(841,0,o),
(841,0,c),
(975,0,o),
(1031,85,o),
(1031,189,c),
(1031,189,o),
(1031,379,o),
(1031,500,c),
(1031,608,o),
(1031,811,o),
(1031,811,c),
(1031,811,l),
(1031,915,o),
(946,1000,o),
(841,1000,c)
);
}
);
width = 1062;
},
{
associatedMasterId = "58E5FC18-77BC-4E01-B365-5BD9F0D9FC65";
layerId = "5D2A00D7-37E6-4163-98EA-D48F0416D445";
shapes = (
{
attr = {
fillColor = (0,255);
};
closed = 1;
nodes = (
(531,1000,l),
(531,1000,o),
(531,1000,o),
(531,1000,c),
(195,1000,l),
(104,1000,o),
(31,927,o),
(31,836,c),
(31,836,l),
(31,745,o),
(104,672,o),
(195,672,c),
(195,672,l),
(245,672,o),
(286,631,o),
(286,581,c),
(286,245,l),
(286,110,o),
(396,0,o),
(531,0,c),
(531,0,l),
(666,0,o),
(776,110,o),
(776,245,c),
(776,581,l),
(776,631,o),
(817,672,o),
(867,672,c),
(867,672,l),
(958,672,o),
(1031,745,o),
(1031,836,c),
(1031,836,l),
(1031,927,o),
(958,1000,o),
(867,1000,c)
);
}
);
width = 1062;
},
{
background = {
shapes = (
{
closed = 1;
nodes = (
(1194,167,l),
(1194,833,l),
(-132,833,l),
(-132,167,l)
);
}
);
};
layerId = "DBF666E4-5604-41F1-9EC2-592A51C7F52D";
shapes = (
{
attr = {
fillColor = (0,255);
};
closed = 1;
nodes = (
(662,1000,o),
(684,833,o),
(530,833,c),
(530,833,o),
(530,833,o),
(530,833,c),
(376,833,o),
(400,1000,o),
(220,1000,c),
(116,1000,o),
(31,915,o),
(31,811,c),
(31,811,l),
(31,596,o),
(-132,621,o),
(-133,500,c),
(-133,500,l),
(-133,500,o),
(-133,500,o),
(-133,500,c),
(-132,379,o),
(31,410,o),
(31,189,c),
(31,85,o),
(116,0,o),
(220,0,c),
(220,0,l),
(400,0,o),
(377,167,o),
(530,167,cs),
(684,167,o),
(662,0,o),
(841,0,c),
(975,0,o),
(1031,85,o),
(1031,189,c),
(1031,410,o),
(1194,379,o),
(1194,500,c),
(1194,608,o),
(1031,596,o),
(1031,811,c),
(1031,811,l),
(1031,915,o),
(946,1000,o),
(841,1000,c)
);
}
);
width = 1062;
},
{
associatedMasterId = "DBF666E4-5604-41F1-9EC2-592A51C7F52D";
layerId = "0816C44A-7A51-4BF5-9F3C-4E62B0072158";
shapes = (
{
attr = {
fillColor = (0,255);
};
closed = 1;
nodes = (
(531,1000,l),
(531,1000,o),
(531,1000,o),
(531,1000,c),
(195,1000,l),
(104,1000,o),
(31,927,o),
(31,836,c),
(31,836,l),
(31,745,o),
(104,672,o),
(195,672,c),
(195,672,l),
(245,672,o),
(286,631,o),
(286,581,c),
(286,245,l),
(286,110,o),
(396,0,o),
(531,0,c),
(531,0,l),
(666,0,o),
(776,110,o),
(776,245,c),
(776,581,l),
(776,631,o),
(817,672,o),
(867,672,c),
(867,672,l),
(958,672,o),
(1031,745,o),
(1031,836,c),
(1031,836,l),
(1031,927,o),
(958,1000,o),
(867,1000,c)
);
}
);
width = 1062;
}
);
unicode = (84,116);
},
{
glyphname = U;
lastChange = "2023-04-21 01:54:46 +0000";
layers = (
{
layerId = m01;
shapes = (
{
attr = {
fillColor = (0,255);
};
closed = 1;
nodes = (
(319,1,o),
(419,1,o),
(518,1,cs),
(626,1,o),
(734,1,o),
(842,1,c),
(946,1,o),
(1031,85,o),
(1031,190,c),
(1031,339,o),
(1031,488,o),
(1031,637,c),
(1031,638,o),
(1031,639,o),
(1031,640,c),
(1031,697,o),
(1031,755,o),
(1031,812,c),
(1031,916,o),
(947,1000,o),
(843,1000,c),
(843,1000,l),
(739,1000,o),
(655,916,o),
(655,812,c),
(655,512,l),
(655,443,o),
(600,388,o),
(531,388,c),
(462,388,o),
(407,443,o),
(407,512,c),
(407,812,l),
(407,916,o),
(323,1000,o),
(219,1000,c),
(219,1000,l),
(115,1000,o),
(31,916,o),
(31,812,c),
(31,766,o),
(31,719,o),
(31,673,c),
(31,673,o),
(31,640,o),
(31,640,c),
(31,490,o),
(31,340,o),
(31,190,c),
(31,85,o),
(116,1,o),
(220,1,c)
);
}
);
width = 1062;
},
{
associatedMasterId = m01;
layerId = "50931EA0-C13B-4080-8789-B80C46453536";
shapes = (
{
attr = {
fillColor = (0,255);
};
closed = 1;
nodes = (
(842,1,l),
(946,1,o),
(1031,85,o),
(1031,190,c),
(1031,637,l),
(1031,638,o),
(1031,639,o),
(1031,640,c),
(1031,812,l),
(1031,916,o),
(947,1000,o),
(843,1000,c),
(843,1000,l),
(739,1000,o),
(655,916,o),
(655,812,c),
(655,512,l),
(655,443,o),
(600,388,o),
(531,388,c),
(462,388,o),
(407,443,o),
(407,512,c),
(407,812,l),
(407,916,o),
(323,1000,o),
(219,1000,c),
(219,1000,l),
(115,1000,o),
(31,916,o),
(31,812,c),
(31,673,l),
(31,673,o),
(31,640,o),
(31,640,c),
(31,190,l),
(31,85,o),
(116,1,o),
(220,1,c)
);
}
);
width = 1062;
},
{
background = {
shapes = (
{
attr = {
fillColor = (0,255);
};
closed = 1;
nodes = (
(1031,189,l),
(1031,85,o),
(947,0,o),
(842,0,c),
(221,0,l),
(116,0,o),
(31,85,o),
(31,189,c),
(31,811,l),
(31,915,o),
(116,1000,o),
(221,1000,c),
(842,1000,l),
(947,1000,o),
(1031,915,o),
(1031,811,c)
);
}
);
};
layerId = "6B27D304-7F9E-45B8-9D41-04979570550F";
shapes = (
{
attr = {
fillColor = (0,255);
};
closed = 1;
nodes = (
(220,0,o),
(410,0,o),
(531,0,cs),
(652,0,o),
(841,0,o),
(841,0,c),
(946,0,o),
(1031,85,o),
(1031,190,c),
(1031,190,o),
(1031,346,o),
(1031,500,c),
(1031,500,o),
(1031,500,o),
(1031,500,c),
(1031,654,o),
(1031,812,o),
(1031,812,c),
(1031,916,o),
(946,1000,o),
(841,1000,c),
(841,1000,l),
(841,1000,o),
(652,1000,o),
(531,1000,c),
(531,1000,l),
(531,1000,o),
(531,1000,o),
(531,1000,c),
(531,1000,o),
(531,1000,o),
(531,1000,c),
(531,1000,l),
(410,1000,o),
(220,1000,o),
(220,1000,c),
(220,1000,l),
(116,1000,o),
(31,916,o),
(31,812,c),
(31,812,o),
(31,654,o),
(31,500,c),
(31,500,o),
(31,500,o),
(31,500,c),
(31,346,o),
(31,190,o),
(31,190,c),
(31,85,o),
(116,0,o),
(220,0,c)
);
}
);
width = 1062;
},
{
associatedMasterId = "6B27D304-7F9E-45B8-9D41-04979570550F";
layerId = "435DDCE2-078F-4211-90EA-E2EDD9289B03";
shapes = (
{
attr = {
fillColor = (0,255);
};
closed = 1;
nodes = (
(842,1,l),
(946,1,o),
(1031,85,o),
(1031,190,c),
(1031,637,l),
(1031,638,o),
(1031,639,o),
(1031,640,c),
(1031,812,l),
(1031,916,o),
(947,1000,o),
(843,1000,c),
(843,1000,l),
(739,1000,o),
(655,916,o),
(655,812,c),
(655,512,l),
(655,443,o),
(600,388,o),
(531,388,c),
(462,388,o),
(407,443,o),
(407,512,c),
(407,812,l),
(407,916,o),
(323,1000,o),
(219,1000,c),
(219,1000,l),
(115,1000,o),
(31,916,o),
(31,812,c),
(31,673,l),
(31,673,o),
(31,640,o),
(31,640,c),
(31,190,l),
(31,85,o),
(116,1,o),
(220,1,c)
);
}
);
width = 1062;
},
{
background = {
shapes = (
{
attr = {
fillColor = (0,255);
};
closed = 1;
nodes = (
(1031,189,l),
(1031,85,o),
(947,0,o),
(842,0,c),
(221,0,l),
(116,0,o),
(31,85,o),
(31,189,c),
(31,811,l),
(31,915,o),
(116,1000,o),
(221,1000,c),
(842,1000,l),
(947,1000,o),
(1031,915,o),
(1031,811,c)
);
}
);
};
layerId = "CD6C633B-B950-41C6-A48C-C51C49E64880";
shapes = (
{
attr = {
fillColor = (0,255);
};
closed = 1;
nodes = (
(441,0,o),
(410,-163,o),
(531,-163,cs),
(652,-163,o),
(621,0,o),
(841,0,c),
(946,0,o),
(1031,85,o),
(1031,190,c),
(1031,369,o),
(864,340,o),
(864,500,c),
(864,500,o),
(864,500,o),
(864,500,c),
(864,654,o),
(1031,631,o),
(1031,812,c),
(1031,916,o),
(946,1000,o),
(841,1000,c),
(841,1000,l),
(621,1000,o),
(652,1163,o),
(531,1163,c),
(531,1163,l),
(531,1163,o),
(531,1163,o),
(531,1163,c),
(531,1163,o),
(531,1163,o),
(531,1163,c),
(531,1163,l),
(410,1163,o),
(441,1000,o),
(220,1000,c),
(220,1000,l),
(116,1000,o),
(31,916,o),
(31,812,c),
(31,631,o),
(198,654,o),
(198,500,c),
(198,500,o),
(198,500,o),
(198,500,c),
(198,353,o),
(31,369,o),
(31,190,c),
(31,85,o),
(116,0,o),
(220,0,c)
);
}
);
width = 1062;
},
{
associatedMasterId = "CD6C633B-B950-41C6-A48C-C51C49E64880";
layerId = "6B08F424-65C7-4B59-8A2C-D4CB1ECD92D6";
shapes = (
{
attr = {
fillColor = (0,255);
};
closed = 1;
nodes = (
(842,1,l),
(946,1,o),
(1031,85,o),
(1031,190,c),
(1031,637,l),
(1031,638,o),
(1031,639,o),
(1031,640,c),
(1031,812,l),
(1031,916,o),
(947,1000,o),
(843,1000,c),
(843,1000,l),
(739,1000,o),
(655,916,o),
(655,812,c),
(655,512,l),
(655,443,o),
(600,388,o),
(531,388,c),
(462,388,o),
(407,443,o),
(407,512,c),
(407,812,l),
(407,916,o),
(323,1000,o),
(219,1000,c),
(219,1000,l),
(115,1000,o),
(31,916,o),
(31,812,c),
(31,673,l),
(31,673,o),
(31,640,o),
(31,640,c),
(31,190,l),
(31,85,o),
(116,1,o),
(220,1,c)
);
}
);
width = 1062;
},
{
background = {
shapes = (
{
attr = {
fillColor = (0,255);
};
closed = 1;
nodes = (
(1031,189,l),
(1031,85,o),
(947,0,o),
(842,0,c),
(221,0,l),
(116,0,o),
(31,85,o),
(31,189,c),
(31,811,l),
(31,915,o),
(116,1000,o),
(221,1000,c),
(842,1000,l),
(947,1000,o),
(1031,915,o),
(1031,811,c)
);
}
);
};
layerId = "58E5FC18-77BC-4E01-B365-5BD9F0D9FC65";
shapes = (
{
attr = {
fillColor = (0,255);
};
closed = 1;
nodes = (
(220,0,o),
(377,0,o),
(530,0,cs),
(685,0,o),
(841,0,o),
(841,0,c),
(946,0,o),
(1031,85,o),
(1031,190,c),
(1031,190,o),
(1031,379,o),
(1031,500,c),
(1031,500,o),
(1031,500,o),
(1031,500,c),
(1031,621,o),
(1031,812,o),
(1031,812,c),
(1031,916,o),
(946,1000,o),
(841,1000,c),
(841,1000,l),
(841,1000,o),
(685,1000,o),
(530,1000,c),
(530,1000,l),
(530,1000,o),
(530,1000,o),
(530,1000,c),
(530,1000,o),
(530,1000,o),
(530,1000,c),
(530,1000,l),
(377,1000,o),
(220,1000,o),
(220,1000,c),
(220,1000,l),
(116,1000,o),
(31,916,o),
(31,812,c),
(31,812,o),
(31,621,o),
(31,500,c),
(31,500,o),
(31,500,o),
(31,500,c),
(31,379,o),
(31,190,o),
(31,190,c),
(31,85,o),
(116,0,o),
(220,0,c)
);
}
);
width = 1062;
},
{
associatedMasterId = "58E5FC18-77BC-4E01-B365-5BD9F0D9FC65";
layerId = "58152F61-A1BD-47C4-A255-9A01098475D1";
shapes = (
{
attr = {
fillColor = (0,255);
};
closed = 1;
nodes = (
(842,1,l),
(946,1,o),
(1031,85,o),
(1031,190,c),
(1031,637,l),
(1031,638,o),
(1031,639,o),
(1031,640,c),
(1031,812,l),
(1031,916,o),
(947,1000,o),
(843,1000,c),
(843,1000,l),
(739,1000,o),
(655,916,o),
(655,812,c),
(655,512,l),
(655,443,o),
(600,388,o),
(531,388,c),
(462,388,o),
(407,443,o),
(407,512,c),
(407,812,l),
(407,916,o),
(323,1000,o),
(219,1000,c),
(219,1000,l),
(115,1000,o),
(31,916,o),
(31,812,c),
(31,673,l),
(31,673,o),
(31,640,o),
(31,640,c),
(31,190,l),
(31,85,o),
(116,1,o),
(220,1,c)
);
}
);
width = 1062;
},
{
background = {
shapes = (
{
attr = {
fillColor = (0,255);
};
closed = 1;
nodes = (
(1031,189,l),
(1031,85,o),
(947,0,o),
(842,0,c),
(221,0,l),
(116,0,o),
(31,85,o),
(31,189,c),
(31,811,l),
(31,915,o),
(116,1000,o),
(221,1000,c),
(842,1000,l),
(947,1000,o),
(1031,915,o),
(1031,811,c)
);
},
{
closed = 1;
nodes = (
(1194,167,l),
(1194,833,l),
(-132,833,l),
(-132,167,l)
);
}
);
};
layerId = "DBF666E4-5604-41F1-9EC2-592A51C7F52D";
shapes = (
{
attr = {
fillColor = (0,255);
};
closed = 1;
nodes = (
(400,0,o),
(377,167,o),
(530,167,cs),
(685,167,o),
(662,0,o),
(841,0,c),
(946,0,o),
(1031,85,o),
(1031,190,c),
(1031,410,o),
(1194,379,o),
(1194,500,c),
(1194,500,o),
(1194,500,o),
(1194,500,c),
(1194,621,o),
(1032,597,o),
(1031,812,c),
(1031,916,o),
(946,1000,o),
(841,1000,c),
(841,1000,l),
(662,1000,o),
(685,833,o),
(530,833,c),
(530,833,l),
(530,833,o),
(530,833,o),
(530,833,c),
(530,833,o),
(530,833,o),
(530,833,c),
(530,833,l),
(377,833,o),
(400,1000,o),
(220,1000,c),
(220,1000,l),
(116,1000,o),
(31,916,o),
(31,812,c),
(32,595,o),
(-132,621,o),
(-132,500,c),
(-132,500,o),
(-132,500,o),
(-132,500,c),
(-132,379,o),
(31,410,o),
(31,190,c),
(31,85,o),
(116,0,o),
(220,0,c)
);
}
);
width = 1062;
},
{
associatedMasterId = "DBF666E4-5604-41F1-9EC2-592A51C7F52D";
layerId = "B8B55877-0AC7-478A-BB1D-B117BC78B3E9";
shapes = (
{
attr = {
fillColor = (0,255);
};
closed = 1;
nodes = (
(842,1,l),
(946,1,o),
(1031,85,o),
(1031,190,c),
(1031,637,l),
(1031,638,o),
(1031,639,o),
(1031,640,c),
(1031,812,l),
(1031,916,o),
(947,1000,o),
(843,1000,c),
(843,1000,l),
(739,1000,o),
(655,916,o),
(655,812,c),
(655,512,l),
(655,443,o),
(600,388,o),
(531,388,c),
(462,388,o),
(407,443,o),
(407,512,c),
(407,812,l),
(407,916,o),
(323,1000,o),
(219,1000,c),
(219,1000,l),
(115,1000,o),
(31,916,o),
(31,812,c),
(31,673,l),
(31,673,o),
(31,640,o),
(31,640,c),
(31,190,l),
(31,85,o),
(116,1,o),
(220,1,c)
);
}
);
width = 1062;
}
);
unicode = (85,117);
},
{
glyphname = V;
lastChange = "2023-04-21 03:16:34 +0000";
layers = (
{
layerId = m01;
shapes = (
{
attr = {
fillColor = (0,255);
};
closed = 1;
nodes = (
(534,0,o),
(537,0,o),
(539,0,cs),
(542,0,o),
(545,0,o),
(547,0,c),
(813,0,o),
(1031,180,o),
(1031,404,c),
(1031,482,o),
(1031,559,o),
(1031,637,c),
(1031,638,o),
(1031,639,o),
(1031,640,c),
(1031,697,o),
(1031,755,o),
(1031,812,c),
(1031,916,o),
(947,1000,o),
(843,1000,c),
(843,1000,l),
(739,1000,o),
(655,916,o),
(655,812,c),
(655,512,l),
(655,443,o),
(600,388,o),
(531,388,c),
(462,388,o),
(407,443,o),
(407,512,c),
(407,812,l),
(407,916,o),
(323,1000,o),
(219,1000,c),
(219,1000,l),
(115,1000,o),
(31,916,o),
(31,812,c),
(31,766,o),
(31,719,o),
(31,673,c),
(31,673,o),
(31,640,o),
(31,640,c),
(31,556,o),
(31,472,o),
(31,388,c),
(31,174,o),
(256,0,o),
(531,0,c)
);
}
);
width = 1062;
},
{
associatedMasterId = m01;
layerId = "50931EA0-C13B-4080-8789-B80C46453536";
shapes = (
{
attr = {
fillColor = (0,255);
};
closed = 1;
nodes = (
(842,1,l),
(946,1,o),
(1031,85,o),
(1031,190,c),
(1031,637,l),
(1031,638,o),
(1031,639,o),
(1031,640,c),
(1031,812,l),
(1031,916,o),
(947,1000,o),
(843,1000,c),
(843,1000,l),
(739,1000,o),
(655,916,o),
(655,812,c),
(655,512,l),
(655,443,o),
(600,388,o),
(531,388,c),
(462,388,o),
(407,443,o),
(407,512,c),
(407,812,l),
(407,916,o),
(323,1000,o),
(219,1000,c),
(219,1000,l),
(115,1000,o),
(31,916,o),
(31,812,c),
(31,673,l),
(31,673,o),
(31,640,o),
(31,640,c),
(31,190,l),
(31,85,o),
(116,1,o),
(220,1,c)
);
}
);
width = 1062;
},
{
background = {
shapes = (
{
attr = {
fillColor = (0,255);
};
closed = 1;
nodes = (
(1031,189,l),
(1031,85,o),
(947,0,o),
(842,0,c),
(221,0,l),
(116,0,o),
(31,85,o),
(31,189,c),
(31,811,l),
(31,915,o),
(116,1000,o),
(221,1000,c),
(842,1000,l),
(947,1000,o),
(1031,915,o),
(1031,811,c)
);
}
);
};
layerId = "6B27D304-7F9E-45B8-9D41-04979570550F";
shapes = (
{
attr = {
fillColor = (0,255);
};
closed = 1;
nodes = (
(220,0,o),
(410,0,o),
(531,0,cs),
(652,0,o),
(842,0,o),
(842,0,c),
(946,0,o),
(1031,85,o),
(1031,190,c),
(1031,190,o),
(1031,346,o),
(1031,500,c),
(1031,500,o),
(1031,500,o),
(1031,500,c),
(1031,654,o),
(1031,812,o),
(1031,812,c),
(1031,916,o),
(947,1000,o),
(843,1000,c),
(843,1000,l),
(843,1000,o),
(652,1000,o),
(531,1000,c),
(531,1000,l),
(531,1000,o),
(531,1000,o),
(531,1000,c),
(531,1000,o),
(531,1000,o),
(531,1000,c),
(531,1000,l),
(410,1000,o),
(219,1000,o),
(219,1000,c),
(219,1000,l),
(115,1000,o),
(31,916,o),
(31,812,c),
(31,812,o),
(31,654,o),
(31,500,c),
(31,500,o),
(31,500,o),
(31,500,c),
(31,346,o),
(31,189,o),
(31,189,c),
(31,85,o),
(116,0,o),
(220,0,c)
);
}
);
width = 1062;
},
{
associatedMasterId = "6B27D304-7F9E-45B8-9D41-04979570550F";
layerId = "6E8B1031-5FED-4313-83D6-84F4DAA23589";
shapes = (
{
attr = {
fillColor = (0,255);
};
closed = 1;
nodes = (
(842,1,l),
(946,1,o),
(1031,85,o),
(1031,190,c),
(1031,637,l),
(1031,638,o),
(1031,639,o),
(1031,640,c),
(1031,812,l),
(1031,916,o),
(947,1000,o),
(843,1000,c),
(843,1000,l),
(739,1000,o),
(655,916,o),
(655,812,c),
(655,512,l),
(655,443,o),
(600,388,o),
(531,388,c),
(462,388,o),
(407,443,o),
(407,512,c),
(407,812,l),
(407,916,o),
(323,1000,o),
(219,1000,c),
(219,1000,l),
(115,1000,o),
(31,916,o),
(31,812,c),
(31,673,l),
(31,673,o),
(31,640,o),
(31,640,c),
(31,190,l),
(31,85,o),
(116,1,o),
(220,1,c)
);
}
);
width = 1062;
},
{
background = {
shapes = (
{
attr = {
fillColor = (0,255);
};
closed = 1;
nodes = (
(1031,189,l),
(1031,85,o),
(947,0,o),
(842,0,c),
(221,0,l),
(116,0,o),
(31,85,o),
(31,189,c),
(31,811,l),
(31,915,o),
(116,1000,o),
(221,1000,c),
(842,1000,l),
(947,1000,o),
(1031,915,o),
(1031,811,c)
);
}
);
};
layerId = "CD6C633B-B950-41C6-A48C-C51C49E64880";
shapes = (
{
attr = {
fillColor = (0,255);
};
closed = 1;
nodes = (
(441,0,o),
(410,-163,o),
(531,-163,cs),
(652,-163,o),
(621,0,o),
(842,0,c),
(946,0,o),
(1031,85,o),
(1031,190,c),
(1031,369,o),
(864,346,o),
(864,500,c),
(864,500,o),
(864,500,o),
(864,500,c),
(864,654,o),
(1031,631,o),
(1031,812,c),
(1031,916,o),
(947,1000,o),
(843,1000,c),
(843,1000,l),
(621,1000,o),
(652,1163,o),
(531,1163,c),
(531,1163,l),
(531,1163,o),
(531,1163,o),
(531,1163,c),
(531,1163,o),
(531,1163,o),
(531,1163,c),
(531,1163,l),
(410,1163,o),
(441,1000,o),
(219,1000,c),
(219,1000,l),
(115,1000,o),
(31,916,o),
(31,812,c),
(31,631,o),
(198,654,o),
(198,500,c),
(198,500,o),
(198,500,o),
(198,500,c),
(198,346,o),
(31,369,o),
(31,189,c),
(31,85,o),
(116,0,o),
(220,0,c)
);
}
);
width = 1062;
},
{
associatedMasterId = "CD6C633B-B950-41C6-A48C-C51C49E64880";
layerId = "BBD13052-6ED6-49E8-8E5B-C675E077014B";
shapes = (
{
attr = {
fillColor = (0,255);
};
closed = 1;
nodes = (
(842,1,l),
(946,1,o),
(1031,85,o),
(1031,190,c),
(1031,637,l),
(1031,638,o),
(1031,639,o),
(1031,640,c),
(1031,812,l),
(1031,916,o),
(947,1000,o),
(843,1000,c),
(843,1000,l),
(739,1000,o),
(655,916,o),
(655,812,c),
(655,512,l),
(655,443,o),
(600,388,o),
(531,388,c),
(462,388,o),
(407,443,o),
(407,512,c),
(407,812,l),
(407,916,o),
(323,1000,o),
(219,1000,c),
(219,1000,l),
(115,1000,o),
(31,916,o),
(31,812,c),
(31,673,l),
(31,673,o),
(31,640,o),
(31,640,c),
(31,190,l),
(31,85,o),
(116,1,o),
(220,1,c)
);
}
);
width = 1062;
},
{
background = {
shapes = (
{
attr = {
fillColor = (0,255);
};
closed = 1;
nodes = (
(1031,189,l),
(1031,85,o),
(947,0,o),
(842,0,c),
(221,0,l),
(116,0,o),
(31,85,o),
(31,189,c),
(31,811,l),
(31,915,o),
(116,1000,o),
(221,1000,c),
(842,1000,l),
(947,1000,o),
(1031,915,o),
(1031,811,c)
);
}
);
};
layerId = "58E5FC18-77BC-4E01-B365-5BD9F0D9FC65";
shapes = (
{
attr = {
fillColor = (0,255);
};
closed = 1;
nodes = (
(220,0,o),
(377,0,o),
(531,0,cs),
(684,0,o),
(842,0,o),
(842,0,c),
(946,0,o),
(1031,85,o),
(1031,190,c),
(1031,190,o),
(1031,346,o),
(1031,500,c),
(1031,500,o),
(1031,500,o),
(1031,500,c),
(1031,654,o),
(1031,812,o),
(1031,812,c),
(1031,916,o),
(947,1000,o),
(843,1000,c),
(843,1000,l),
(843,1000,o),
(684,1000,o),
(531,1000,c),
(531,1000,l),
(531,1000,o),
(531,1000,o),
(531,1000,c),
(531,1000,o),
(531,1000,o),
(531,1000,c),
(531,1000,l),
(376,1000,o),
(219,1000,o),
(219,1000,c),
(219,1000,l),
(115,1000,o),
(31,916,o),
(31,812,c),
(31,812,o),
(31,654,o),
(31,500,c),
(31,500,o),
(31,500,o),
(31,500,c),
(31,346,o),
(31,189,o),
(31,189,c),
(31,85,o),
(116,0,o),
(220,0,c)
);
}
);
width = 1062;
},
{
associatedMasterId = "58E5FC18-77BC-4E01-B365-5BD9F0D9FC65";
layerId = "FD4800EF-309C-4E70-A41A-E0C5D6AFCFE5";
shapes = (
{
attr = {
fillColor = (0,255);
};
closed = 1;
nodes = (
(842,1,l),
(946,1,o),
(1031,85,o),
(1031,190,c),
(1031,637,l),
(1031,638,o),
(1031,639,o),
(1031,640,c),
(1031,812,l),
(1031,916,o),
(947,1000,o),
(843,1000,c),
(843,1000,l),
(739,1000,o),
(655,916,o),
(655,812,c),
(655,512,l),
(655,443,o),
(600,388,o),
(531,388,c),
(462,388,o),
(407,443,o),
(407,512,c),
(407,812,l),
(407,916,o),
(323,1000,o),
(219,1000,c),
(219,1000,l),
(115,1000,o),
(31,916,o),
(31,812,c),
(31,673,l),
(31,673,o),
(31,640,o),
(31,640,c),
(31,190,l),
(31,85,o),
(116,1,o),
(220,1,c)
);
}
);
width = 1062;
},
{
background = {
shapes = (
{
attr = {
fillColor = (0,255);
};
closed = 1;
nodes = (
(1031,189,l),
(1031,85,o),
(947,0,o),
(842,0,c),
(221,0,l),
(116,0,o),
(31,85,o),
(31,189,c),
(31,811,l),
(31,915,o),
(116,1000,o),
(221,1000,c),
(842,1000,l),
(947,1000,o),
(1031,915,o),
(1031,811,c)
);
},
{
closed = 1;
nodes = (
(1194,167,l),
(1194,833,l),
(-132,833,l),
(-132,167,l)
);
}
);
};
layerId = "DBF666E4-5604-41F1-9EC2-592A51C7F52D";
shapes = (
{
attr = {
fillColor = (0,255);
};
closed = 1;
nodes = (
(400,0,o),
(377,167,o),
(531,167,cs),
(684,167,o),
(662,0,o),
(842,0,c),
(946,0,o),
(1031,85,o),
(1031,190,c),
(1031,410,o),
(1194,379,o),
(1194,500,c),
(1194,500,o),
(1194,500,o),
(1194,500,c),
(1194,621,o),
(1031,600,o),
(1031,812,c),
(1031,916,o),
(947,1000,o),
(843,1000,c),
(843,1000,l),
(662,1000,o),
(684,833,o),
(531,833,c),
(531,833,l),
(531,833,o),
(531,833,o),
(531,833,c),
(531,833,o),
(531,833,o),
(531,833,c),
(531,833,l),
(376,833,o),
(400,1000,o),
(219,1000,c),
(219,1000,l),
(115,1000,o),
(31,916,o),
(31,812,c),
(31,592,o),
(-132,621,o),
(-132,500,c),
(-132,500,o),
(-132,500,o),
(-132,500,c),
(-132,379,o),
(31,410,o),
(31,189,c),
(31,85,o),
(116,0,o),
(220,0,c)
);
}
);
width = 1062;
},
{
associatedMasterId = "DBF666E4-5604-41F1-9EC2-592A51C7F52D";
layerId = "84CB2436-2CAE-4F6B-AE0E-6F00E255407C";
shapes = (
{
attr = {
fillColor = (0,255);
};
closed = 1;
nodes = (
(842,1,l),
(946,1,o),
(1031,85,o),
(1031,190,c),
(1031,637,l),
(1031,638,o),
(1031,639,o),
(1031,640,c),
(1031,812,l),
(1031,916,o),
(947,1000,o),
(843,1000,c),
(843,1000,l),
(739,1000,o),
(655,916,o),
(655,812,c),
(655,512,l),
(655,443,o),
(600,388,o),
(531,388,c),
(462,388,o),
(407,443,o),
(407,512,c),
(407,812,l),
(407,916,o),
(323,1000,o),
(219,1000,c),
(219,1000,l),
(115,1000,o),
(31,916,o),
(31,812,c),
(31,673,l),
(31,673,o),
(31,640,o),
(31,640,c),
(31,190,l),
(31,85,o),
(116,1,o),
(220,1,c)
);
}
);
width = 1062;
}
);
unicode = (86,118);
},
